# MagicaVoxel @ Ephtracy

# group
o torso

# material
mtllib torso_stand.mtl
usemtl palette

# normals
vn -1 0 0
vn 1 0 0
vn 0 0 1
vn 0 0 -1
vn 0 -1 0
vn 0 1 0

# texcoords
vt 0.970703 0.5
vt 0.974609 0.5
vt 0.978516 0.5
vt 0.982422 0.5

# verts
v -0.1 0 0.1
v -0.1 0 0
v -0.1 0 -0.1
v -0.1 0 -0.2
v -0.1 0.1 0.1
v -0.1 0.1 0
v -0.1 0.1 -0.1
v -0.1 0.1 -0.2
v -0.1 0.6 0.1
v -0.1 0.6 -0.2
v -0.1 0.7 0.1
v -0.1 0.7 -0.2
v -0.1 1.2 0.1
v -0.1 1.2 -0.2
v -0.1 1.3 0.1
v -0.1 1.3 -0.2
v -0.1 1.5 0.1
v -0.1 1.5 -0.2
v -0.1 1.6 0.1
v -0.1 1.6 -0.2
v 1.49012e-08 0.1 0.1
v 1.49012e-08 0.1 0
v 1.49012e-08 0.1 -0.1
v 1.49012e-08 0.1 -0.2
v 1.49012e-08 0.6 0.1
v 1.49012e-08 0.6 0
v 1.49012e-08 0.6 -0.1
v 1.49012e-08 0.6 -0.2
v 1.49012e-08 1.2 0
v 1.49012e-08 1.2 -0.1
v 1.49012e-08 1.3 0
v 1.49012e-08 1.3 -0.1
v 0.1 0 0.1
v 0.1 0 0
v 0.1 0 -0.1
v 0.1 0 -0.2
v 0.1 0.1 0.1
v 0.1 0.1 0
v 0.1 0.1 -0.1
v 0.1 0.1 -0.2
v 0.1 0.6 0.1
v 0.1 0.6 0
v 0.1 0.6 -0.1
v 0.1 0.6 -0.2
v 0.2 0.6 0.1
v 0.2 0.6 -0.2
v 0.2 0.7 0.1
v 0.2 0.7 -0.2
v 0.2 1.2 0.1
v 0.2 1.2 0
v 0.2 1.2 -0.1
v 0.2 1.2 -0.2
v 0.2 1.3 0.1
v 0.2 1.3 0
v 0.2 1.3 -0.1
v 0.2 1.3 -0.2
v 0.2 1.5 0.1
v 0.2 1.5 -0.2
v 0.2 1.6 0.1
v 0.2 1.6 -0.2
v -0.1 0 0.1
v -0.1 0.1 0.1
v -0.1 0.6 0.1
v -0.1 0.7 0.1
v -0.1 1.2 0.1
v -0.1 1.3 0.1
v -0.1 1.5 0.1
v -0.1 1.6 0.1
v 1.49012e-08 0.1 0.1
v 1.49012e-08 0.6 0.1
v 0.1 0 0.1
v 0.1 0.1 0.1
v 0.1 0.6 0.1
v 0.2 0.6 0.1
v 0.2 0.7 0.1
v 0.2 1.2 0.1
v 0.2 1.3 0.1
v 0.2 1.5 0.1
v 0.2 1.6 0.1
v 1.49012e-08 1.2 0
v 1.49012e-08 1.3 0
v 0.2 1.2 0
v 0.2 1.3 0
v -0.1 0 -0.1
v -0.1 0.1 -0.1
v 1.49012e-08 0.1 -0.1
v 1.49012e-08 0.6 -0.1
v 0.1 0 -0.1
v 0.1 0.1 -0.1
v 0.1 0.6 -0.1
v -0.1 0 0
v -0.1 0.1 0
v 1.49012e-08 0.1 0
v 1.49012e-08 0.6 0
v 0.1 0 0
v 0.1 0.1 0
v 0.1 0.6 0
v 1.49012e-08 1.2 -0.1
v 1.49012e-08 1.3 -0.1
v 0.2 1.2 -0.1
v 0.2 1.3 -0.1
v -0.1 0 -0.2
v -0.1 0.1 -0.2
v -0.1 0.6 -0.2
v -0.1 0.7 -0.2
v -0.1 1.2 -0.2
v -0.1 1.3 -0.2
v -0.1 1.5 -0.2
v -0.1 1.6 -0.2
v 1.49012e-08 0.1 -0.2
v 1.49012e-08 0.6 -0.2
v 0.1 0 -0.2
v 0.1 0.1 -0.2
v 0.1 0.6 -0.2
v 0.2 0.6 -0.2
v 0.2 0.7 -0.2
v 0.2 1.2 -0.2
v 0.2 1.3 -0.2
v 0.2 1.5 -0.2
v 0.2 1.6 -0.2
v -0.1 0 0.1
v 0.1 0 0.1
v -0.1 0 0
v 0.1 0 0
v -0.1 0 -0.1
v 0.1 0 -0.1
v -0.1 0 -0.2
v 0.1 0 -0.2
v -0.1 0.6 0.1
v 1.49012e-08 0.6 0.1
v 0.1 0.6 0.1
v 0.2 0.6 0.1
v 1.49012e-08 0.6 0
v 0.1 0.6 0
v 1.49012e-08 0.6 -0.1
v 0.1 0.6 -0.1
v -0.1 0.6 -0.2
v 1.49012e-08 0.6 -0.2
v 0.1 0.6 -0.2
v 0.2 0.6 -0.2
v -0.1 1.3 0.1
v 0.2 1.3 0.1
v 1.49012e-08 1.3 0
v 0.2 1.3 0
v 1.49012e-08 1.3 -0.1
v 0.2 1.3 -0.1
v -0.1 1.3 -0.2
v 0.2 1.3 -0.2
v -0.1 0.1 0.1
v 1.49012e-08 0.1 0.1
v -0.1 0.1 0
v 1.49012e-08 0.1 0
v -0.1 0.1 -0.1
v 1.49012e-08 0.1 -0.1
v -0.1 0.1 -0.2
v 1.49012e-08 0.1 -0.2
v -0.1 1.2 0.1
v 0.2 1.2 0.1
v 1.49012e-08 1.2 0
v 0.2 1.2 0
v 1.49012e-08 1.2 -0.1
v 0.2 1.2 -0.1
v -0.1 1.2 -0.2
v 0.2 1.2 -0.2
v -0.1 1.6 0.1
v 0.2 1.6 0.1
v -0.1 1.6 -0.2
v 0.2 1.6 -0.2

# faces
f 5/1/1 2/1/1 1/1/1
f 6/1/1 2/1/1 5/1/1
f 7/1/1 4/1/1 3/1/1
f 8/1/1 4/1/1 7/1/1
f 11/2/1 10/2/1 9/2/1
f 12/2/1 10/2/1 11/2/1
f 13/3/1 12/3/1 11/3/1
f 14/3/1 12/3/1 13/3/1
f 17/1/1 16/1/1 15/1/1
f 18/1/1 16/1/1 17/1/1
f 19/4/1 18/4/1 17/4/1
f 20/4/1 18/4/1 19/4/1
f 25/2/1 22/2/1 21/2/1
f 26/2/1 22/2/1 25/2/1
f 27/2/1 24/2/1 23/2/1
f 28/2/1 24/2/1 27/2/1
f 31/1/1 30/1/1 29/1/1
f 32/1/1 30/1/1 31/1/1
f 33/1/2 34/1/2 37/1/2
f 37/1/2 34/1/2 38/1/2
f 35/1/2 36/1/2 39/1/2
f 39/1/2 36/1/2 40/1/2
f 37/2/2 38/2/2 41/2/2
f 41/2/2 38/2/2 42/2/2
f 39/2/2 40/2/2 43/2/2
f 43/2/2 40/2/2 44/2/2
f 45/2/2 46/2/2 47/2/2
f 47/2/2 46/2/2 48/2/2
f 47/3/2 48/3/2 49/3/2
f 49/3/2 48/3/2 50/3/2
f 50/3/2 48/3/2 51/3/2
f 51/3/2 48/3/2 52/3/2
f 50/1/2 51/1/2 54/1/2
f 54/1/2 51/1/2 55/1/2
f 53/1/2 54/1/2 57/1/2
f 55/1/2 56/1/2 57/1/2
f 54/1/2 55/1/2 57/1/2
f 57/1/2 56/1/2 58/1/2
f 57/4/2 58/4/2 59/4/2
f 59/4/2 58/4/2 60/4/2
f 69/1/3 62/1/3 61/1/3
f 70/2/3 64/2/3 63/2/3
f 71/1/3 69/1/3 61/1/3
f 72/2/3 70/2/3 69/2/3
f 72/1/3 69/1/3 71/1/3
f 73/2/3 64/2/3 70/2/3
f 73/2/3 70/2/3 72/2/3
f 74/2/3 64/2/3 73/2/3
f 75/3/3 65/3/3 64/3/3
f 75/2/3 64/2/3 74/2/3
f 76/3/3 65/3/3 75/3/3
f 77/1/3 67/1/3 66/1/3
f 78/4/3 68/4/3 67/4/3
f 78/1/3 67/1/3 77/1/3
f 79/4/3 68/4/3 78/4/3
f 82/1/3 81/1/3 80/1/3
f 83/1/3 81/1/3 82/1/3
f 86/1/3 85/1/3 84/1/3
f 88/1/3 86/1/3 84/1/3
f 89/2/3 87/2/3 86/2/3
f 89/1/3 86/1/3 88/1/3
f 90/2/3 87/2/3 89/2/3
f 91/1/4 92/1/4 93/1/4
f 91/1/4 93/1/4 95/1/4
f 93/2/4 94/2/4 96/2/4
f 95/1/4 93/1/4 96/1/4
f 96/2/4 94/2/4 97/2/4
f 98/1/4 99/1/4 100/1/4
f 100/1/4 99/1/4 101/1/4
f 102/1/4 103/1/4 110/1/4
f 104/2/4 105/2/4 111/2/4
f 102/1/4 110/1/4 112/1/4
f 110/2/4 111/2/4 113/2/4
f 112/1/4 110/1/4 113/1/4
f 111/2/4 105/2/4 114/2/4
f 113/2/4 111/2/4 114/2/4
f 114/2/4 105/2/4 115/2/4
f 105/3/4 106/3/4 116/3/4
f 115/2/4 105/2/4 116/2/4
f 116/3/4 106/3/4 117/3/4
f 107/1/4 108/1/4 118/1/4
f 108/4/4 109/4/4 119/4/4
f 118/1/4 108/1/4 119/1/4
f 119/4/4 109/4/4 120/4/4
f 123/1/5 122/1/5 121/1/5
f 124/1/5 122/1/5 123/1/5
f 127/1/5 126/1/5 125/1/5
f 128/1/5 126/1/5 127/1/5
f 133/2/5 130/2/5 129/2/5
f 134/2/5 132/2/5 131/2/5
f 135/2/5 133/2/5 129/2/5
f 135/2/5 134/2/5 133/2/5
f 136/2/5 132/2/5 134/2/5
f 136/2/5 134/2/5 135/2/5
f 137/2/5 135/2/5 129/2/5
f 138/2/5 135/2/5 137/2/5
f 139/2/5 132/2/5 136/2/5
f 140/2/5 132/2/5 139/2/5
f 143/1/5 142/1/5 141/1/5
f 144/1/5 142/1/5 143/1/5
f 145/1/5 143/1/5 141/1/5
f 147/1/5 145/1/5 141/1/5
f 147/1/5 146/1/5 145/1/5
f 148/1/5 146/1/5 147/1/5
f 149/1/6 150/1/6 151/1/6
f 151/1/6 150/1/6 152/1/6
f 153/1/6 154/1/6 155/1/6
f 155/1/6 154/1/6 156/1/6
f 157/3/6 158/3/6 159/3/6
f 159/3/6 158/3/6 160/3/6
f 157/3/6 159/3/6 161/3/6
f 157/3/6 161/3/6 163/3/6
f 161/3/6 162/3/6 163/3/6
f 163/3/6 162/3/6 164/3/6
f 165/4/6 166/4/6 167/4/6
f 167/4/6 166/4/6 168/4/6
