# MagicaVoxel @ Ephtracy

# group
o 

# material
mtllib castle_cross_hall-3.mtl
usemtl palette

# normals
vn -1 0 0
vn 1 0 0
vn 0 0 1
vn 0 0 -1
vn 0 -1 0
vn 0 1 0

# texcoords
vt 0.943359 0.5
vt 0.947266 0.5
vt 0.951172 0.5

# verts
v -5 3.9 -6.3
v -5 3.9 -6.6
v -5 3.9 -6.9
v -5 4 -6.6
v -5 4 -6.9
v -5 4.1 -6.4
v -5 4.1 -6.8
v -5 4.2 -6.3
v -5 4.2 -6.4
v -5 4.2 -6.8
v -5 4.2 -6.9
v -4.9 3.8 -6.3
v -4.9 3.8 -6.8
v -4.9 3.9 -6.3
v -4.9 3.9 -6.6
v -4.9 3.9 -6.8
v -4.8 3.5 -6.3
v -4.8 3.5 -6.9
v -4.8 3.6 -6.3
v -4.8 3.6 -6.4
v -4.8 3.7 -6.4
v -4.8 3.7 -6.6
v -4.8 3.8 -6.3
v -4.8 3.8 -6.6
v -4.8 3.8 -6.8
v -4.8 3.8 -6.9
v -4.8 3.9 -6.8
v -4.8 3.9 -6.9
v -4.7 0.1 -6.3
v -4.7 0.1 -6.9
v -4.7 0.5 -6.3
v -4.7 0.5 -6.4
v -4.7 0.5 -6.6
v -4.7 0.5 -6.8
v -4.7 0.5 -6.9
v -4.7 0.6 -6.4
v -4.7 0.6 -6.6
v -4.7 0.6 -6.8
v -4.7 3.4 -6.3
v -4.7 3.4 -6.9
v -4.7 3.5 -6.3
v -4.7 3.5 -6.9
v -4.6 0.5 -6.3
v -4.6 0.5 -6.4
v -4.6 0.5 -6.8
v -4.6 0.5 -6.9
v -4.6 0.6 -6.3
v -4.6 0.6 -6.4
v -4.6 0.6 -6.6
v -4.6 0.6 -6.8
v -4.6 0.6 -6.9
v -4.6 0.7 -6.4
v -4.6 0.7 -6.8
v -4.6 1 -6.4
v -4.6 1 -6.8
v -4.6 1.1 -6.4
v -4.6 1.1 -6.8
v -4.6 1.3 -6.4
v -4.6 1.3 -6.7
v -4.6 1.4 -6.4
v -4.6 1.4 -6.7
v -4.6 1.4 -6.8
v -4.6 1.8 -6.4
v -4.6 1.8 -6.8
v -4.6 1.9 -6.4
v -4.6 1.9 -6.8
v -4.6 2.1 -6.4
v -4.6 2.1 -6.5
v -4.6 2.2 -6.4
v -4.6 2.2 -6.5
v -4.6 2.2 -6.8
v -4.6 2.3 -6.4
v -4.6 2.3 -6.8
v -4.6 2.4 -6.4
v -4.6 2.4 -6.6
v -4.6 2.6 -6.4
v -4.6 2.6 -6.6
v -4.6 2.6 -6.8
v -4.6 2.7 -6.4
v -4.6 2.7 -6.8
v -4.6 3 -6.4
v -4.6 3 -6.8
v -4.6 3.1 -6.3
v -4.6 3.1 -6.4
v -4.6 3.1 -6.8
v -4.6 3.1 -6.9
v -4.6 3.4 -6.3
v -4.6 3.4 -6.9
v -4.5 1.4 -6.4
v -4.5 1.4 -6.7
v -4.5 1.4 -6.8
v -4.5 1.5 -6.4
v -4.5 1.5 -6.8
v -4.5 1.7 -6.4
v -4.5 1.7 -6.6
v -4.5 1.8 -6.4
v -4.5 1.8 -6.6
v -4.5 1.8 -6.8
v -4.3 0.2 -6.3
v -4.3 0.2 -6.9
v -4.3 0.6 -6.3
v -4.3 0.6 -6.4
v -4.3 0.6 -6.5
v -4.3 0.6 -6.7
v -4.3 0.6 -6.8
v -4.3 0.6 -6.9
v -4.3 0.7 -6.4
v -4.3 0.7 -6.5
v -4.3 0.7 -6.7
v -4.3 0.7 -6.8
v -4.3 1 -6.4
v -4.3 1 -6.5
v -4.3 1 -6.7
v -4.3 1 -6.8
v -4.3 1.1 -6.4
v -4.3 1.1 -6.5
v -4.3 1.1 -6.7
v -4.3 1.1 -6.8
v -4.3 1.4 -6.4
v -4.3 1.4 -6.5
v -4.3 1.4 -6.7
v -4.3 1.4 -6.8
v -4.3 1.8 -6.4
v -4.3 1.8 -6.5
v -4.3 1.8 -6.7
v -4.3 1.8 -6.8
v -4.3 1.9 -6.4
v -4.3 1.9 -6.5
v -4.3 1.9 -6.7
v -4.3 1.9 -6.8
v -4.3 2.2 -6.4
v -4.3 2.2 -6.5
v -4.3 2.2 -6.7
v -4.3 2.2 -6.8
v -4.3 2.3 -6.4
v -4.3 2.3 -6.5
v -4.3 2.3 -6.7
v -4.3 2.3 -6.8
v -4.3 2.6 -6.4
v -4.3 2.6 -6.5
v -4.3 2.6 -6.7
v -4.3 2.6 -6.8
v -4.3 2.7 -6.4
v -4.3 2.7 -6.5
v -4.3 2.7 -6.7
v -4.3 2.7 -6.8
v -4.3 3 -6.4
v -4.3 3 -6.5
v -4.3 3 -6.7
v -4.3 3 -6.8
v -4.3 3.1 -6.3
v -4.3 3.1 -6.4
v -4.3 3.1 -6.5
v -4.3 3.1 -6.7
v -4.3 3.1 -6.8
v -4.3 3.1 -6.9
v -4.3 3.4 -6.3
v -4.3 3.4 -6.5
v -4.3 3.4 -6.7
v -4.3 3.4 -6.9
v -4.3 3.5 -6.3
v -4.3 3.5 -6.5
v -4.3 3.5 -6.7
v -4.3 3.5 -6.9
v -4.3 3.8 -6.3
v -4.3 3.8 -6.5
v -4.3 3.8 -6.7
v -4.3 3.8 -6.9
v -4.3 3.9 -6.3
v -4.3 3.9 -6.5
v -4.3 3.9 -6.7
v -4.3 3.9 -6.9
v -4.3 4.2 -6.3
v -4.3 4.2 -6.9
v -4.2 0.1 -6.3
v -4.2 0.1 -6.9
v -4.2 0.2 -6.3
v -4.2 0.2 -6.9
v -4.2 1.4 -6.4
v -4.2 1.4 -6.5
v -4.2 1.4 -6.7
v -4.2 1.4 -6.8
v -4.2 1.5 -6.4
v -4.2 1.5 -6.5
v -4.2 1.5 -6.7
v -4.2 1.5 -6.8
v -4.2 1.8 -6.4
v -4.2 1.8 -6.8
v -5 3.9 -6.3
v -5 4.2 -6.3
v -4.9 3.8 -6.3
v -4.9 3.9 -6.3
v -4.8 3.5 -6.3
v -4.8 3.6 -6.3
v -4.8 3.8 -6.3
v -4.7 0.1 -6.3
v -4.7 0.5 -6.3
v -4.7 3.4 -6.3
v -4.7 3.5 -6.3
v -4.7 3.6 -6.3
v -4.7 3.8 -6.3
v -4.6 0.5 -6.3
v -4.6 0.6 -6.3
v -4.6 3.1 -6.3
v -4.6 3.4 -6.3
v -4.5 0.5 -6.3
v -4.5 0.6 -6.3
v -4.3 0.2 -6.3
v -4.3 0.6 -6.3
v -4.3 3.1 -6.3
v -4.3 3.4 -6.3
v -4.3 3.5 -6.3
v -4.3 3.8 -6.3
v -4.3 3.9 -6.3
v -4.3 4.2 -6.3
v -4.2 0.1 -6.3
v -4.2 0.2 -6.3
v -4.7 0.5 -6.4
v -4.7 0.6 -6.4
v -4.6 0.5 -6.4
v -4.6 0.6 -6.4
v -4.6 0.7 -6.4
v -4.6 1 -6.4
v -4.6 1.1 -6.4
v -4.6 1.3 -6.4
v -4.6 1.4 -6.4
v -4.6 1.8 -6.4
v -4.6 1.9 -6.4
v -4.6 2.1 -6.4
v -4.6 2.2 -6.4
v -4.6 2.3 -6.4
v -4.6 2.4 -6.4
v -4.6 2.6 -6.4
v -4.6 2.7 -6.4
v -4.6 3 -6.4
v -4.6 3.1 -6.4
v -4.5 0.6 -6.4
v -4.5 1.3 -6.4
v -4.5 1.4 -6.4
v -4.5 1.5 -6.4
v -4.5 1.7 -6.4
v -4.5 1.8 -6.4
v -4.5 2.1 -6.4
v -4.5 2.2 -6.4
v -4.5 2.4 -6.4
v -4.5 2.6 -6.4
v -4.3 0.6 -6.4
v -4.3 0.7 -6.4
v -4.3 1 -6.4
v -4.3 1.1 -6.4
v -4.3 1.4 -6.4
v -4.3 1.7 -6.4
v -4.3 1.8 -6.4
v -4.3 1.9 -6.4
v -4.3 2.2 -6.4
v -4.3 2.3 -6.4
v -4.3 2.6 -6.4
v -4.3 2.7 -6.4
v -4.3 3 -6.4
v -4.3 3.1 -6.4
v -4.2 1.4 -6.4
v -4.2 1.5 -6.4
v -4.2 1.8 -6.4
v -4.9 3.8 -6.8
v -4.9 3.9 -6.8
v -4.8 3.8 -6.8
v -4.8 3.9 -6.8
v -4.7 0.5 -6.8
v -4.7 0.6 -6.8
v -4.6 0.5 -6.8
v -4.6 0.6 -6.8
v -4.6 0.7 -6.8
v -4.6 1 -6.8
v -4.6 1.1 -6.8
v -4.6 1.4 -6.8
v -4.6 1.8 -6.8
v -4.6 1.9 -6.8
v -4.6 2.2 -6.8
v -4.6 2.3 -6.8
v -4.6 2.6 -6.8
v -4.6 2.7 -6.8
v -4.6 3 -6.8
v -4.6 3.1 -6.8
v -4.5 1.4 -6.8
v -4.5 1.5 -6.8
v -4.5 1.8 -6.8
v -4.3 0.6 -6.8
v -4.3 0.7 -6.8
v -4.3 1 -6.8
v -4.3 1.1 -6.8
v -4.3 1.4 -6.8
v -4.3 1.8 -6.8
v -4.3 1.9 -6.8
v -4.3 2.2 -6.8
v -4.3 2.3 -6.8
v -4.3 2.6 -6.8
v -4.3 2.7 -6.8
v -4.3 3 -6.8
v -4.3 3.1 -6.8
v -4.2 1.4 -6.8
v -4.2 1.5 -6.8
v -4.2 1.8 -6.8
v -5 3.9 -6.9
v -5 4 -6.9
v -5 4.2 -6.9
v -4.9 3.9 -6.9
v -4.9 4 -6.9
v -4.8 3.5 -6.9
v -4.8 3.8 -6.9
v -4.8 3.9 -6.9
v -4.7 0.1 -6.9
v -4.7 0.5 -6.9
v -4.7 3.4 -6.9
v -4.7 3.5 -6.9
v -4.6 0.5 -6.9
v -4.6 0.6 -6.9
v -4.6 3.1 -6.9
v -4.6 3.4 -6.9
v -4.3 0.2 -6.9
v -4.3 0.6 -6.9
v -4.3 3.1 -6.9
v -4.3 3.4 -6.9
v -4.3 3.5 -6.9
v -4.3 3.8 -6.9
v -4.3 3.9 -6.9
v -4.3 4.2 -6.9
v -4.2 0.1 -6.9
v -4.2 0.2 -6.9
v -4.7 0.1 -6.3
v -4.2 0.1 -6.3
v -4.7 0.1 -6.9
v -4.2 0.1 -6.9
v -4.3 1.4 -6.4
v -4.2 1.4 -6.4
v -4.3 1.4 -6.5
v -4.2 1.4 -6.5
v -4.3 1.4 -6.7
v -4.2 1.4 -6.7
v -4.3 1.4 -6.8
v -4.2 1.4 -6.8
v -4.6 1.8 -6.4
v -4.5 1.8 -6.4
v -4.5 1.8 -6.6
v -4.6 1.8 -6.8
v -4.5 1.8 -6.8
v -4.6 3.1 -6.3
v -4.3 3.1 -6.3
v -4.6 3.1 -6.4
v -4.3 3.1 -6.4
v -4.6 3.1 -6.8
v -4.3 3.1 -6.8
v -4.6 3.1 -6.9
v -4.3 3.1 -6.9
v -4.7 3.4 -6.3
v -4.6 3.4 -6.3
v -4.7 3.4 -6.9
v -4.6 3.4 -6.9
v -4.8 3.5 -6.3
v -4.7 3.5 -6.3
v -4.8 3.5 -6.9
v -4.7 3.5 -6.9
v -4.9 3.8 -6.3
v -4.8 3.8 -6.3
v -4.8 3.8 -6.6
v -4.9 3.8 -6.8
v -4.8 3.8 -6.8
v -5 3.9 -6.3
v -4.9 3.9 -6.3
v -5 3.9 -6.6
v -4.9 3.9 -6.6
v -4.9 3.9 -6.8
v -4.8 3.9 -6.8
v -5 3.9 -6.9
v -4.9 3.9 -6.9
v -4.8 3.9 -6.9
v -4.3 0.2 -6.3
v -4.2 0.2 -6.3
v -4.3 0.2 -6.9
v -4.2 0.2 -6.9
v -4.7 0.5 -6.3
v -4.6 0.5 -6.3
v -4.7 0.5 -6.4
v -4.6 0.5 -6.4
v -4.7 0.5 -6.8
v -4.6 0.5 -6.8
v -4.7 0.5 -6.9
v -4.6 0.5 -6.9
v -4.6 0.6 -6.3
v -4.5 0.6 -6.3
v -4.3 0.6 -6.3
v -4.7 0.6 -6.4
v -4.6 0.6 -6.4
v -4.5 0.6 -6.4
v -4.3 0.6 -6.4
v -4.7 0.6 -6.6
v -4.6 0.6 -6.6
v -4.7 0.6 -6.8
v -4.6 0.6 -6.8
v -4.3 0.6 -6.8
v -4.6 0.6 -6.9
v -4.3 0.6 -6.9
v -4.6 1.4 -6.4
v -4.5 1.4 -6.4
v -4.6 1.4 -6.7
v -4.5 1.4 -6.7
v -4.6 1.4 -6.8
v -4.5 1.4 -6.8
v -4.3 1.8 -6.4
v -4.2 1.8 -6.4
v -4.3 1.8 -6.5
v -4.3 1.8 -6.7
v -4.3 1.8 -6.8
v -4.2 1.8 -6.8
v -5 4.2 -6.3
v -4.3 4.2 -6.3
v -5 4.2 -6.4
v -4.9 4.2 -6.4
v -5 4.2 -6.8
v -4.9 4.2 -6.8
v -5 4.2 -6.9
v -4.3 4.2 -6.9

# faces
f 4/1/1 2/1/1 1/1/1
f 4/3/1 3/3/1 2/3/1
f 5/3/1 3/3/1 4/3/1
f 6/1/1 4/1/1 1/1/1
f 6/1/1 5/1/1 4/1/1
f 7/1/1 5/1/1 6/1/1
f 8/1/1 6/1/1 1/1/1
f 9/2/1 7/2/1 6/2/1
f 9/1/1 6/1/1 8/1/1
f 10/1/1 5/1/1 7/1/1
f 10/2/1 7/2/1 9/2/1
f 11/1/1 5/1/1 10/1/1
f 14/3/1 13/3/1 12/3/1
f 15/3/1 13/3/1 14/3/1
f 16/3/1 13/3/1 15/3/1
f 19/1/1 18/1/1 17/1/1
f 20/1/1 18/1/1 19/1/1
f 21/2/1 20/2/1 19/2/1
f 21/1/1 18/1/1 20/1/1
f 22/1/1 18/1/1 21/1/1
f 23/2/1 21/2/1 19/2/1
f 23/2/1 22/2/1 21/2/1
f 24/1/1 18/1/1 22/1/1
f 24/2/1 22/2/1 23/2/1
f 25/1/1 18/1/1 24/1/1
f 26/1/1 18/1/1 25/1/1
f 27/3/1 26/3/1 25/3/1
f 28/3/1 26/3/1 27/3/1
f 31/1/1 30/1/1 29/1/1
f 32/1/1 30/1/1 31/1/1
f 33/1/1 30/1/1 32/1/1
f 34/1/1 30/1/1 33/1/1
f 35/1/1 30/1/1 34/1/1
f 36/2/1 33/2/1 32/2/1
f 37/1/1 34/1/1 33/1/1
f 37/2/1 33/2/1 36/2/1
f 38/1/1 34/1/1 37/1/1
f 41/3/1 40/3/1 39/3/1
f 42/3/1 40/3/1 41/3/1
f 47/2/1 44/2/1 43/2/1
f 48/2/1 44/2/1 47/2/1
f 50/1/1 46/1/1 45/1/1
f 51/1/1 46/1/1 50/1/1
f 52/3/1 49/3/1 48/3/1
f 52/3/1 50/3/1 49/3/1
f 53/3/1 50/3/1 52/3/1
f 54/1/1 53/1/1 52/1/1
f 55/1/1 53/1/1 54/1/1
f 56/3/1 55/3/1 54/3/1
f 57/3/1 55/3/1 56/3/1
f 58/1/1 57/1/1 56/1/1
f 59/1/1 57/1/1 58/1/1
f 60/2/1 59/2/1 58/2/1
f 61/1/1 57/1/1 59/1/1
f 61/2/1 59/2/1 60/2/1
f 62/1/1 57/1/1 61/1/1
f 65/3/1 64/3/1 63/3/1
f 66/3/1 64/3/1 65/3/1
f 67/1/1 66/1/1 65/1/1
f 68/1/1 66/1/1 67/1/1
f 69/2/1 68/2/1 67/2/1
f 70/1/1 66/1/1 68/1/1
f 70/2/1 68/2/1 69/2/1
f 71/1/1 66/1/1 70/1/1
f 72/3/1 70/3/1 69/3/1
f 72/3/1 71/3/1 70/3/1
f 73/3/1 71/3/1 72/3/1
f 74/1/1 73/1/1 72/1/1
f 75/1/1 73/1/1 74/1/1
f 76/2/1 75/2/1 74/2/1
f 77/1/1 73/1/1 75/1/1
f 77/2/1 75/2/1 76/2/1
f 78/1/1 73/1/1 77/1/1
f 79/3/1 77/3/1 76/3/1
f 79/3/1 78/3/1 77/3/1
f 80/3/1 78/3/1 79/3/1
f 81/1/1 80/1/1 79/1/1
f 82/1/1 80/1/1 81/1/1
f 84/3/1 82/3/1 81/3/1
f 85/3/1 82/3/1 84/3/1
f 87/1/1 85/1/1 84/1/1
f 87/1/1 86/1/1 85/1/1
f 87/1/1 84/1/1 83/1/1
f 88/1/1 86/1/1 87/1/1
f 92/3/1 90/3/1 89/3/1
f 92/3/1 91/3/1 90/3/1
f 93/3/1 91/3/1 92/3/1
f 94/1/1 93/1/1 92/1/1
f 95/1/1 93/1/1 94/1/1
f 96/3/1 95/3/1 94/3/1
f 97/1/1 93/1/1 95/1/1
f 97/3/1 95/3/1 96/3/1
f 98/1/1 93/1/1 97/1/1
f 99/1/2 100/1/2 101/1/2
f 101/1/2 100/1/2 102/1/2
f 102/1/2 100/1/2 103/1/2
f 103/1/2 100/1/2 104/1/2
f 104/1/2 100/1/2 105/1/2
f 105/1/2 100/1/2 106/1/2
f 102/3/2 103/3/2 107/3/2
f 103/1/2 104/1/2 108/1/2
f 107/3/2 103/3/2 108/3/2
f 104/3/2 105/3/2 109/3/2
f 108/1/2 104/1/2 109/1/2
f 109/3/2 105/3/2 110/3/2
f 107/1/2 108/1/2 111/1/2
f 108/1/2 109/1/2 111/1/2
f 109/1/2 110/1/2 111/1/2
f 111/1/2 110/1/2 112/1/2
f 112/1/2 110/1/2 113/1/2
f 113/1/2 110/1/2 114/1/2
f 111/3/2 112/3/2 115/3/2
f 112/1/2 113/1/2 116/1/2
f 115/3/2 112/3/2 116/3/2
f 113/3/2 114/3/2 117/3/2
f 116/1/2 113/1/2 117/1/2
f 117/3/2 114/3/2 118/3/2
f 115/1/2 116/1/2 119/1/2
f 116/1/2 117/1/2 119/1/2
f 117/1/2 118/1/2 119/1/2
f 119/1/2 118/1/2 120/1/2
f 120/1/2 118/1/2 121/1/2
f 121/1/2 118/1/2 122/1/2
f 123/3/2 124/3/2 127/3/2
f 124/1/2 125/1/2 128/1/2
f 127/3/2 124/3/2 128/3/2
f 125/3/2 126/3/2 129/3/2
f 128/1/2 125/1/2 129/1/2
f 129/3/2 126/3/2 130/3/2
f 127/1/2 128/1/2 131/1/2
f 128/1/2 129/1/2 131/1/2
f 129/1/2 130/1/2 131/1/2
f 131/1/2 130/1/2 132/1/2
f 132/1/2 130/1/2 133/1/2
f 133/1/2 130/1/2 134/1/2
f 131/3/2 132/3/2 135/3/2
f 132/1/2 133/1/2 136/1/2
f 135/3/2 132/3/2 136/3/2
f 133/3/2 134/3/2 137/3/2
f 136/1/2 133/1/2 137/1/2
f 137/3/2 134/3/2 138/3/2
f 135/1/2 136/1/2 139/1/2
f 136/1/2 137/1/2 139/1/2
f 137/1/2 138/1/2 139/1/2
f 139/1/2 138/1/2 140/1/2
f 140/1/2 138/1/2 141/1/2
f 141/1/2 138/1/2 142/1/2
f 139/3/2 140/3/2 143/3/2
f 140/1/2 141/1/2 144/1/2
f 143/3/2 140/3/2 144/3/2
f 141/3/2 142/3/2 145/3/2
f 144/1/2 141/1/2 145/1/2
f 145/3/2 142/3/2 146/3/2
f 143/1/2 144/1/2 147/1/2
f 144/1/2 145/1/2 147/1/2
f 145/1/2 146/1/2 147/1/2
f 147/1/2 146/1/2 148/1/2
f 148/1/2 146/1/2 149/1/2
f 149/1/2 146/1/2 150/1/2
f 147/3/2 148/3/2 152/3/2
f 148/1/2 149/1/2 153/1/2
f 152/3/2 148/3/2 153/3/2
f 149/3/2 150/3/2 154/3/2
f 153/1/2 149/1/2 154/1/2
f 154/3/2 150/3/2 155/3/2
f 154/1/2 155/1/2 157/1/2
f 155/1/2 156/1/2 157/1/2
f 153/1/2 154/1/2 157/1/2
f 152/1/2 153/1/2 157/1/2
f 151/1/2 152/1/2 157/1/2
f 157/1/2 156/1/2 158/1/2
f 158/1/2 156/1/2 159/1/2
f 159/1/2 156/1/2 160/1/2
f 157/3/2 158/3/2 161/3/2
f 158/1/2 159/1/2 162/1/2
f 161/3/2 158/3/2 162/3/2
f 159/3/2 160/3/2 163/3/2
f 162/1/2 159/1/2 163/1/2
f 163/3/2 160/3/2 164/3/2
f 161/1/2 162/1/2 165/1/2
f 162/1/2 163/1/2 165/1/2
f 163/1/2 164/1/2 165/1/2
f 165/1/2 164/1/2 166/1/2
f 166/1/2 164/1/2 167/1/2
f 167/1/2 164/1/2 168/1/2
f 165/3/2 166/3/2 169/3/2
f 166/1/2 167/1/2 170/1/2
f 169/3/2 166/3/2 170/3/2
f 167/3/2 168/3/2 171/3/2
f 170/1/2 167/1/2 171/1/2
f 171/3/2 168/3/2 172/3/2
f 169/1/2 170/1/2 173/1/2
f 170/1/2 171/1/2 173/1/2
f 171/1/2 172/1/2 173/1/2
f 173/1/2 172/1/2 174/1/2
f 175/1/2 176/1/2 177/1/2
f 177/1/2 176/1/2 178/1/2
f 179/3/2 180/3/2 183/3/2
f 180/1/2 181/1/2 184/1/2
f 183/3/2 180/3/2 184/3/2
f 181/3/2 182/3/2 185/3/2
f 184/1/2 181/1/2 185/1/2
f 185/3/2 182/3/2 186/3/2
f 183/1/2 184/1/2 187/1/2
f 184/1/2 185/1/2 187/1/2
f 185/1/2 186/1/2 187/1/2
f 187/1/2 186/1/2 188/1/2
f 192/1/3 190/1/3 189/1/3
f 195/3/3 192/3/3 191/3/3
f 199/1/3 194/1/3 193/1/3
f 200/2/3 195/2/3 194/2/3
f 200/1/3 194/1/3 199/1/3
f 201/3/3 192/3/3 195/3/3
f 201/2/3 195/2/3 200/2/3
f 202/1/3 197/1/3 196/1/3
f 205/3/3 199/3/3 198/3/3
f 206/2/3 203/2/3 202/2/3
f 206/1/3 202/1/3 196/1/3
f 207/2/3 203/2/3 206/2/3
f 208/1/3 206/1/3 196/1/3
f 208/1/3 207/1/3 206/1/3
f 209/1/3 207/1/3 208/1/3
f 210/1/3 205/1/3 204/1/3
f 211/3/3 199/3/3 205/3/3
f 211/1/3 205/1/3 210/1/3
f 212/1/3 200/1/3 199/1/3
f 212/3/3 199/3/3 211/3/3
f 212/1/3 201/1/3 200/1/3
f 213/3/3 192/3/3 201/3/3
f 213/1/3 201/1/3 212/1/3
f 214/1/3 190/1/3 192/1/3
f 214/3/3 192/3/3 213/3/3
f 215/1/3 190/1/3 214/1/3
f 216/1/3 208/1/3 196/1/3
f 217/1/3 208/1/3 216/1/3
f 220/2/3 219/2/3 218/2/3
f 221/2/3 219/2/3 220/2/3
f 237/3/3 222/3/3 221/3/3
f 238/1/3 225/1/3 224/1/3
f 238/2/3 226/2/3 225/2/3
f 239/2/3 226/2/3 238/2/3
f 242/3/3 228/3/3 227/3/3
f 243/1/3 229/1/3 228/1/3
f 243/2/3 230/2/3 229/2/3
f 244/3/3 231/3/3 230/3/3
f 244/2/3 230/2/3 243/2/3
f 245/1/3 232/1/3 231/1/3
f 245/2/3 233/2/3 232/2/3
f 246/3/3 234/3/3 233/3/3
f 246/2/3 233/2/3 245/2/3
f 247/3/3 222/3/3 237/3/3
f 248/1/3 223/1/3 222/1/3
f 248/3/3 222/3/3 247/3/3
f 249/3/3 224/3/3 223/3/3
f 249/1/3 223/1/3 248/1/3
f 250/1/3 238/1/3 224/1/3
f 250/3/3 224/3/3 249/3/3
f 250/1/3 239/1/3 238/1/3
f 251/3/3 240/3/3 239/3/3
f 251/1/3 239/1/3 250/1/3
f 252/1/3 241/1/3 240/1/3
f 252/3/3 242/3/3 241/3/3
f 253/3/3 228/3/3 242/3/3
f 253/3/3 242/3/3 252/3/3
f 254/1/3 243/1/3 228/1/3
f 254/3/3 228/3/3 253/3/3
f 254/1/3 244/1/3 243/1/3
f 255/3/3 231/3/3 244/3/3
f 255/1/3 244/1/3 254/1/3
f 256/1/3 245/1/3 231/1/3
f 256/3/3 231/3/3 255/3/3
f 256/1/3 246/1/3 245/1/3
f 257/3/3 234/3/3 246/3/3
f 257/1/3 246/1/3 256/1/3
f 258/1/3 235/1/3 234/1/3
f 258/3/3 234/3/3 257/3/3
f 259/3/3 236/3/3 235/3/3
f 259/1/3 235/1/3 258/1/3
f 260/3/3 236/3/3 259/3/3
f 261/3/3 240/3/3 251/3/3
f 262/1/3 253/1/3 252/1/3
f 262/3/3 240/3/3 261/3/3
f 262/1/3 252/1/3 240/1/3
f 263/1/3 253/1/3 262/1/3
f 264/3/4 265/3/4 266/3/4
f 266/3/4 265/3/4 267/3/4
f 268/1/4 269/1/4 270/1/4
f 270/1/4 269/1/4 271/1/4
f 274/1/4 275/1/4 284/1/4
f 276/3/4 277/3/4 286/3/4
f 271/3/4 272/3/4 287/3/4
f 272/1/4 273/1/4 288/1/4
f 287/3/4 272/3/4 288/3/4
f 273/3/4 274/3/4 289/3/4
f 288/1/4 273/1/4 289/1/4
f 274/1/4 284/1/4 290/1/4
f 289/3/4 274/3/4 290/3/4
f 284/3/4 285/3/4 291/3/4
f 290/1/4 284/1/4 291/1/4
f 285/1/4 286/1/4 292/1/4
f 286/3/4 277/3/4 292/3/4
f 277/1/4 278/1/4 293/1/4
f 292/3/4 277/3/4 293/3/4
f 278/3/4 279/3/4 294/3/4
f 293/1/4 278/1/4 294/1/4
f 279/1/4 280/1/4 295/1/4
f 294/3/4 279/3/4 295/3/4
f 280/3/4 281/3/4 296/3/4
f 295/1/4 280/1/4 296/1/4
f 281/1/4 282/1/4 297/1/4
f 296/3/4 281/3/4 297/3/4
f 282/3/4 283/3/4 298/3/4
f 297/1/4 282/1/4 298/1/4
f 298/3/4 283/3/4 299/3/4
f 291/3/4 285/3/4 300/3/4
f 285/1/4 292/1/4 301/1/4
f 300/3/4 285/3/4 301/3/4
f 301/1/4 292/1/4 302/1/4
f 303/3/4 304/3/4 306/3/4
f 304/1/4 305/1/4 307/1/4
f 306/3/4 304/3/4 307/3/4
f 306/1/4 307/1/4 310/1/4
f 308/1/4 309/1/4 314/1/4
f 311/1/4 312/1/4 315/1/4
f 313/3/4 314/3/4 318/3/4
f 315/1/4 316/1/4 319/1/4
f 311/1/4 315/1/4 319/1/4
f 319/1/4 316/1/4 320/1/4
f 317/1/4 318/1/4 321/1/4
f 318/3/4 314/3/4 322/3/4
f 321/1/4 318/1/4 322/1/4
f 314/1/4 309/1/4 323/1/4
f 322/3/4 314/3/4 323/3/4
f 309/3/4 310/3/4 324/3/4
f 323/1/4 309/1/4 324/1/4
f 310/1/4 307/1/4 325/1/4
f 324/3/4 310/3/4 325/3/4
f 307/1/4 305/1/4 326/1/4
f 325/1/4 307/1/4 326/1/4
f 311/1/4 319/1/4 327/1/4
f 327/1/4 319/1/4 328/1/4
f 331/1/5 330/1/5 329/1/5
f 332/1/5 330/1/5 331/1/5
f 335/3/5 334/3/5 333/3/5
f 336/3/5 334/3/5 335/3/5
f 337/1/5 336/1/5 335/1/5
f 338/1/5 336/1/5 337/1/5
f 339/3/5 338/3/5 337/3/5
f 340/3/5 338/3/5 339/3/5
f 343/3/5 342/3/5 341/3/5
f 344/3/5 343/3/5 341/3/5
f 345/3/5 343/3/5 344/3/5
f 348/1/5 347/1/5 346/1/5
f 349/1/5 347/1/5 348/1/5
f 352/1/5 351/1/5 350/1/5
f 353/1/5 351/1/5 352/1/5
f 356/3/5 355/3/5 354/3/5
f 357/3/5 355/3/5 356/3/5
f 360/1/5 359/1/5 358/1/5
f 361/1/5 359/1/5 360/1/5
f 364/3/5 363/3/5 362/3/5
f 365/3/5 364/3/5 362/3/5
f 366/3/5 364/3/5 365/3/5
f 369/1/5 368/1/5 367/1/5
f 370/1/5 368/1/5 369/1/5
f 371/3/5 370/3/5 369/3/5
f 373/3/5 371/3/5 369/3/5
f 374/1/5 372/1/5 371/1/5
f 374/3/5 371/3/5 373/3/5
f 375/1/5 372/1/5 374/1/5
f 376/1/6 377/1/6 378/1/6
f 378/1/6 377/1/6 379/1/6
f 380/1/6 381/1/6 382/1/6
f 382/1/6 381/1/6 383/1/6
f 384/1/6 385/1/6 386/1/6
f 386/1/6 385/1/6 387/1/6
f 388/2/6 389/2/6 392/2/6
f 389/1/6 390/1/6 393/1/6
f 392/2/6 389/2/6 393/2/6
f 393/1/6 390/1/6 394/1/6
f 391/2/6 392/2/6 395/2/6
f 395/2/6 392/2/6 396/2/6
f 395/1/6 396/1/6 397/1/6
f 397/1/6 396/1/6 398/1/6
f 398/1/6 399/1/6 400/1/6
f 400/1/6 399/1/6 401/1/6
f 402/2/6 403/2/6 404/2/6
f 404/2/6 403/2/6 405/2/6
f 404/1/6 405/1/6 406/1/6
f 406/1/6 405/1/6 407/1/6
f 408/1/6 409/1/6 410/1/6
f 410/1/6 409/1/6 411/1/6
f 411/1/6 409/1/6 412/1/6
f 412/1/6 409/1/6 413/1/6
f 414/1/6 415/1/6 416/1/6
f 416/1/6 415/1/6 417/1/6
f 416/2/6 417/2/6 418/2/6
f 417/1/6 415/1/6 419/1/6
f 418/2/6 417/2/6 419/2/6
f 418/1/6 419/1/6 420/1/6
f 419/1/6 415/1/6 421/1/6
f 420/1/6 419/1/6 421/1/6
