# MagicaVoxel @ Ephtracy

# group
o 

# material
mtllib castle_cross_hall-0.mtl
usemtl palette

# normals
vn -1 0 0
vn 1 0 0
vn 0 0 1
vn 0 0 -1
vn 0 -1 0
vn 0 1 0

# texcoords
vt 0.943359 0.5
vt 0.947266 0.5
vt 0.951172 0.5

# verts
v -5 3.9 10
v -5 3.9 9.8
v -5 3.9 9.7
v -5 3.9 9.4
v -5 4 9.9
v -5 4 9.8
v -5 4 9.7
v -5 4.1 10
v -5 4.1 9.9
v -5 4.1 9.8
v -5 4.1 9.7
v -5 4.1 9.5
v -5 4.1 9.4
v -5 4.2 10
v -5 4.2 9.8
v -5 4.2 9.5
v -5 4.2 9.4
v -4.9 3.8 10
v -4.9 3.8 9.4
v -4.9 3.9 10
v -4.9 3.9 9.8
v -4.9 3.9 9.7
v -4.9 3.9 9.4
v -4.8 3.5 10
v -4.8 3.5 9.4
v -4.8 3.7 9.6
v -4.8 3.7 9.4
v -4.8 3.8 10
v -4.8 3.8 9.6
v -4.8 3.8 9.4
v -4.7 0.1 10
v -4.7 0.1 9.4
v -4.7 0.4 10
v -4.7 0.4 9.8
v -4.7 0.5 10
v -4.7 0.5 9.8
v -4.7 0.5 9.6
v -4.7 0.5 9.5
v -4.7 0.5 9.4
v -4.7 0.6 9.6
v -4.7 0.6 9.5
v -4.7 3.4 10
v -4.7 3.4 9.4
v -4.7 3.5 10
v -4.7 3.5 9.4
v -4.6 0.5 9.9
v -4.6 0.5 9.8
v -4.6 0.5 9.6
v -4.6 0.5 9.5
v -4.6 0.5 9.4
v -4.6 0.6 9.9
v -4.6 0.6 9.8
v -4.6 0.6 9.6
v -4.6 0.6 9.5
v -4.6 0.6 9.4
v -4.6 0.7 9.9
v -4.6 0.7 9.5
v -4.6 0.8 9.9
v -4.6 0.8 9.8
v -4.6 0.9 9.8
v -4.6 0.9 9.7
v -4.6 1 9.9
v -4.6 1 9.7
v -4.6 1 9.5
v -4.6 1.1 9.9
v -4.6 1.1 9.5
v -4.6 1.3 9.9
v -4.6 1.3 9.8
v -4.6 1.4 9.9
v -4.6 1.4 9.8
v -4.6 1.4 9.5
v -4.6 1.5 9.9
v -4.6 1.5 9.5
v -4.6 1.7 9.9
v -4.6 1.7 9.7
v -4.6 1.8 9.9
v -4.6 1.8 9.7
v -4.6 1.8 9.5
v -4.6 2.2 9.9
v -4.6 2.2 9.5
v -4.6 2.3 9.9
v -4.6 2.3 9.5
v -4.6 2.4 9.8
v -4.6 2.4 9.7
v -4.6 2.5 9.9
v -4.6 2.5 9.8
v -4.6 2.5 9.7
v -4.6 2.6 9.9
v -4.6 2.6 9.8
v -4.6 2.6 9.5
v -4.6 2.7 9.9
v -4.6 2.7 9.5
v -4.6 2.9 9.7
v -4.6 2.9 9.5
v -4.6 3 9.9
v -4.6 3 9.7
v -4.6 3 9.5
v -4.6 3.1 10
v -4.6 3.1 9.9
v -4.6 3.1 9.5
v -4.6 3.1 9.4
v -4.6 3.4 10
v -4.6 3.4 9.4
v -4.5 1.8 9.9
v -4.5 1.8 9.7
v -4.5 1.8 9.5
v -4.5 1.9 9.9
v -4.5 1.9 9.5
v -4.5 2.1 9.9
v -4.5 2.1 9.7
v -4.5 2.2 9.9
v -4.5 2.2 9.7
v -4.5 2.2 9.5
v -4.4 0.5 10
v -4.4 0.5 9.9
v -4.4 0.6 10
v -4.4 0.6 9.9
v -4.3 0.2 10
v -4.3 0.2 9.4
v -4.3 0.6 10
v -4.3 0.6 9.9
v -4.3 0.6 9.8
v -4.3 0.6 9.6
v -4.3 0.6 9.5
v -4.3 0.6 9.4
v -4.3 0.7 9.9
v -4.3 0.7 9.8
v -4.3 0.7 9.6
v -4.3 0.7 9.5
v -4.3 1 9.9
v -4.3 1 9.8
v -4.3 1 9.6
v -4.3 1 9.5
v -4.3 1.1 9.9
v -4.3 1.1 9.8
v -4.3 1.1 9.6
v -4.3 1.1 9.5
v -4.3 1.4 9.9
v -4.3 1.4 9.8
v -4.3 1.4 9.6
v -4.3 1.4 9.5
v -4.3 1.8 9.9
v -4.3 1.8 9.5
v -4.3 1.9 9.9
v -4.3 1.9 9.5
v -4.3 2.1 9.9
v -4.3 2.1 9.8
v -4.3 2.2 9.6
v -4.3 2.2 9.5
v -4.3 2.3 9.9
v -4.3 2.3 9.8
v -4.3 2.3 9.6
v -4.3 2.3 9.5
v -4.3 2.6 9.9
v -4.3 2.6 9.8
v -4.3 2.6 9.6
v -4.3 2.6 9.5
v -4.3 2.7 9.9
v -4.3 2.7 9.8
v -4.3 2.7 9.6
v -4.3 2.7 9.5
v -4.3 3 9.9
v -4.3 3 9.8
v -4.3 3 9.6
v -4.3 3 9.5
v -4.3 3.1 10
v -4.3 3.1 9.9
v -4.3 3.1 9.8
v -4.3 3.1 9.6
v -4.3 3.1 9.5
v -4.3 3.1 9.4
v -4.3 3.4 10
v -4.3 3.4 9.8
v -4.3 3.4 9.6
v -4.3 3.4 9.4
v -4.3 3.5 10
v -4.3 3.5 9.8
v -4.3 3.5 9.6
v -4.3 3.5 9.4
v -4.3 3.8 10
v -4.3 3.8 9.8
v -4.3 3.8 9.6
v -4.3 3.8 9.4
v -4.3 3.9 10
v -4.3 3.9 9.8
v -4.3 3.9 9.6
v -4.3 3.9 9.4
v -4.3 4.2 10
v -4.3 4.2 9.4
v -4.2 0.1 10
v -4.2 0.1 9.4
v -4.2 0.2 10
v -4.2 0.2 9.4
v -4.2 1.4 9.9
v -4.2 1.4 9.8
v -4.2 1.4 9.6
v -4.2 1.4 9.5
v -4.2 1.5 9.9
v -4.2 1.5 9.8
v -4.2 1.5 9.6
v -4.2 1.5 9.5
v -4.2 1.8 9.9
v -4.2 1.8 9.5
v -5 3.9 10
v -5 4.1 10
v -5 4.2 10
v -4.9 3.8 10
v -4.9 3.9 10
v -4.8 3.5 10
v -4.8 3.8 10
v -4.7 0.1 10
v -4.7 0.4 10
v -4.7 0.5 10
v -4.7 3.4 10
v -4.7 3.5 10
v -4.7 4.1 10
v -4.7 4.2 10
v -4.6 0.4 10
v -4.6 0.5 10
v -4.6 3.1 10
v -4.6 3.4 10
v -4.4 0.5 10
v -4.4 0.6 10
v -4.3 0.2 10
v -4.3 0.6 10
v -4.3 3.1 10
v -4.3 3.4 10
v -4.3 3.5 10
v -4.3 3.8 10
v -4.3 3.9 10
v -4.3 4.2 10
v -4.2 0.1 10
v -4.2 0.2 10
v -4.6 0.5 9.9
v -4.6 0.6 9.9
v -4.6 0.7 9.9
v -4.6 0.8 9.9
v -4.6 1 9.9
v -4.6 1.1 9.9
v -4.6 1.3 9.9
v -4.6 1.4 9.9
v -4.6 1.5 9.9
v -4.6 1.7 9.9
v -4.6 1.8 9.9
v -4.6 2.2 9.9
v -4.6 2.3 9.9
v -4.6 2.5 9.9
v -4.6 2.6 9.9
v -4.6 2.7 9.9
v -4.6 3 9.9
v -4.6 3.1 9.9
v -4.5 0.5 9.9
v -4.5 0.6 9.9
v -4.5 0.8 9.9
v -4.5 0.9 9.9
v -4.5 1.3 9.9
v -4.5 1.4 9.9
v -4.5 1.7 9.9
v -4.5 1.8 9.9
v -4.5 1.9 9.9
v -4.5 2.1 9.9
v -4.5 2.2 9.9
v -4.5 2.5 9.9
v -4.5 2.6 9.9
v -4.4 0.5 9.9
v -4.4 0.6 9.9
v -4.4 0.9 9.9
v -4.4 1 9.9
v -4.3 0.6 9.9
v -4.3 0.7 9.9
v -4.3 1 9.9
v -4.3 1.1 9.9
v -4.3 1.4 9.9
v -4.3 1.8 9.9
v -4.3 1.9 9.9
v -4.3 2.1 9.9
v -4.3 2.3 9.9
v -4.3 2.6 9.9
v -4.3 2.7 9.9
v -4.3 3 9.9
v -4.3 3.1 9.9
v -4.2 1.4 9.9
v -4.2 1.5 9.9
v -4.2 1.8 9.9
v -4.7 0.5 9.6
v -4.7 0.6 9.6
v -4.6 0.5 9.6
v -4.6 0.6 9.6
v -4.7 0.5 9.5
v -4.7 0.6 9.5
v -4.6 0.5 9.5
v -4.6 0.6 9.5
v -4.6 0.7 9.5
v -4.6 1 9.5
v -4.6 1.1 9.5
v -4.6 1.4 9.5
v -4.6 1.5 9.5
v -4.6 1.8 9.5
v -4.6 2.2 9.5
v -4.6 2.3 9.5
v -4.6 2.6 9.5
v -4.6 2.7 9.5
v -4.6 2.9 9.5
v -4.6 3 9.5
v -4.6 3.1 9.5
v -4.5 0.6 9.5
v -4.5 1.8 9.5
v -4.5 1.9 9.5
v -4.5 2.2 9.5
v -4.5 2.9 9.5
v -4.5 3 9.5
v -4.3 0.6 9.5
v -4.3 0.7 9.5
v -4.3 1 9.5
v -4.3 1.1 9.5
v -4.3 1.4 9.5
v -4.3 1.8 9.5
v -4.3 1.9 9.5
v -4.3 2.2 9.5
v -4.3 2.3 9.5
v -4.3 2.6 9.5
v -4.3 2.7 9.5
v -4.3 3 9.5
v -4.3 3.1 9.5
v -4.2 1.4 9.5
v -4.2 1.5 9.5
v -4.2 1.8 9.5
v -5 3.9 9.4
v -5 4.1 9.4
v -5 4.2 9.4
v -4.9 3.8 9.4
v -4.9 3.9 9.4
v -4.9 4.1 9.4
v -4.9 4.2 9.4
v -4.8 3.5 9.4
v -4.8 3.7 9.4
v -4.8 3.8 9.4
v -4.7 0.1 9.4
v -4.7 0.5 9.4
v -4.7 3.4 9.4
v -4.7 3.5 9.4
v -4.7 3.7 9.4
v -4.7 3.8 9.4
v -4.6 0.5 9.4
v -4.6 0.6 9.4
v -4.6 3.1 9.4
v -4.6 3.4 9.4
v -4.5 0.5 9.4
v -4.5 0.6 9.4
v -4.3 0.2 9.4
v -4.3 0.6 9.4
v -4.3 3.1 9.4
v -4.3 3.4 9.4
v -4.3 3.5 9.4
v -4.3 3.8 9.4
v -4.3 3.9 9.4
v -4.3 4.2 9.4
v -4.2 0.1 9.4
v -4.2 0.2 9.4
v -4.7 0.1 10
v -4.2 0.1 10
v -4.7 0.1 9.4
v -4.2 0.1 9.4
v -4.3 1.4 9.9
v -4.2 1.4 9.9
v -4.3 1.4 9.8
v -4.2 1.4 9.8
v -4.3 1.4 9.6
v -4.2 1.4 9.6
v -4.3 1.4 9.5
v -4.2 1.4 9.5
v -4.6 2.2 9.9
v -4.5 2.2 9.9
v -4.5 2.2 9.7
v -4.6 2.2 9.5
v -4.5 2.2 9.5
v -4.6 3.1 10
v -4.3 3.1 10
v -4.6 3.1 9.9
v -4.3 3.1 9.9
v -4.6 3.1 9.5
v -4.3 3.1 9.5
v -4.6 3.1 9.4
v -4.3 3.1 9.4
v -4.7 3.4 10
v -4.6 3.4 10
v -4.7 3.4 9.4
v -4.6 3.4 9.4
v -4.8 3.5 10
v -4.7 3.5 10
v -4.8 3.5 9.4
v -4.7 3.5 9.4
v -4.9 3.8 10
v -4.8 3.8 10
v -4.8 3.8 9.6
v -4.9 3.8 9.4
v -4.8 3.8 9.4
v -5 3.9 10
v -4.9 3.9 10
v -5 3.9 9.8
v -4.9 3.9 9.8
v -5 3.9 9.7
v -4.9 3.9 9.7
v -5 3.9 9.4
v -4.9 3.9 9.4
v -4.3 0.2 10
v -4.2 0.2 10
v -4.3 0.2 9.4
v -4.2 0.2 9.4
v -4.7 0.5 10
v -4.6 0.5 10
v -4.4 0.5 10
v -4.6 0.5 9.9
v -4.5 0.5 9.9
v -4.4 0.5 9.9
v -4.7 0.5 9.8
v -4.6 0.5 9.8
v -4.7 0.5 9.6
v -4.6 0.5 9.6
v -4.7 0.5 9.5
v -4.6 0.5 9.5
v -4.7 0.5 9.4
v -4.6 0.5 9.4
v -4.4 0.6 10
v -4.3 0.6 10
v -4.4 0.6 9.9
v -4.3 0.6 9.9
v -4.7 0.6 9.6
v -4.6 0.6 9.6
v -4.7 0.6 9.5
v -4.6 0.6 9.5
v -4.5 0.6 9.5
v -4.3 0.6 9.5
v -4.6 0.6 9.4
v -4.5 0.6 9.4
v -4.3 0.6 9.4
v -4.6 1.8 9.9
v -4.5 1.8 9.9
v -4.3 1.8 9.9
v -4.2 1.8 9.9
v -4.6 1.8 9.7
v -4.5 1.8 9.7
v -4.6 1.8 9.5
v -4.5 1.8 9.5
v -4.3 1.8 9.5
v -4.2 1.8 9.5
v -5 4.2 10
v -4.7 4.2 10
v -4.3 4.2 10
v -4.9 4.2 9.9
v -4.7 4.2 9.9
v -5 4.2 9.8
v -4.9 4.2 9.8
v -5 4.2 9.5
v -4.9 4.2 9.5
v -5 4.2 9.4
v -4.9 4.2 9.4
v -4.3 4.2 9.4

# faces
f 5/1/1 2/1/1 1/1/1
f 6/3/1 3/3/1 2/3/1
f 6/1/1 2/1/1 5/1/1
f 7/1/1 4/1/1 3/1/1
f 7/3/1 3/3/1 6/3/1
f 8/1/1 5/1/1 1/1/1
f 9/3/1 6/3/1 5/3/1
f 9/1/1 5/1/1 8/1/1
f 10/2/1 7/2/1 6/2/1
f 10/3/1 6/3/1 9/3/1
f 11/1/1 4/1/1 7/1/1
f 11/2/1 7/2/1 10/2/1
f 12/1/1 4/1/1 11/1/1
f 13/1/1 4/1/1 12/1/1
f 14/2/1 10/2/1 9/2/1
f 14/2/1 9/2/1 8/2/1
f 15/1/1 11/1/1 10/1/1
f 15/2/1 10/2/1 14/2/1
f 15/1/1 12/1/1 11/1/1
f 16/2/1 13/2/1 12/2/1
f 16/1/1 12/1/1 15/1/1
f 17/2/1 13/2/1 16/2/1
f 20/3/1 19/3/1 18/3/1
f 21/3/1 19/3/1 20/3/1
f 22/3/1 19/3/1 21/3/1
f 23/3/1 19/3/1 22/3/1
f 26/1/1 25/1/1 24/1/1
f 27/1/1 25/1/1 26/1/1
f 28/1/1 26/1/1 24/1/1
f 29/2/1 27/2/1 26/2/1
f 29/1/1 26/1/1 28/1/1
f 30/2/1 27/2/1 29/2/1
f 33/1/1 32/1/1 31/1/1
f 34/1/1 32/1/1 33/1/1
f 35/2/1 34/2/1 33/2/1
f 36/1/1 32/1/1 34/1/1
f 36/2/1 34/2/1 35/2/1
f 37/1/1 32/1/1 36/1/1
f 38/1/1 32/1/1 37/1/1
f 39/1/1 32/1/1 38/1/1
f 40/2/1 38/2/1 37/2/1
f 41/2/1 38/2/1 40/2/1
f 44/3/1 43/3/1 42/3/1
f 45/3/1 43/3/1 44/3/1
f 51/2/1 47/2/1 46/2/1
f 52/1/1 48/1/1 47/1/1
f 52/2/1 47/2/1 51/2/1
f 53/1/1 48/1/1 52/1/1
f 54/2/1 50/2/1 49/2/1
f 55/2/1 50/2/1 54/2/1
f 56/3/1 53/3/1 52/3/1
f 56/3/1 52/3/1 51/3/1
f 56/3/1 54/3/1 53/3/1
f 57/3/1 54/3/1 56/3/1
f 58/1/1 57/1/1 56/1/1
f 59/1/1 57/1/1 58/1/1
f 60/2/1 59/2/1 58/2/1
f 60/1/1 57/1/1 59/1/1
f 61/1/1 57/1/1 60/1/1
f 62/2/1 60/2/1 58/2/1
f 62/2/1 61/2/1 60/2/1
f 63/1/1 57/1/1 61/1/1
f 63/2/1 61/2/1 62/2/1
f 64/1/1 57/1/1 63/1/1
f 65/3/1 63/3/1 62/3/1
f 65/3/1 64/3/1 63/3/1
f 66/3/1 64/3/1 65/3/1
f 67/1/1 66/1/1 65/1/1
f 68/1/1 66/1/1 67/1/1
f 69/2/1 68/2/1 67/2/1
f 70/1/1 66/1/1 68/1/1
f 70/2/1 68/2/1 69/2/1
f 71/1/1 66/1/1 70/1/1
f 72/3/1 70/3/1 69/3/1
f 72/3/1 71/3/1 70/3/1
f 73/3/1 71/3/1 72/3/1
f 74/1/1 73/1/1 72/1/1
f 75/1/1 73/1/1 74/1/1
f 76/2/1 75/2/1 74/2/1
f 77/1/1 73/1/1 75/1/1
f 77/2/1 75/2/1 76/2/1
f 78/1/1 73/1/1 77/1/1
f 81/3/1 80/3/1 79/3/1
f 82/3/1 80/3/1 81/3/1
f 83/1/1 82/1/1 81/1/1
f 84/1/1 82/1/1 83/1/1
f 85/1/1 83/1/1 81/1/1
f 86/2/1 84/2/1 83/2/1
f 86/1/1 83/1/1 85/1/1
f 87/1/1 82/1/1 84/1/1
f 87/2/1 84/2/1 86/2/1
f 88/2/1 86/2/1 85/2/1
f 89/1/1 87/1/1 86/1/1
f 89/2/1 86/2/1 88/2/1
f 90/1/1 82/1/1 87/1/1
f 90/1/1 87/1/1 89/1/1
f 91/3/1 89/3/1 88/3/1
f 91/3/1 90/3/1 89/3/1
f 92/3/1 90/3/1 91/3/1
f 93/1/1 92/1/1 91/1/1
f 94/1/1 92/1/1 93/1/1
f 95/1/1 93/1/1 91/1/1
f 96/2/1 94/2/1 93/2/1
f 96/1/1 93/1/1 95/1/1
f 97/2/1 94/2/1 96/2/1
f 99/3/1 96/3/1 95/3/1
f 99/3/1 97/3/1 96/3/1
f 100/3/1 97/3/1 99/3/1
f 102/1/1 100/1/1 99/1/1
f 102/1/1 101/1/1 100/1/1
f 102/1/1 99/1/1 98/1/1
f 103/1/1 101/1/1 102/1/1
f 107/3/1 105/3/1 104/3/1
f 107/3/1 106/3/1 105/3/1
f 108/3/1 106/3/1 107/3/1
f 109/1/1 108/1/1 107/1/1
f 110/1/1 108/1/1 109/1/1
f 111/3/1 110/3/1 109/3/1
f 112/1/1 108/1/1 110/1/1
f 112/3/1 110/3/1 111/3/1
f 113/1/1 108/1/1 112/1/1
f 116/1/1 115/1/1 114/1/1
f 117/1/1 115/1/1 116/1/1
f 118/1/2 119/1/2 120/1/2
f 120/1/2 119/1/2 121/1/2
f 121/1/2 119/1/2 122/1/2
f 122/1/2 119/1/2 123/1/2
f 123/1/2 119/1/2 124/1/2
f 124/1/2 119/1/2 125/1/2
f 121/3/2 122/3/2 126/3/2
f 122/1/2 123/1/2 127/1/2
f 126/3/2 122/3/2 127/3/2
f 123/3/2 124/3/2 128/3/2
f 127/1/2 123/1/2 128/1/2
f 128/3/2 124/3/2 129/3/2
f 126/1/2 127/1/2 130/1/2
f 127/1/2 128/1/2 130/1/2
f 128/1/2 129/1/2 130/1/2
f 130/1/2 129/1/2 131/1/2
f 131/1/2 129/1/2 132/1/2
f 132/1/2 129/1/2 133/1/2
f 130/3/2 131/3/2 134/3/2
f 131/1/2 132/1/2 135/1/2
f 134/3/2 131/3/2 135/3/2
f 132/3/2 133/3/2 136/3/2
f 135/1/2 132/1/2 136/1/2
f 136/3/2 133/3/2 137/3/2
f 134/1/2 135/1/2 138/1/2
f 135/1/2 136/1/2 138/1/2
f 136/1/2 137/1/2 138/1/2
f 138/1/2 137/1/2 139/1/2
f 139/1/2 137/1/2 140/1/2
f 140/1/2 137/1/2 141/1/2
f 142/3/2 143/3/2 144/3/2
f 144/3/2 143/3/2 145/3/2
f 144/1/2 145/1/2 146/1/2
f 146/1/2 145/1/2 147/1/2
f 147/1/2 145/1/2 148/1/2
f 148/1/2 145/1/2 149/1/2
f 146/3/2 147/3/2 150/3/2
f 147/1/2 148/1/2 151/1/2
f 150/3/2 147/3/2 151/3/2
f 148/3/2 149/3/2 152/3/2
f 151/1/2 148/1/2 152/1/2
f 152/3/2 149/3/2 153/3/2
f 150/1/2 151/1/2 154/1/2
f 151/1/2 152/1/2 154/1/2
f 152/1/2 153/1/2 154/1/2
f 154/1/2 153/1/2 155/1/2
f 155/1/2 153/1/2 156/1/2
f 156/1/2 153/1/2 157/1/2
f 154/3/2 155/3/2 158/3/2
f 155/1/2 156/1/2 159/1/2
f 158/3/2 155/3/2 159/3/2
f 156/3/2 157/3/2 160/3/2
f 159/1/2 156/1/2 160/1/2
f 160/3/2 157/3/2 161/3/2
f 158/1/2 159/1/2 162/1/2
f 159/1/2 160/1/2 162/1/2
f 160/1/2 161/1/2 162/1/2
f 162/1/2 161/1/2 163/1/2
f 163/1/2 161/1/2 164/1/2
f 164/1/2 161/1/2 165/1/2
f 162/3/2 163/3/2 167/3/2
f 163/1/2 164/1/2 168/1/2
f 167/3/2 163/3/2 168/3/2
f 164/3/2 165/3/2 169/3/2
f 168/1/2 164/1/2 169/1/2
f 169/3/2 165/3/2 170/3/2
f 169/1/2 170/1/2 172/1/2
f 170/1/2 171/1/2 172/1/2
f 168/1/2 169/1/2 172/1/2
f 167/1/2 168/1/2 172/1/2
f 166/1/2 167/1/2 172/1/2
f 172/1/2 171/1/2 173/1/2
f 173/1/2 171/1/2 174/1/2
f 174/1/2 171/1/2 175/1/2
f 172/3/2 173/3/2 176/3/2
f 173/1/2 174/1/2 177/1/2
f 176/3/2 173/3/2 177/3/2
f 174/3/2 175/3/2 178/3/2
f 177/1/2 174/1/2 178/1/2
f 178/3/2 175/3/2 179/3/2
f 176/1/2 177/1/2 180/1/2
f 177/1/2 178/1/2 180/1/2
f 178/1/2 179/1/2 180/1/2
f 180/1/2 179/1/2 181/1/2
f 181/1/2 179/1/2 182/1/2
f 182/1/2 179/1/2 183/1/2
f 180/3/2 181/3/2 184/3/2
f 181/1/2 182/1/2 185/1/2
f 184/3/2 181/3/2 185/3/2
f 182/3/2 183/3/2 186/3/2
f 185/1/2 182/1/2 186/1/2
f 186/3/2 183/3/2 187/3/2
f 184/1/2 185/1/2 188/1/2
f 185/1/2 186/1/2 188/1/2
f 186/1/2 187/1/2 188/1/2
f 188/1/2 187/1/2 189/1/2
f 190/1/2 191/1/2 192/1/2
f 192/1/2 191/1/2 193/1/2
f 194/3/2 195/3/2 198/3/2
f 195/1/2 196/1/2 199/1/2
f 198/3/2 195/3/2 199/3/2
f 196/3/2 197/3/2 200/3/2
f 199/1/2 196/1/2 200/1/2
f 200/3/2 197/3/2 201/3/2
f 198/1/2 199/1/2 202/1/2
f 199/1/2 200/1/2 202/1/2
f 200/1/2 201/1/2 202/1/2
f 202/1/2 201/1/2 203/1/2
f 208/1/3 205/1/3 204/1/3
f 210/3/3 208/3/3 207/3/3
f 215/1/3 210/1/3 209/1/3
f 216/2/3 206/2/3 205/2/3
f 216/1/3 205/1/3 208/1/3
f 217/2/3 206/2/3 216/2/3
f 218/2/3 213/2/3 212/2/3
f 218/1/3 212/1/3 211/1/3
f 219/2/3 213/2/3 218/2/3
f 221/3/3 215/3/3 214/3/3
f 222/1/3 219/1/3 218/1/3
f 224/1/3 218/1/3 211/1/3
f 224/1/3 223/1/3 222/1/3
f 224/1/3 222/1/3 218/1/3
f 225/1/3 223/1/3 224/1/3
f 226/1/3 221/1/3 220/1/3
f 227/3/3 215/3/3 221/3/3
f 227/1/3 221/1/3 226/1/3
f 228/1/3 210/1/3 215/1/3
f 228/3/3 215/3/3 227/3/3
f 229/3/3 208/3/3 210/3/3
f 229/1/3 210/1/3 228/1/3
f 230/1/3 217/1/3 216/1/3
f 230/3/3 208/3/3 229/3/3
f 230/1/3 216/1/3 208/1/3
f 231/1/3 217/1/3 230/1/3
f 232/1/3 224/1/3 211/1/3
f 233/1/3 224/1/3 232/1/3
f 252/2/3 235/2/3 234/2/3
f 253/3/3 236/3/3 235/3/3
f 253/2/3 235/2/3 252/2/3
f 254/1/3 237/1/3 236/1/3
f 254/2/3 238/2/3 237/2/3
f 255/2/3 238/2/3 254/2/3
f 256/1/3 240/1/3 239/1/3
f 256/2/3 241/2/3 240/2/3
f 257/3/3 242/3/3 241/3/3
f 257/2/3 241/2/3 256/2/3
f 258/1/3 243/1/3 242/1/3
f 258/2/3 244/2/3 243/2/3
f 259/2/3 244/2/3 258/2/3
f 262/3/3 246/3/3 245/3/3
f 263/1/3 247/1/3 246/1/3
f 263/2/3 248/2/3 247/2/3
f 264/3/3 249/3/3 248/3/3
f 264/2/3 248/2/3 263/2/3
f 265/1/3 253/1/3 252/1/3
f 266/3/3 236/3/3 253/3/3
f 266/1/3 253/1/3 265/1/3
f 267/2/3 238/2/3 255/2/3
f 267/1/3 255/1/3 254/1/3
f 268/3/3 239/3/3 238/3/3
f 268/2/3 238/2/3 267/2/3
f 269/3/3 236/3/3 266/3/3
f 270/1/3 267/1/3 254/1/3
f 270/3/3 236/3/3 269/3/3
f 270/1/3 268/1/3 267/1/3
f 270/1/3 254/1/3 236/1/3
f 271/3/3 239/3/3 268/3/3
f 271/1/3 268/1/3 270/1/3
f 272/1/3 256/1/3 239/1/3
f 272/3/3 239/3/3 271/3/3
f 272/1/3 257/1/3 256/1/3
f 273/3/3 242/3/3 257/3/3
f 273/1/3 257/1/3 272/1/3
f 274/3/3 260/3/3 259/3/3
f 274/1/3 259/1/3 258/1/3
f 275/1/3 261/1/3 260/1/3
f 275/3/3 260/3/3 274/3/3
f 276/3/3 262/3/3 261/3/3
f 276/1/3 261/1/3 275/1/3
f 277/1/3 264/1/3 263/1/3
f 277/3/3 262/3/3 276/3/3
f 277/3/3 246/3/3 262/3/3
f 277/1/3 263/1/3 246/1/3
f 278/3/3 249/3/3 264/3/3
f 278/1/3 264/1/3 277/1/3
f 279/1/3 250/1/3 249/1/3
f 279/3/3 249/3/3 278/3/3
f 280/3/3 251/3/3 250/3/3
f 280/1/3 250/1/3 279/1/3
f 281/3/3 251/3/3 280/3/3
f 282/3/3 242/3/3 273/3/3
f 283/1/3 258/1/3 242/1/3
f 283/3/3 242/3/3 282/3/3
f 283/1/3 274/1/3 258/1/3
f 284/1/3 274/1/3 283/1/3
f 287/2/3 286/2/3 285/2/3
f 288/2/3 286/2/3 287/2/3
f 289/2/4 290/2/4 291/2/4
f 291/2/4 290/2/4 292/2/4
f 292/3/4 293/3/4 306/3/4
f 297/1/4 298/1/4 307/1/4
f 299/3/4 300/3/4 309/3/4
f 303/2/4 304/2/4 310/2/4
f 302/1/4 303/1/4 310/1/4
f 304/3/4 305/3/4 311/3/4
f 310/2/4 304/2/4 311/2/4
f 306/3/4 293/3/4 312/3/4
f 293/1/4 294/1/4 313/1/4
f 312/3/4 293/3/4 313/3/4
f 294/3/4 295/3/4 314/3/4
f 313/1/4 294/1/4 314/1/4
f 295/1/4 296/1/4 315/1/4
f 314/3/4 295/3/4 315/3/4
f 296/3/4 297/3/4 316/3/4
f 315/1/4 296/1/4 316/1/4
f 307/3/4 308/3/4 317/3/4
f 297/1/4 307/1/4 317/1/4
f 308/1/4 309/1/4 318/1/4
f 317/3/4 308/3/4 318/3/4
f 309/3/4 300/3/4 319/3/4
f 318/1/4 309/1/4 319/1/4
f 300/1/4 301/1/4 320/1/4
f 319/3/4 300/3/4 320/3/4
f 301/3/4 302/3/4 321/3/4
f 320/1/4 301/1/4 321/1/4
f 302/1/4 310/1/4 322/1/4
f 321/3/4 302/3/4 322/3/4
f 310/1/4 311/1/4 322/1/4
f 311/3/4 305/3/4 323/3/4
f 322/1/4 311/1/4 323/1/4
f 323/3/4 305/3/4 324/3/4
f 316/3/4 297/3/4 325/3/4
f 297/1/4 317/1/4 326/1/4
f 325/3/4 297/3/4 326/3/4
f 326/1/4 317/1/4 327/1/4
f 328/1/4 329/1/4 332/1/4
f 329/2/4 330/2/4 333/2/4
f 332/1/4 329/1/4 333/1/4
f 333/2/4 330/2/4 334/2/4
f 331/3/4 332/3/4 337/3/4
f 335/1/4 336/1/4 341/1/4
f 336/2/4 337/2/4 342/2/4
f 341/1/4 336/1/4 342/1/4
f 337/3/4 332/3/4 343/3/4
f 342/2/4 337/2/4 343/2/4
f 338/1/4 339/1/4 344/1/4
f 340/3/4 341/3/4 347/3/4
f 344/2/4 345/2/4 348/2/4
f 338/1/4 344/1/4 348/1/4
f 348/2/4 345/2/4 349/2/4
f 338/1/4 348/1/4 350/1/4
f 348/1/4 349/1/4 350/1/4
f 350/1/4 349/1/4 351/1/4
f 346/1/4 347/1/4 352/1/4
f 347/3/4 341/3/4 353/3/4
f 352/1/4 347/1/4 353/1/4
f 341/1/4 342/1/4 354/1/4
f 353/3/4 341/3/4 354/3/4
f 342/1/4 343/1/4 354/1/4
f 343/3/4 332/3/4 355/3/4
f 354/1/4 343/1/4 355/1/4
f 332/1/4 333/1/4 356/1/4
f 355/3/4 332/3/4 356/3/4
f 333/1/4 334/1/4 356/1/4
f 356/1/4 334/1/4 357/1/4
f 338/1/4 350/1/4 358/1/4
f 358/1/4 350/1/4 359/1/4
f 362/1/5 361/1/5 360/1/5
f 363/1/5 361/1/5 362/1/5
f 366/3/5 365/3/5 364/3/5
f 367/3/5 365/3/5 366/3/5
f 368/1/5 367/1/5 366/1/5
f 369/1/5 367/1/5 368/1/5
f 370/3/5 369/3/5 368/3/5
f 371/3/5 369/3/5 370/3/5
f 374/3/5 373/3/5 372/3/5
f 375/3/5 374/3/5 372/3/5
f 376/3/5 374/3/5 375/3/5
f 379/1/5 378/1/5 377/1/5
f 380/1/5 378/1/5 379/1/5
f 383/1/5 382/1/5 381/1/5
f 384/1/5 382/1/5 383/1/5
f 387/3/5 386/3/5 385/3/5
f 388/3/5 386/3/5 387/3/5
f 391/1/5 390/1/5 389/1/5
f 392/1/5 390/1/5 391/1/5
f 395/3/5 394/3/5 393/3/5
f 396/3/5 395/3/5 393/3/5
f 397/3/5 395/3/5 396/3/5
f 400/1/5 399/1/5 398/1/5
f 401/1/5 399/1/5 400/1/5
f 402/3/5 401/3/5 400/3/5
f 403/3/5 401/3/5 402/3/5
f 404/1/5 403/1/5 402/1/5
f 405/1/5 403/1/5 404/1/5
f 406/1/6 407/1/6 408/1/6
f 408/1/6 407/1/6 409/1/6
f 410/2/6 411/2/6 413/2/6
f 411/1/6 412/1/6 413/1/6
f 413/1/6 412/1/6 414/1/6
f 414/1/6 412/1/6 415/1/6
f 410/2/6 413/2/6 416/2/6
f 416/2/6 413/2/6 417/2/6
f 416/1/6 417/1/6 418/1/6
f 418/1/6 417/1/6 419/1/6
f 420/1/6 421/1/6 422/1/6
f 422/1/6 421/1/6 423/1/6
f 424/1/6 425/1/6 426/1/6
f 426/1/6 425/1/6 427/1/6
f 428/2/6 429/2/6 430/2/6
f 430/2/6 429/2/6 431/2/6
f 431/2/6 432/2/6 434/2/6
f 432/1/6 433/1/6 435/1/6
f 434/2/6 432/2/6 435/2/6
f 435/1/6 433/1/6 436/1/6
f 437/2/6 438/2/6 441/2/6
f 441/2/6 438/2/6 442/2/6
f 441/1/6 442/1/6 443/1/6
f 443/1/6 442/1/6 444/1/6
f 439/1/6 440/1/6 445/1/6
f 445/1/6 440/1/6 446/1/6
f 447/2/6 448/2/6 450/2/6
f 448/1/6 449/1/6 451/1/6
f 450/2/6 448/2/6 451/2/6
f 447/2/6 450/2/6 452/2/6
f 450/1/6 451/1/6 453/1/6
f 452/2/6 450/2/6 453/2/6
f 452/1/6 453/1/6 454/1/6
f 453/1/6 451/1/6 455/1/6
f 454/1/6 453/1/6 455/1/6
f 454/2/6 455/2/6 456/2/6
f 455/1/6 451/1/6 457/1/6
f 456/2/6 455/2/6 457/2/6
f 451/1/6 449/1/6 458/1/6
f 457/1/6 451/1/6 458/1/6
