# MagicaVoxel @ Ephtracy

# group
o torso_walk

# material
mtllib woman-7-torso_walk.mtl
usemtl palette

# normals
vn -1 0 0
vn 1 0 0
vn 0 0 1
vn 0 0 -1
vn 0 -1 0
vn 0 1 0

# texcoords
vt 0.970703 0.5
vt 0.974609 0.5
vt 0.978516 0.5
vt 0.982422 0.5

# verts
v -0.2 0 0.1
v -0.2 0 1.49012e-08
v -0.2 0.1 0.1
v -0.2 0.1 1.49012e-08
v -0.2 0.9 0.1
v -0.2 0.9 -0.2
v -0.2 1.1 0.1
v -0.2 1.1 -0.2
v -0.2 1.3 0.1
v -0.2 1.3 -0.2
v -0.2 1.5 0.1
v -0.2 1.5 -0.2
v -0.2 1.6 0.1
v -0.2 1.6 -0.2
v -0.1 0.1 0.1
v -0.1 0.1 1.49012e-08
v -0.1 0.4 -0.1
v -0.1 0.4 -0.2
v -0.1 0.5 -0.1
v -0.1 0.5 -0.2
v -0.1 0.6 1.49012e-08
v -0.1 0.6 -0.2
v -0.1 0.7 0.1
v -0.1 0.7 -0.2
v -0.1 0.9 0.1
v -0.1 0.9 -0.2
v -0.1 1.1 0.1
v -0.1 1.1 -0.2
v -0.1 1.2 0.1
v -0.1 1.2 1.49012e-08
v -0.1 1.2 -0.1
v -0.1 1.2 -0.2
v -0.1 1.3 1.49012e-08
v -0.1 1.3 -0.1
v 2.98023e-08 0.1 -0.1
v 2.98023e-08 0.1 -0.2
v 2.98023e-08 0.2 -0.1
v 2.98023e-08 0.2 -0.2
v 2.98023e-08 0.3 -0.1
v 2.98023e-08 0.3 -0.2
v 2.98023e-08 0.4 -0.1
v 2.98023e-08 0.4 -0.2
v 2.98023e-08 0.5 -0.1
v 2.98023e-08 0.5 -0.2
v 2.98023e-08 0.6 -0.1
v 2.98023e-08 0.6 -0.2
v 0.1 0.2 -0.1
v 0.1 0.2 -0.2
v 0.1 0.3 -0.1
v 0.1 0.3 -0.2
v 0.1 1.2 0.1
v 0.1 1.2 1.49012e-08
v 0.1 1.2 -0.1
v 0.1 1.2 -0.2
v 0.1 1.3 0.1
v 0.1 1.3 1.49012e-08
v 0.1 1.3 -0.1
v 0.1 1.3 -0.2
v 2.98023e-08 0 0.1
v 2.98023e-08 0 1.49012e-08
v 2.98023e-08 0.1 0.1
v 2.98023e-08 0.1 1.49012e-08
v 2.98023e-08 0.4 -0.1
v 2.98023e-08 0.4 -0.2
v 2.98023e-08 0.5 -0.1
v 2.98023e-08 0.5 -0.2
v 2.98023e-08 0.6 0.1
v 2.98023e-08 0.6 1.49012e-08
v 0.1 0.3 -0.1
v 0.1 0.3 -0.2
v 0.1 0.4 -0.1
v 0.1 0.4 -0.2
v 0.1 0.5 -0.1
v 0.1 0.5 -0.2
v 0.1 0.6 0.1
v 0.1 0.6 -0.1
v 0.1 0.7 0.1
v 0.1 0.7 -0.2
v 0.1 1 0.1
v 0.1 1 -0.2
v 0.1 1.5 0.1
v 0.1 1.5 -0.2
v 0.1 1.6 0.1
v 0.1 1.6 -0.2
v 0.2 0.1 -0.1
v 0.2 0.1 -0.2
v 0.2 0.2 -0.1
v 0.2 0.2 -0.2
v 0.2 0.3 -0.1
v 0.2 0.3 -0.2
v 0.2 1 0.1
v 0.2 1 -0.2
v 0.2 1.5 0.1
v 0.2 1.5 -0.2
v -0.2 0 0.1
v -0.2 0.1 0.1
v -0.2 0.9 0.1
v -0.2 1.1 0.1
v -0.2 1.3 0.1
v -0.2 1.5 0.1
v -0.2 1.6 0.1
v -0.1 0.1 0.1
v -0.1 0.7 0.1
v -0.1 0.9 0.1
v -0.1 1.1 0.1
v -0.1 1.2 0.1
v 2.98023e-08 0 0.1
v 2.98023e-08 0.1 0.1
v 2.98023e-08 0.6 0.1
v 2.98023e-08 1.4 0.1
v 2.98023e-08 1.5 0.1
v 0.1 0.6 0.1
v 0.1 0.7 0.1
v 0.1 1 0.1
v 0.1 1.2 0.1
v 0.1 1.3 0.1
v 0.1 1.4 0.1
v 0.1 1.5 0.1
v 0.1 1.6 0.1
v 0.2 1 0.1
v 0.2 1.5 0.1
v -0.1 1.2 1.49012e-08
v -0.1 1.3 1.49012e-08
v 0.1 1.2 1.49012e-08
v 0.1 1.3 1.49012e-08
v -0.1 0.4 -0.1
v -0.1 0.5 -0.1
v 2.98023e-08 0.1 -0.1
v 2.98023e-08 0.2 -0.1
v 2.98023e-08 0.3 -0.1
v 2.98023e-08 0.4 -0.1
v 2.98023e-08 0.5 -0.1
v 2.98023e-08 0.6 -0.1
v 0.1 0.2 -0.1
v 0.1 0.3 -0.1
v 0.1 0.4 -0.1
v 0.1 0.5 -0.1
v 0.1 0.6 -0.1
v 0.2 0.1 -0.1
v 0.2 0.2 -0.1
v 0.2 0.3 -0.1
v -0.2 0 1.49012e-08
v -0.2 0.1 1.49012e-08
v -0.1 0.1 1.49012e-08
v -0.1 0.6 1.49012e-08
v 2.98023e-08 0 1.49012e-08
v 2.98023e-08 0.1 1.49012e-08
v 2.98023e-08 0.6 1.49012e-08
v -0.1 1.2 -0.1
v -0.1 1.3 -0.1
v 0.1 1.2 -0.1
v 0.1 1.3 -0.1
v -0.2 0.9 -0.2
v -0.2 1.1 -0.2
v -0.2 1.3 -0.2
v -0.2 1.5 -0.2
v -0.2 1.6 -0.2
v -0.1 0.4 -0.2
v -0.1 0.5 -0.2
v -0.1 0.6 -0.2
v -0.1 0.7 -0.2
v -0.1 0.9 -0.2
v -0.1 1.1 -0.2
v -0.1 1.2 -0.2
v 2.98023e-08 0.1 -0.2
v 2.98023e-08 0.2 -0.2
v 2.98023e-08 0.3 -0.2
v 2.98023e-08 0.4 -0.2
v 2.98023e-08 0.5 -0.2
v 2.98023e-08 0.6 -0.2
v 2.98023e-08 1.4 -0.2
v 2.98023e-08 1.5 -0.2
v 0.1 0.2 -0.2
v 0.1 0.3 -0.2
v 0.1 0.4 -0.2
v 0.1 0.5 -0.2
v 0.1 0.7 -0.2
v 0.1 1 -0.2
v 0.1 1.2 -0.2
v 0.1 1.3 -0.2
v 0.1 1.4 -0.2
v 0.1 1.5 -0.2
v 0.1 1.6 -0.2
v 0.2 0.1 -0.2
v 0.2 0.2 -0.2
v 0.2 0.3 -0.2
v 0.2 1 -0.2
v 0.2 1.5 -0.2
v -0.2 0 0.1
v 2.98023e-08 0 0.1
v -0.2 0 1.49012e-08
v 2.98023e-08 0 1.49012e-08
v 2.98023e-08 0.1 -0.1
v 0.2 0.1 -0.1
v 2.98023e-08 0.1 -0.2
v 0.2 0.1 -0.2
v 2.98023e-08 0.3 -0.1
v 0.1 0.3 -0.1
v 2.98023e-08 0.3 -0.2
v 0.1 0.3 -0.2
v -0.1 0.4 -0.1
v 2.98023e-08 0.4 -0.1
v -0.1 0.4 -0.2
v 2.98023e-08 0.4 -0.2
v 2.98023e-08 0.5 -0.1
v 0.1 0.5 -0.1
v 2.98023e-08 0.5 -0.2
v 0.1 0.5 -0.2
v 2.98023e-08 0.6 0.1
v 0.1 0.6 0.1
v -0.1 0.6 1.49012e-08
v 2.98023e-08 0.6 1.49012e-08
v 2.98023e-08 0.6 -0.1
v 0.1 0.6 -0.1
v -0.1 0.6 -0.2
v 2.98023e-08 0.6 -0.2
v -0.2 0.9 0.1
v -0.1 0.9 0.1
v -0.2 0.9 -0.2
v -0.1 0.9 -0.2
v 0.1 1 0.1
v 0.2 1 0.1
v 0.1 1 -0.2
v 0.2 1 -0.2
v -0.2 1.3 0.1
v 0.1 1.3 0.1
v -0.1 1.3 1.49012e-08
v 0.1 1.3 1.49012e-08
v -0.1 1.3 -0.1
v 0.1 1.3 -0.1
v -0.2 1.3 -0.2
v 0.1 1.3 -0.2
v -0.2 0.1 0.1
v -0.1 0.1 0.1
v -0.2 0.1 1.49012e-08
v -0.1 0.1 1.49012e-08
v 2.98023e-08 0.2 -0.1
v 0.1 0.2 -0.1
v 2.98023e-08 0.2 -0.2
v 0.1 0.2 -0.2
v 0.1 0.3 -0.1
v 0.2 0.3 -0.1
v 0.1 0.3 -0.2
v 0.2 0.3 -0.2
v 2.98023e-08 0.4 -0.1
v 0.1 0.4 -0.1
v 2.98023e-08 0.4 -0.2
v 0.1 0.4 -0.2
v -0.1 0.5 -0.1
v 2.98023e-08 0.5 -0.1
v -0.1 0.5 -0.2
v 2.98023e-08 0.5 -0.2
v -0.2 1.1 0.1
v -0.1 1.1 0.1
v -0.2 1.1 -0.2
v -0.1 1.1 -0.2
v -0.1 1.2 0.1
v 0.1 1.2 0.1
v -0.1 1.2 1.49012e-08
v 0.1 1.2 1.49012e-08
v -0.1 1.2 -0.1
v 0.1 1.2 -0.1
v -0.1 1.2 -0.2
v 0.1 1.2 -0.2
v 0.1 1.5 0.1
v 0.2 1.5 0.1
v 0.1 1.5 -0.2
v 0.2 1.5 -0.2
v -0.2 1.6 0.1
v 0.1 1.6 0.1
v -0.2 1.6 -0.2
v 0.1 1.6 -0.2

# faces
f 3/1/1 2/1/1 1/1/1
f 4/1/1 2/1/1 3/1/1
f 7/3/1 6/3/1 5/3/1
f 8/3/1 6/3/1 7/3/1
f 11/1/1 10/1/1 9/1/1
f 12/1/1 10/1/1 11/1/1
f 13/4/1 12/4/1 11/4/1
f 14/4/1 12/4/1 13/4/1
f 19/2/1 18/2/1 17/2/1
f 20/2/1 18/2/1 19/2/1
f 21/2/1 16/2/1 15/2/1
f 23/2/1 21/2/1 15/2/1
f 23/2/1 22/2/1 21/2/1
f 24/2/1 22/2/1 23/2/1
f 25/3/1 24/3/1 23/3/1
f 26/3/1 24/3/1 25/3/1
f 29/3/1 28/3/1 27/3/1
f 30/3/1 28/3/1 29/3/1
f 31/3/1 28/3/1 30/3/1
f 32/3/1 28/3/1 31/3/1
f 33/1/1 31/1/1 30/1/1
f 34/1/1 31/1/1 33/1/1
f 37/1/1 36/1/1 35/1/1
f 38/1/1 36/1/1 37/1/1
f 41/2/1 40/2/1 39/2/1
f 42/2/1 40/2/1 41/2/1
f 45/2/1 44/2/1 43/2/1
f 46/2/1 44/2/1 45/2/1
f 49/2/1 48/2/1 47/2/1
f 50/2/1 48/2/1 49/2/1
f 55/4/1 52/4/1 51/4/1
f 56/4/1 52/4/1 55/4/1
f 57/4/1 54/4/1 53/4/1
f 58/4/1 54/4/1 57/4/1
f 59/1/2 60/1/2 61/1/2
f 61/1/2 60/1/2 62/1/2
f 63/2/2 64/2/2 65/2/2
f 65/2/2 64/2/2 66/2/2
f 61/2/2 62/2/2 67/2/2
f 67/2/2 62/2/2 68/2/2
f 69/2/2 70/2/2 71/2/2
f 71/2/2 70/2/2 72/2/2
f 73/2/2 74/2/2 76/2/2
f 75/2/2 76/2/2 77/2/2
f 76/2/2 74/2/2 78/2/2
f 77/2/2 76/2/2 78/2/2
f 77/3/2 78/3/2 79/3/2
f 79/3/2 78/3/2 80/3/2
f 81/4/2 82/4/2 83/4/2
f 83/4/2 82/4/2 84/4/2
f 85/1/2 86/1/2 87/1/2
f 87/1/2 86/1/2 88/1/2
f 87/2/2 88/2/2 89/2/2
f 89/2/2 88/2/2 90/2/2
f 91/4/2 92/4/2 93/4/2
f 93/4/2 92/4/2 94/4/2
f 102/1/3 96/1/3 95/1/3
f 104/3/3 98/3/3 97/3/3
f 105/3/3 98/3/3 104/3/3
f 107/1/3 102/1/3 95/1/3
f 108/2/3 103/2/3 102/2/3
f 108/1/3 102/1/3 107/1/3
f 109/2/3 103/2/3 108/2/3
f 110/1/3 100/1/3 99/1/3
f 111/4/3 101/4/3 100/4/3
f 111/1/3 100/1/3 110/1/3
f 112/2/3 103/2/3 109/2/3
f 113/3/3 106/3/3 105/3/3
f 113/2/3 103/2/3 112/2/3
f 113/3/3 104/3/3 103/3/3
f 113/3/3 105/3/3 104/3/3
f 114/3/3 106/3/3 113/3/3
f 115/3/3 106/3/3 114/3/3
f 116/1/3 110/1/3 99/1/3
f 117/4/3 111/4/3 110/4/3
f 117/1/3 110/1/3 116/1/3
f 118/4/3 101/4/3 111/4/3
f 118/4/3 111/4/3 117/4/3
f 119/4/3 101/4/3 118/4/3
f 120/4/3 115/4/3 114/4/3
f 120/4/3 117/4/3 116/4/3
f 120/4/3 118/4/3 117/4/3
f 120/4/3 116/4/3 115/4/3
f 121/4/3 118/4/3 120/4/3
f 124/1/3 123/1/3 122/1/3
f 125/1/3 123/1/3 124/1/3
f 131/2/3 127/2/3 126/2/3
f 132/2/3 127/2/3 131/2/3
f 134/1/3 129/1/3 128/1/3
f 135/2/3 131/2/3 130/2/3
f 136/2/3 131/2/3 135/2/3
f 137/2/3 133/2/3 132/2/3
f 138/2/3 133/2/3 137/2/3
f 139/1/3 134/1/3 128/1/3
f 140/2/3 135/2/3 134/2/3
f 140/1/3 134/1/3 139/1/3
f 141/2/3 135/2/3 140/2/3
f 142/1/4 143/1/4 144/1/4
f 142/1/4 144/1/4 146/1/4
f 144/2/4 145/2/4 147/2/4
f 146/1/4 144/1/4 147/1/4
f 147/2/4 145/2/4 148/2/4
f 149/1/4 150/1/4 151/1/4
f 151/1/4 150/1/4 152/1/4
f 153/3/4 154/3/4 162/3/4
f 162/3/4 154/3/4 163/3/4
f 158/2/4 159/2/4 168/2/4
f 168/2/4 159/2/4 169/2/4
f 160/2/4 161/2/4 170/2/4
f 155/1/4 156/1/4 171/1/4
f 156/4/4 157/4/4 172/4/4
f 171/1/4 156/1/4 172/1/4
f 165/1/4 166/1/4 173/1/4
f 167/2/4 168/2/4 174/2/4
f 174/2/4 168/2/4 175/2/4
f 169/2/4 170/2/4 176/2/4
f 161/3/4 162/3/4 177/3/4
f 176/2/4 170/2/4 177/2/4
f 162/3/4 163/3/4 177/3/4
f 163/3/4 164/3/4 177/3/4
f 170/2/4 161/2/4 177/2/4
f 177/3/4 164/3/4 178/3/4
f 178/3/4 164/3/4 179/3/4
f 155/1/4 171/1/4 180/1/4
f 171/4/4 172/4/4 181/4/4
f 180/1/4 171/1/4 181/1/4
f 172/4/4 157/4/4 182/4/4
f 181/4/4 172/4/4 182/4/4
f 182/4/4 157/4/4 183/4/4
f 165/1/4 173/1/4 184/1/4
f 173/2/4 174/2/4 185/2/4
f 184/1/4 173/1/4 185/1/4
f 185/2/4 174/2/4 186/2/4
f 180/4/4 181/4/4 187/4/4
f 178/4/4 179/4/4 187/4/4
f 179/4/4 180/4/4 187/4/4
f 181/4/4 182/4/4 187/4/4
f 187/4/4 182/4/4 188/4/4
f 191/1/5 190/1/5 189/1/5
f 192/1/5 190/1/5 191/1/5
f 195/1/5 194/1/5 193/1/5
f 196/1/5 194/1/5 195/1/5
f 199/2/5 198/2/5 197/2/5
f 200/2/5 198/2/5 199/2/5
f 203/2/5 202/2/5 201/2/5
f 204/2/5 202/2/5 203/2/5
f 207/2/5 206/2/5 205/2/5
f 208/2/5 206/2/5 207/2/5
f 212/2/5 210/2/5 209/2/5
f 213/2/5 210/2/5 212/2/5
f 213/2/5 212/2/5 211/2/5
f 214/2/5 210/2/5 213/2/5
f 215/2/5 213/2/5 211/2/5
f 216/2/5 213/2/5 215/2/5
f 219/3/5 218/3/5 217/3/5
f 220/3/5 218/3/5 219/3/5
f 223/4/5 222/4/5 221/4/5
f 224/4/5 222/4/5 223/4/5
f 227/1/5 226/1/5 225/1/5
f 228/1/5 226/1/5 227/1/5
f 229/1/5 227/1/5 225/1/5
f 231/1/5 229/1/5 225/1/5
f 231/1/5 230/1/5 229/1/5
f 232/1/5 230/1/5 231/1/5
f 233/1/6 234/1/6 235/1/6
f 235/1/6 234/1/6 236/1/6
f 237/1/6 238/1/6 239/1/6
f 239/1/6 238/1/6 240/1/6
f 241/2/6 242/2/6 243/2/6
f 243/2/6 242/2/6 244/2/6
f 245/2/6 246/2/6 247/2/6
f 247/2/6 246/2/6 248/2/6
f 249/2/6 250/2/6 251/2/6
f 251/2/6 250/2/6 252/2/6
f 253/3/6 254/3/6 255/3/6
f 255/3/6 254/3/6 256/3/6
f 257/3/6 258/3/6 259/3/6
f 259/3/6 258/3/6 260/3/6
f 261/3/6 262/3/6 263/3/6
f 263/3/6 262/3/6 264/3/6
f 265/4/6 266/4/6 267/4/6
f 267/4/6 266/4/6 268/4/6
f 269/4/6 270/4/6 271/4/6
f 271/4/6 270/4/6 272/4/6
