# MagicaVoxel @ Ephtracy

# group
o torso_walk

# material
mtllib woman-0-torso_walk.mtl
usemtl palette

# normals
vn -1 0 0
vn 1 0 0
vn 0 0 1
vn 0 0 -1
vn 0 -1 0
vn 0 1 0

# texcoords
vt 0.970703 0.5
vt 0.974609 0.5
vt 0.978516 0.5
vt 0.982422 0.5

# verts
v -0.3 0.1 -0.1
v -0.3 0.1 -0.2
v -0.3 0.2 -0.1
v -0.3 0.2 -0.2
v -0.2 0.2 -0.1
v -0.2 0.2 -0.2
v -0.2 0.5 -0.1
v -0.2 0.5 -0.2
v -0.2 0.9 0.1
v -0.2 0.9 -0.2
v -0.2 1.1 0.1
v -0.2 1.1 -0.2
v -0.2 1.3 0.1
v -0.2 1.3 -0.2
v -0.2 1.5 0.1
v -0.2 1.5 -0.2
v -0.2 1.6 0.1
v -0.2 1.6 -0.2
v -0.1 0.5 -0.1
v -0.1 0.5 -0.2
v -0.1 0.6 0.1
v -0.1 0.6 -0.1
v -0.1 0.7 0.1
v -0.1 0.7 -0.2
v -0.1 0.9 0.1
v -0.1 0.9 -0.2
v -0.1 1.1 0.1
v -0.1 1.1 -0.2
v -0.1 1.2 0.1
v -0.1 1.2 1.49012e-08
v -0.1 1.2 -0.1
v -0.1 1.2 -0.2
v -0.1 1.3 1.49012e-08
v -0.1 1.3 -0.1
v 2.98023e-08 0.5 0.1
v 2.98023e-08 0.5 1.49012e-08
v 2.98023e-08 0.6 0.1
v 2.98023e-08 0.6 1.49012e-08
v 0.1 0 0.1
v 0.1 0 1.49012e-08
v 0.1 0.1 0.1
v 0.1 0.1 1.49012e-08
v 0.1 0.3 0.1
v 0.1 0.3 1.49012e-08
v 0.1 0.5 0.1
v 0.1 0.5 1.49012e-08
v 0.1 1.2 0.1
v 0.1 1.2 1.49012e-08
v 0.1 1.2 -0.1
v 0.1 1.2 -0.2
v 0.1 1.3 0.1
v 0.1 1.3 1.49012e-08
v 0.1 1.3 -0.1
v 0.1 1.3 -0.2
v 0.2 0.1 0.1
v 0.2 0.1 1.49012e-08
v 0.2 0.3 0.1
v 0.2 0.3 1.49012e-08
v -0.1 0.1 -0.1
v -0.1 0.1 -0.2
v -0.1 0.2 -0.1
v -0.1 0.2 -0.2
v -0.1 0.5 -0.1
v -0.1 0.5 -0.2
v 2.98023e-08 0.5 -0.1
v 2.98023e-08 0.5 -0.2
v 2.98023e-08 0.6 -0.1
v 2.98023e-08 0.6 -0.2
v 0.1 0.5 0.1
v 0.1 0.5 1.49012e-08
v 0.1 0.6 1.49012e-08
v 0.1 0.6 -0.2
v 0.1 0.7 0.1
v 0.1 0.7 -0.2
v 0.1 1 0.1
v 0.1 1 -0.2
v 0.1 1.5 0.1
v 0.1 1.5 -0.2
v 0.1 1.6 0.1
v 0.1 1.6 -0.2
v 0.2 0.3 0.1
v 0.2 0.3 1.49012e-08
v 0.2 0.5 0.1
v 0.2 0.5 1.49012e-08
v 0.2 1 0.1
v 0.2 1 -0.2
v 0.2 1.5 0.1
v 0.2 1.5 -0.2
v 0.3 0 0.1
v 0.3 0 1.49012e-08
v 0.3 0.1 0.1
v 0.3 0.1 1.49012e-08
v 0.3 0.3 0.1
v 0.3 0.3 1.49012e-08
v -0.2 0.9 0.1
v -0.2 1.1 0.1
v -0.2 1.3 0.1
v -0.2 1.5 0.1
v -0.2 1.6 0.1
v -0.1 0.6 0.1
v -0.1 0.7 0.1
v -0.1 0.9 0.1
v -0.1 1.1 0.1
v -0.1 1.2 0.1
v 2.98023e-08 0.5 0.1
v 2.98023e-08 0.6 0.1
v 2.98023e-08 1.4 0.1
v 2.98023e-08 1.5 0.1
v 0.1 0 0.1
v 0.1 0.1 0.1
v 0.1 0.3 0.1
v 0.1 0.5 0.1
v 0.1 0.7 0.1
v 0.1 1 0.1
v 0.1 1.2 0.1
v 0.1 1.3 0.1
v 0.1 1.4 0.1
v 0.1 1.5 0.1
v 0.1 1.6 0.1
v 0.2 0.1 0.1
v 0.2 0.3 0.1
v 0.2 0.5 0.1
v 0.2 1 0.1
v 0.2 1.5 0.1
v 0.3 0 0.1
v 0.3 0.1 0.1
v 0.3 0.3 0.1
v -0.1 1.2 1.49012e-08
v -0.1 1.3 1.49012e-08
v 0.1 1.2 1.49012e-08
v 0.1 1.3 1.49012e-08
v -0.3 0.1 -0.1
v -0.3 0.2 -0.1
v -0.2 0.2 -0.1
v -0.2 0.5 -0.1
v -0.1 0.1 -0.1
v -0.1 0.2 -0.1
v -0.1 0.5 -0.1
v -0.1 0.6 -0.1
v 2.98023e-08 0.5 -0.1
v 2.98023e-08 0.6 -0.1
v 2.98023e-08 0.5 1.49012e-08
v 2.98023e-08 0.6 1.49012e-08
v 0.1 0 1.49012e-08
v 0.1 0.1 1.49012e-08
v 0.1 0.3 1.49012e-08
v 0.1 0.5 1.49012e-08
v 0.1 0.6 1.49012e-08
v 0.2 0.1 1.49012e-08
v 0.2 0.3 1.49012e-08
v 0.2 0.5 1.49012e-08
v 0.3 0 1.49012e-08
v 0.3 0.1 1.49012e-08
v 0.3 0.3 1.49012e-08
v -0.1 1.2 -0.1
v -0.1 1.3 -0.1
v 0.1 1.2 -0.1
v 0.1 1.3 -0.1
v -0.3 0.1 -0.2
v -0.3 0.2 -0.2
v -0.2 0.2 -0.2
v -0.2 0.5 -0.2
v -0.2 0.9 -0.2
v -0.2 1.1 -0.2
v -0.2 1.3 -0.2
v -0.2 1.5 -0.2
v -0.2 1.6 -0.2
v -0.1 0.1 -0.2
v -0.1 0.2 -0.2
v -0.1 0.5 -0.2
v -0.1 0.7 -0.2
v -0.1 0.9 -0.2
v -0.1 1.1 -0.2
v -0.1 1.2 -0.2
v 2.98023e-08 0.5 -0.2
v 2.98023e-08 0.6 -0.2
v 2.98023e-08 1.4 -0.2
v 2.98023e-08 1.5 -0.2
v 0.1 0.6 -0.2
v 0.1 0.7 -0.2
v 0.1 1 -0.2
v 0.1 1.2 -0.2
v 0.1 1.3 -0.2
v 0.1 1.4 -0.2
v 0.1 1.5 -0.2
v 0.1 1.6 -0.2
v 0.2 1 -0.2
v 0.2 1.5 -0.2
v 0.1 0 0.1
v 0.3 0 0.1
v 0.1 0 1.49012e-08
v 0.3 0 1.49012e-08
v -0.3 0.1 -0.1
v -0.1 0.1 -0.1
v -0.3 0.1 -0.2
v -0.1 0.1 -0.2
v 0.1 0.3 0.1
v 0.2 0.3 0.1
v 0.1 0.3 1.49012e-08
v 0.2 0.3 1.49012e-08
v 2.98023e-08 0.5 0.1
v 0.1 0.5 0.1
v 2.98023e-08 0.5 1.49012e-08
v 0.1 0.5 1.49012e-08
v -0.1 0.5 -0.1
v 2.98023e-08 0.5 -0.1
v -0.1 0.5 -0.2
v 2.98023e-08 0.5 -0.2
v -0.1 0.6 0.1
v 2.98023e-08 0.6 0.1
v 2.98023e-08 0.6 1.49012e-08
v 0.1 0.6 1.49012e-08
v -0.1 0.6 -0.1
v 2.98023e-08 0.6 -0.1
v 2.98023e-08 0.6 -0.2
v 0.1 0.6 -0.2
v -0.2 0.9 0.1
v -0.1 0.9 0.1
v -0.2 0.9 -0.2
v -0.1 0.9 -0.2
v 0.1 1 0.1
v 0.2 1 0.1
v 0.1 1 -0.2
v 0.2 1 -0.2
v -0.2 1.3 0.1
v 0.1 1.3 0.1
v -0.1 1.3 1.49012e-08
v 0.1 1.3 1.49012e-08
v -0.1 1.3 -0.1
v 0.1 1.3 -0.1
v -0.2 1.3 -0.2
v 0.1 1.3 -0.2
v 0.1 0.1 0.1
v 0.2 0.1 0.1
v 0.1 0.1 1.49012e-08
v 0.2 0.1 1.49012e-08
v -0.3 0.2 -0.1
v -0.2 0.2 -0.1
v -0.3 0.2 -0.2
v -0.2 0.2 -0.2
v 0.2 0.3 0.1
v 0.3 0.3 0.1
v 0.2 0.3 1.49012e-08
v 0.3 0.3 1.49012e-08
v 0.1 0.5 0.1
v 0.2 0.5 0.1
v 0.1 0.5 1.49012e-08
v 0.2 0.5 1.49012e-08
v -0.2 0.5 -0.1
v -0.1 0.5 -0.1
v -0.2 0.5 -0.2
v -0.1 0.5 -0.2
v -0.2 1.1 0.1
v -0.1 1.1 0.1
v -0.2 1.1 -0.2
v -0.1 1.1 -0.2
v -0.1 1.2 0.1
v 0.1 1.2 0.1
v -0.1 1.2 1.49012e-08
v 0.1 1.2 1.49012e-08
v -0.1 1.2 -0.1
v 0.1 1.2 -0.1
v -0.1 1.2 -0.2
v 0.1 1.2 -0.2
v 0.1 1.5 0.1
v 0.2 1.5 0.1
v 0.1 1.5 -0.2
v 0.2 1.5 -0.2
v -0.2 1.6 0.1
v 0.1 1.6 0.1
v -0.2 1.6 -0.2
v 0.1 1.6 -0.2

# faces
f 3/1/1 2/1/1 1/1/1
f 4/1/1 2/1/1 3/1/1
f 7/2/1 6/2/1 5/2/1
f 8/2/1 6/2/1 7/2/1
f 11/3/1 10/3/1 9/3/1
f 12/3/1 10/3/1 11/3/1
f 15/1/1 14/1/1 13/1/1
f 16/1/1 14/1/1 15/1/1
f 17/4/1 16/4/1 15/4/1
f 18/4/1 16/4/1 17/4/1
f 22/2/1 20/2/1 19/2/1
f 23/2/1 22/2/1 21/2/1
f 24/2/1 20/2/1 22/2/1
f 24/2/1 22/2/1 23/2/1
f 25/3/1 24/3/1 23/3/1
f 26/3/1 24/3/1 25/3/1
f 29/3/1 28/3/1 27/3/1
f 30/3/1 28/3/1 29/3/1
f 31/3/1 28/3/1 30/3/1
f 32/3/1 28/3/1 31/3/1
f 33/1/1 31/1/1 30/1/1
f 34/1/1 31/1/1 33/1/1
f 37/2/1 36/2/1 35/2/1
f 38/2/1 36/2/1 37/2/1
f 41/1/1 40/1/1 39/1/1
f 42/1/1 40/1/1 41/1/1
f 45/2/1 44/2/1 43/2/1
f 46/2/1 44/2/1 45/2/1
f 51/4/1 48/4/1 47/4/1
f 52/4/1 48/4/1 51/4/1
f 53/4/1 50/4/1 49/4/1
f 54/4/1 50/4/1 53/4/1
f 57/2/1 56/2/1 55/2/1
f 58/2/1 56/2/1 57/2/1
f 59/1/2 60/1/2 61/1/2
f 61/1/2 60/1/2 62/1/2
f 61/2/2 62/2/2 63/2/2
f 63/2/2 62/2/2 64/2/2
f 65/2/2 66/2/2 67/2/2
f 67/2/2 66/2/2 68/2/2
f 69/2/2 70/2/2 71/2/2
f 69/2/2 71/2/2 73/2/2
f 71/2/2 72/2/2 73/2/2
f 73/2/2 72/2/2 74/2/2
f 73/3/2 74/3/2 75/3/2
f 75/3/2 74/3/2 76/3/2
f 77/4/2 78/4/2 79/4/2
f 79/4/2 78/4/2 80/4/2
f 81/2/2 82/2/2 83/2/2
f 83/2/2 82/2/2 84/2/2
f 85/4/2 86/4/2 87/4/2
f 87/4/2 86/4/2 88/4/2
f 89/1/2 90/1/2 91/1/2
f 91/1/2 90/1/2 92/1/2
f 91/2/2 92/2/2 93/2/2
f 93/2/2 92/2/2 94/2/2
f 102/3/3 96/3/3 95/3/3
f 103/3/3 96/3/3 102/3/3
f 106/2/3 101/2/3 100/2/3
f 107/1/3 98/1/3 97/1/3
f 108/4/3 99/4/3 98/4/3
f 108/1/3 98/1/3 107/1/3
f 112/2/3 106/2/3 105/2/3
f 113/3/3 104/3/3 103/3/3
f 113/3/3 102/3/3 101/3/3
f 113/2/3 106/2/3 112/2/3
f 113/3/3 103/3/3 102/3/3
f 113/2/3 101/2/3 106/2/3
f 114/3/3 104/3/3 113/3/3
f 115/3/3 104/3/3 114/3/3
f 116/1/3 107/1/3 97/1/3
f 117/4/3 108/4/3 107/4/3
f 117/1/3 107/1/3 116/1/3
f 118/4/3 99/4/3 108/4/3
f 118/4/3 108/4/3 117/4/3
f 119/4/3 99/4/3 118/4/3
f 120/1/3 110/1/3 109/1/3
f 121/2/3 112/2/3 111/2/3
f 122/2/3 112/2/3 121/2/3
f 123/4/3 115/4/3 114/4/3
f 123/4/3 117/4/3 116/4/3
f 123/4/3 116/4/3 115/4/3
f 123/4/3 118/4/3 117/4/3
f 124/4/3 118/4/3 123/4/3
f 125/1/3 120/1/3 109/1/3
f 126/2/3 121/2/3 120/2/3
f 126/1/3 120/1/3 125/1/3
f 127/2/3 121/2/3 126/2/3
f 130/1/3 129/1/3 128/1/3
f 131/1/3 129/1/3 130/1/3
f 134/1/3 133/1/3 132/1/3
f 136/1/3 134/1/3 132/1/3
f 137/2/3 135/2/3 134/2/3
f 137/1/3 134/1/3 136/1/3
f 138/2/3 135/2/3 137/2/3
f 140/2/3 139/2/3 138/2/3
f 141/2/3 139/2/3 140/2/3
f 142/2/4 143/2/4 147/2/4
f 147/2/4 143/2/4 148/2/4
f 144/1/4 145/1/4 149/1/4
f 146/2/4 147/2/4 150/2/4
f 150/2/4 147/2/4 151/2/4
f 144/1/4 149/1/4 152/1/4
f 149/2/4 150/2/4 153/2/4
f 152/1/4 149/1/4 153/1/4
f 153/2/4 150/2/4 154/2/4
f 155/1/4 156/1/4 157/1/4
f 157/1/4 156/1/4 158/1/4
f 159/1/4 160/1/4 161/1/4
f 159/1/4 161/1/4 168/1/4
f 161/2/4 162/2/4 169/2/4
f 168/1/4 161/1/4 169/1/4
f 169/2/4 162/2/4 170/2/4
f 163/3/4 164/3/4 172/3/4
f 172/3/4 164/3/4 173/3/4
f 170/2/4 171/2/4 175/2/4
f 175/2/4 171/2/4 176/2/4
f 165/1/4 166/1/4 177/1/4
f 166/4/4 167/4/4 178/4/4
f 177/1/4 166/1/4 178/1/4
f 176/2/4 171/2/4 179/2/4
f 173/3/4 174/3/4 180/3/4
f 179/2/4 171/2/4 180/2/4
f 172/3/4 173/3/4 180/3/4
f 171/3/4 172/3/4 180/3/4
f 180/3/4 174/3/4 181/3/4
f 181/3/4 174/3/4 182/3/4
f 165/1/4 177/1/4 183/1/4
f 177/4/4 178/4/4 184/4/4
f 183/1/4 177/1/4 184/1/4
f 178/4/4 167/4/4 185/4/4
f 184/4/4 178/4/4 185/4/4
f 185/4/4 167/4/4 186/4/4
f 181/4/4 182/4/4 187/4/4
f 183/4/4 184/4/4 187/4/4
f 184/4/4 185/4/4 187/4/4
f 182/4/4 183/4/4 187/4/4
f 187/4/4 185/4/4 188/4/4
f 191/1/5 190/1/5 189/1/5
f 192/1/5 190/1/5 191/1/5
f 195/1/5 194/1/5 193/1/5
f 196/1/5 194/1/5 195/1/5
f 199/2/5 198/2/5 197/2/5
f 200/2/5 198/2/5 199/2/5
f 203/2/5 202/2/5 201/2/5
f 204/2/5 202/2/5 203/2/5
f 207/2/5 206/2/5 205/2/5
f 208/2/5 206/2/5 207/2/5
f 211/2/5 210/2/5 209/2/5
f 213/2/5 211/2/5 209/2/5
f 213/2/5 212/2/5 211/2/5
f 214/2/5 212/2/5 213/2/5
f 215/2/5 212/2/5 214/2/5
f 216/2/5 212/2/5 215/2/5
f 219/3/5 218/3/5 217/3/5
f 220/3/5 218/3/5 219/3/5
f 223/4/5 222/4/5 221/4/5
f 224/4/5 222/4/5 223/4/5
f 227/1/5 226/1/5 225/1/5
f 228/1/5 226/1/5 227/1/5
f 229/1/5 227/1/5 225/1/5
f 231/1/5 229/1/5 225/1/5
f 231/1/5 230/1/5 229/1/5
f 232/1/5 230/1/5 231/1/5
f 233/1/6 234/1/6 235/1/6
f 235/1/6 234/1/6 236/1/6
f 237/1/6 238/1/6 239/1/6
f 239/1/6 238/1/6 240/1/6
f 241/2/6 242/2/6 243/2/6
f 243/2/6 242/2/6 244/2/6
f 245/2/6 246/2/6 247/2/6
f 247/2/6 246/2/6 248/2/6
f 249/2/6 250/2/6 251/2/6
f 251/2/6 250/2/6 252/2/6
f 253/3/6 254/3/6 255/3/6
f 255/3/6 254/3/6 256/3/6
f 257/3/6 258/3/6 259/3/6
f 259/3/6 258/3/6 260/3/6
f 261/3/6 262/3/6 263/3/6
f 263/3/6 262/3/6 264/3/6
f 265/4/6 266/4/6 267/4/6
f 267/4/6 266/4/6 268/4/6
f 269/4/6 270/4/6 271/4/6
f 271/4/6 270/4/6 272/4/6
