# MagicaVoxel @ Ephtracy

# group
o torso_static

# material
mtllib woman-15-torso_static.mtl
usemtl palette

# normals
vn -1 0 0
vn 1 0 0
vn 0 0 1
vn 0 0 -1
vn 0 -1 0
vn 0 1 0

# texcoords
vt 0.970703 0.5
vt 0.978516 0.5
vt 0.982422 0.5

# verts
v -0.2 1 0.1
v -0.2 1 -0.2
v -0.2 1.2 0.1
v -0.2 1.2 -0.2
v -0.2 1.4 0.1
v -0.2 1.4 -0.2
v -0.2 1.6 0.1
v -0.2 1.6 -0.2
v -0.2 1.7 0.1
v -0.2 1.7 -0.2
v -0.1 0.7 0.1
v -0.1 0.7 -0.2
v -0.1 1 0.1
v -0.1 1 -0.2
v -0.1 1.2 0.1
v -0.1 1.2 -0.2
v -0.1 1.3 0.1
v -0.1 1.3 -0.2
v 0 1.3 0
v 0 1.3 -0.1
v 0 1.4 0
v 0 1.4 -0.1
v 0.1 1.3 0.1
v 0.1 1.3 0
v 0.1 1.3 -0.1
v 0.1 1.3 -0.2
v 0.1 1.4 0.1
v 0.1 1.4 0
v 0.1 1.4 -0.1
v 0.1 1.4 -0.2
v 0.1 0.7 0.1
v 0.1 0.7 -0.2
v 0.1 1.1 0.1
v 0.1 1.1 -0.2
v 0.1 1.6 0.1
v 0.1 1.6 -0.2
v 0.1 1.7 0.1
v 0.1 1.7 -0.2
v 0.2 1.1 0.1
v 0.2 1.1 -0.2
v 0.2 1.6 0.1
v 0.2 1.6 -0.2
v -0.2 1 0.1
v -0.2 1.2 0.1
v -0.2 1.4 0.1
v -0.2 1.6 0.1
v -0.2 1.7 0.1
v -0.1 0.7 0.1
v -0.1 1 0.1
v -0.1 1.2 0.1
v -0.1 1.3 0.1
v 0 1.5 0.1
v 0 1.6 0.1
v 0.1 0.7 0.1
v 0.1 1.1 0.1
v 0.1 1.3 0.1
v 0.1 1.4 0.1
v 0.1 1.5 0.1
v 0.1 1.6 0.1
v 0.1 1.7 0.1
v 0.2 1.1 0.1
v 0.2 1.6 0.1
v 0 1.3 0
v 0 1.4 0
v 0.1 1.3 0
v 0.1 1.4 0
v 0 1.3 -0.1
v 0 1.4 -0.1
v 0.1 1.3 -0.1
v 0.1 1.4 -0.1
v -0.2 1 -0.2
v -0.2 1.2 -0.2
v -0.2 1.4 -0.2
v -0.2 1.6 -0.2
v -0.2 1.7 -0.2
v -0.1 0.7 -0.2
v -0.1 1 -0.2
v -0.1 1.2 -0.2
v -0.1 1.3 -0.2
v 0 1.5 -0.2
v 0 1.6 -0.2
v 0.1 0.7 -0.2
v 0.1 1.1 -0.2
v 0.1 1.3 -0.2
v 0.1 1.4 -0.2
v 0.1 1.5 -0.2
v 0.1 1.6 -0.2
v 0.1 1.7 -0.2
v 0.2 1.1 -0.2
v 0.2 1.6 -0.2
v -0.1 0.7 0.1
v 0.1 0.7 0.1
v -0.1 0.7 -0.2
v 0.1 0.7 -0.2
v -0.2 1 0.1
v -0.1 1 0.1
v -0.2 1 -0.2
v -0.1 1 -0.2
v 0.1 1.1 0.1
v 0.2 1.1 0.1
v 0.1 1.1 -0.2
v 0.2 1.1 -0.2
v -0.2 1.4 0.1
v 0.1 1.4 0.1
v 0 1.4 0
v 0.1 1.4 0
v 0 1.4 -0.1
v 0.1 1.4 -0.1
v -0.2 1.4 -0.2
v 0.1 1.4 -0.2
v -0.2 1.2 0.1
v -0.1 1.2 0.1
v -0.2 1.2 -0.2
v -0.1 1.2 -0.2
v -0.1 1.3 0.1
v 0.1 1.3 0.1
v 0 1.3 0
v 0.1 1.3 0
v 0 1.3 -0.1
v 0.1 1.3 -0.1
v -0.1 1.3 -0.2
v 0.1 1.3 -0.2
v 0.1 1.6 0.1
v 0.2 1.6 0.1
v 0.1 1.6 -0.2
v 0.2 1.6 -0.2
v -0.2 1.7 0.1
v 0.1 1.7 0.1
v -0.2 1.7 -0.2
v 0.1 1.7 -0.2

# faces
f 3/2/1 2/2/1 1/2/1
f 4/2/1 2/2/1 3/2/1
f 7/1/1 6/1/1 5/1/1
f 8/1/1 6/1/1 7/1/1
f 9/3/1 8/3/1 7/3/1
f 10/3/1 8/3/1 9/3/1
f 13/2/1 12/2/1 11/2/1
f 14/2/1 12/2/1 13/2/1
f 17/2/1 16/2/1 15/2/1
f 18/2/1 16/2/1 17/2/1
f 21/1/1 20/1/1 19/1/1
f 22/1/1 20/1/1 21/1/1
f 27/3/1 24/3/1 23/3/1
f 28/3/1 24/3/1 27/3/1
f 29/3/1 26/3/1 25/3/1
f 30/3/1 26/3/1 29/3/1
f 31/2/2 32/2/2 33/2/2
f 33/2/2 32/2/2 34/2/2
f 35/3/2 36/3/2 37/3/2
f 37/3/2 36/3/2 38/3/2
f 39/3/2 40/3/2 41/3/2
f 41/3/2 40/3/2 42/3/2
f 49/2/3 44/2/3 43/2/3
f 50/2/3 44/2/3 49/2/3
f 52/1/3 46/1/3 45/1/3
f 53/3/3 47/3/3 46/3/3
f 53/1/3 46/1/3 52/1/3
f 54/2/3 51/2/3 50/2/3
f 54/2/3 49/2/3 48/2/3
f 54/2/3 50/2/3 49/2/3
f 55/2/3 51/2/3 54/2/3
f 56/2/3 51/2/3 55/2/3
f 57/1/3 52/1/3 45/1/3
f 58/3/3 53/3/3 52/3/3
f 58/1/3 52/1/3 57/1/3
f 59/3/3 47/3/3 53/3/3
f 59/3/3 53/3/3 58/3/3
f 60/3/3 47/3/3 59/3/3
f 61/3/3 56/3/3 55/3/3
f 61/3/3 58/3/3 57/3/3
f 61/3/3 59/3/3 58/3/3
f 61/3/3 57/3/3 56/3/3
f 62/3/3 59/3/3 61/3/3
f 65/1/3 64/1/3 63/1/3
f 66/1/3 64/1/3 65/1/3
f 67/1/4 68/1/4 69/1/4
f 69/1/4 68/1/4 70/1/4
f 71/2/4 72/2/4 77/2/4
f 77/2/4 72/2/4 78/2/4
f 73/1/4 74/1/4 80/1/4
f 74/3/4 75/3/4 81/3/4
f 80/1/4 74/1/4 81/1/4
f 78/2/4 79/2/4 82/2/4
f 76/2/4 77/2/4 82/2/4
f 77/2/4 78/2/4 82/2/4
f 82/2/4 79/2/4 83/2/4
f 83/2/4 79/2/4 84/2/4
f 73/1/4 80/1/4 85/1/4
f 80/3/4 81/3/4 86/3/4
f 85/1/4 80/1/4 86/1/4
f 81/3/4 75/3/4 87/3/4
f 86/3/4 81/3/4 87/3/4
f 87/3/4 75/3/4 88/3/4
f 83/3/4 84/3/4 89/3/4
f 85/3/4 86/3/4 89/3/4
f 86/3/4 87/3/4 89/3/4
f 84/3/4 85/3/4 89/3/4
f 89/3/4 87/3/4 90/3/4
f 93/2/5 92/2/5 91/2/5
f 94/2/5 92/2/5 93/2/5
f 97/2/5 96/2/5 95/2/5
f 98/2/5 96/2/5 97/2/5
f 101/3/5 100/3/5 99/3/5
f 102/3/5 100/3/5 101/3/5
f 105/1/5 104/1/5 103/1/5
f 106/1/5 104/1/5 105/1/5
f 107/1/5 105/1/5 103/1/5
f 109/1/5 107/1/5 103/1/5
f 109/1/5 108/1/5 107/1/5
f 110/1/5 108/1/5 109/1/5
f 111/2/6 112/2/6 113/2/6
f 113/2/6 112/2/6 114/2/6
f 115/2/6 116/2/6 117/2/6
f 117/2/6 116/2/6 118/2/6
f 115/2/6 117/2/6 119/2/6
f 115/2/6 119/2/6 121/2/6
f 119/2/6 120/2/6 121/2/6
f 121/2/6 120/2/6 122/2/6
f 123/3/6 124/3/6 125/3/6
f 125/3/6 124/3/6 126/3/6
f 127/3/6 128/3/6 129/3/6
f 129/3/6 128/3/6 130/3/6
