# MagicaVoxel @ Ephtracy

# group
o 

# material
mtllib sunflower.mtl
usemtl palette

# normals
vn -1 0 0
vn 1 0 0
vn 0 0 1
vn 0 0 -1
vn 0 -1 0
vn 0 1 0

# texcoords
vt 0.900391 0.5
vt 0.931641 0.5
vt 0.994141 0.5

# verts
v -0.2 0.5 -0.1
v -0.2 0.5 -0.2
v -0.2 0.6 -0.1
v -0.2 0.6 -0.2
v -0.2 0.8 0.3
v -0.2 0.8 -2.98023e-08
v -0.2 0.9 0.2
v -0.2 0.9 0.1
v -0.2 1 0.2
v -0.2 1 0.1
v -0.2 1.1 0.3
v -0.2 1.1 -2.98023e-08
v -0.0999999 0 -2.98023e-08
v -0.0999999 0 -0.1
v -0.0999999 0.4 -0.1
v -0.0999999 0.4 -0.2
v -0.0999999 0.5 0.3
v -0.0999999 0.5 0.2
v -0.0999999 0.5 -0.1
v -0.0999999 0.5 -0.2
v -0.0999999 0.5 -0.4
v -0.0999999 0.6 0.3
v -0.0999999 0.6 0.2
v -0.0999999 0.6 -0.1
v -0.0999999 0.6 -0.2
v -0.0999999 0.6 -0.3
v -0.0999999 0.6 -0.4
v -0.0999999 0.7 -0.2
v -0.0999999 0.7 -0.3
v -0.0999999 0.8 -2.98023e-08
v -0.0999999 0.8 -0.1
v 5.96046e-08 0.4 0.1
v 5.96046e-08 0.4 -2.98023e-08
v 5.96046e-08 0.5 0.2
v 5.96046e-08 0.5 0.1
v 5.96046e-08 0.5 -2.98023e-08
v 5.96046e-08 0.6 0.2
v 5.96046e-08 0.7 0.2
v 5.96046e-08 0.7 0.1
v -0.0999999 0.5 -0.1
v -0.0999999 0.5 -0.2
v -0.0999999 0.6 -0.1
v -0.0999999 0.6 -0.2
v -0.0999999 0.8 0.3
v -0.0999999 0.8 0.1
v -0.0999999 0.9 0.2
v -0.0999999 0.9 0.1
v -0.0999999 1 0.2
v -0.0999999 1 0.1
v -0.0999999 1 -2.98023e-08
v -0.0999999 1.1 0.3
v -0.0999999 1.1 -2.98023e-08
v 5.96046e-08 0 -2.98023e-08
v 5.96046e-08 0 -0.1
v 5.96046e-08 0.4 -2.98023e-08
v 5.96046e-08 0.4 -0.1
v 5.96046e-08 0.4 -0.2
v 5.96046e-08 0.5 -2.98023e-08
v 5.96046e-08 0.5 -0.1
v 5.96046e-08 0.5 -0.2
v 5.96046e-08 0.5 -0.4
v 5.96046e-08 0.6 -0.3
v 5.96046e-08 0.6 -0.4
v 5.96046e-08 0.7 -0.2
v 5.96046e-08 0.7 -0.3
v 5.96046e-08 0.8 0.1
v 5.96046e-08 0.8 -2.98023e-08
v 5.96046e-08 0.8 -0.1
v 5.96046e-08 1 0.1
v 5.96046e-08 1 -2.98023e-08
v 0.1 0.4 0.1
v 0.1 0.4 -2.98023e-08
v 0.1 0.5 0.3
v 0.1 0.5 0.1
v 0.1 0.5 -2.98023e-08
v 0.1 0.6 0.3
v 0.1 0.6 0.2
v 0.1 0.7 0.2
v 0.1 0.7 0.1
v -0.2 0.8 0.3
v -0.2 1.1 0.3
v -0.0999999 0.5 0.3
v -0.0999999 0.6 0.3
v -0.0999999 0.8 0.3
v -0.0999999 1.1 0.3
v 0.1 0.5 0.3
v 0.1 0.6 0.3
v 5.96046e-08 0.6 0.2
v 5.96046e-08 0.7 0.2
v 0.1 0.6 0.2
v 0.1 0.7 0.2
v -0.0999999 0.8 0.1
v -0.0999999 0.9 0.1
v -0.0999999 1 0.1
v 5.96046e-08 0.4 0.1
v 5.96046e-08 0.5 0.1
v 5.96046e-08 0.8 0.1
v 5.96046e-08 1 0.1
v 0.1 0.4 0.1
v 0.1 0.5 0.1
v -0.0999999 0 -2.98023e-08
v -0.0999999 0.8 -2.98023e-08
v 5.96046e-08 0 -2.98023e-08
v 5.96046e-08 0.4 -2.98023e-08
v 5.96046e-08 0.5 -2.98023e-08
v 5.96046e-08 0.8 -2.98023e-08
v -0.2 0.5 -0.1
v -0.2 0.6 -0.1
v -0.0999999 0.5 -0.1
v -0.0999999 0.6 -0.1
v -0.0999999 0.5 -0.2
v -0.0999999 0.6 -0.2
v -0.0999999 0.7 -0.2
v 5.96046e-08 0.5 -0.2
v 5.96046e-08 0.7 -0.2
v -0.0999999 0.5 0.2
v -0.0999999 0.6 0.2
v 5.96046e-08 0.5 0.2
v 5.96046e-08 0.6 0.2
v 5.96046e-08 0.5 0.1
v 5.96046e-08 0.7 0.1
v 0.1 0.5 0.1
v 0.1 0.7 0.1
v -0.2 0.8 -2.98023e-08
v -0.2 1.1 -2.98023e-08
v -0.0999999 0.8 -2.98023e-08
v -0.0999999 1 -2.98023e-08
v -0.0999999 1.1 -2.98023e-08
v 5.96046e-08 0.4 -2.98023e-08
v 5.96046e-08 0.5 -2.98023e-08
v 5.96046e-08 0.8 -2.98023e-08
v 5.96046e-08 1 -2.98023e-08
v 0.1 0.4 -2.98023e-08
v 0.1 0.5 -2.98023e-08
v -0.0999999 0 -0.1
v -0.0999999 0.4 -0.1
v -0.0999999 0.5 -0.1
v -0.0999999 0.6 -0.1
v -0.0999999 0.8 -0.1
v 5.96046e-08 0 -0.1
v 5.96046e-08 0.4 -0.1
v 5.96046e-08 0.5 -0.1
v 5.96046e-08 0.8 -0.1
v -0.2 0.5 -0.2
v -0.2 0.6 -0.2
v -0.0999999 0.4 -0.2
v -0.0999999 0.5 -0.2
v -0.0999999 0.6 -0.2
v 5.96046e-08 0.4 -0.2
v 5.96046e-08 0.5 -0.2
v -0.0999999 0.6 -0.3
v -0.0999999 0.7 -0.3
v 5.96046e-08 0.6 -0.3
v 5.96046e-08 0.7 -0.3
v -0.0999999 0.5 -0.4
v -0.0999999 0.6 -0.4
v 5.96046e-08 0.5 -0.4
v 5.96046e-08 0.6 -0.4
v -0.0999999 0 -2.98023e-08
v 5.96046e-08 0 -2.98023e-08
v -0.0999999 0 -0.1
v 5.96046e-08 0 -0.1
v 5.96046e-08 0.4 0.1
v 0.1 0.4 0.1
v 5.96046e-08 0.4 -2.98023e-08
v 0.1 0.4 -2.98023e-08
v -0.0999999 0.4 -0.1
v 5.96046e-08 0.4 -0.1
v -0.0999999 0.4 -0.2
v 5.96046e-08 0.4 -0.2
v -0.0999999 0.5 0.3
v 0.1 0.5 0.3
v -0.0999999 0.5 0.2
v 5.96046e-08 0.5 0.2
v 5.96046e-08 0.5 0.1
v 0.1 0.5 0.1
v -0.2 0.5 -0.1
v -0.0999999 0.5 -0.1
v -0.2 0.5 -0.2
v -0.0999999 0.5 -0.2
v 5.96046e-08 0.5 -0.2
v -0.0999999 0.5 -0.4
v 5.96046e-08 0.5 -0.4
v -0.2 0.8 0.3
v -0.0999999 0.8 0.3
v -0.0999999 0.8 0.1
v 5.96046e-08 0.8 0.1
v -0.2 0.8 -2.98023e-08
v -0.0999999 0.8 -2.98023e-08
v 5.96046e-08 0.8 -2.98023e-08
v 5.96046e-08 0.5 0.1
v 0.1 0.5 0.1
v 5.96046e-08 0.5 -2.98023e-08
v 0.1 0.5 -2.98023e-08
v -0.0999999 0.5 -0.1
v 5.96046e-08 0.5 -0.1
v -0.0999999 0.5 -0.2
v 5.96046e-08 0.5 -0.2
v -0.0999999 0.6 0.3
v 0.1 0.6 0.3
v -0.0999999 0.6 0.2
v 5.96046e-08 0.6 0.2
v 0.1 0.6 0.2
v -0.2 0.6 -0.1
v -0.0999999 0.6 -0.1
v -0.2 0.6 -0.2
v -0.0999999 0.6 -0.2
v -0.0999999 0.6 -0.3
v 5.96046e-08 0.6 -0.3
v -0.0999999 0.6 -0.4
v 5.96046e-08 0.6 -0.4
v 5.96046e-08 0.7 0.2
v 0.1 0.7 0.2
v 5.96046e-08 0.7 0.1
v 0.1 0.7 0.1
v -0.0999999 0.7 -0.2
v 5.96046e-08 0.7 -0.2
v -0.0999999 0.7 -0.3
v 5.96046e-08 0.7 -0.3
v -0.0999999 0.8 -2.98023e-08
v 5.96046e-08 0.8 -2.98023e-08
v -0.0999999 0.8 -0.1
v 5.96046e-08 0.8 -0.1
v -0.0999999 1 0.1
v 5.96046e-08 1 0.1
v -0.0999999 1 -2.98023e-08
v 5.96046e-08 1 -2.98023e-08
v -0.2 1.1 0.3
v -0.0999999 1.1 0.3
v -0.2 1.1 -2.98023e-08
v -0.0999999 1.1 -2.98023e-08

# faces
f 3/3/1 2/3/1 1/3/1
f 4/3/1 2/3/1 3/3/1
f 7/2/1 6/2/1 5/2/1
f 8/2/1 6/2/1 7/2/1
f 9/2/1 7/2/1 5/2/1
f 9/1/1 8/1/1 7/1/1
f 10/2/1 6/2/1 8/2/1
f 10/1/1 8/1/1 9/1/1
f 11/2/1 9/2/1 5/2/1
f 11/2/1 10/2/1 9/2/1
f 12/2/1 6/2/1 10/2/1
f 12/2/1 10/2/1 11/2/1
f 15/3/1 14/3/1 13/3/1
f 19/3/1 15/3/1 13/3/1
f 19/3/1 16/3/1 15/3/1
f 20/3/1 16/3/1 19/3/1
f 22/3/1 18/3/1 17/3/1
f 23/3/1 18/3/1 22/3/1
f 24/3/1 19/3/1 13/3/1
f 25/3/1 21/3/1 20/3/1
f 26/3/1 21/3/1 25/3/1
f 27/3/1 21/3/1 26/3/1
f 28/3/1 26/3/1 25/3/1
f 29/3/1 26/3/1 28/3/1
f 30/3/1 24/3/1 13/3/1
f 31/3/1 24/3/1 30/3/1
f 35/3/1 33/3/1 32/3/1
f 36/3/1 33/3/1 35/3/1
f 37/3/1 35/3/1 34/3/1
f 38/3/1 35/3/1 37/3/1
f 39/3/1 35/3/1 38/3/1
f 40/3/2 41/3/2 42/3/2
f 42/3/2 41/3/2 43/3/2
f 44/2/2 45/2/2 46/2/2
f 46/2/2 45/2/2 47/2/2
f 44/2/2 46/2/2 48/2/2
f 46/1/2 47/1/2 48/1/2
f 48/1/2 47/1/2 49/1/2
f 48/2/2 49/2/2 51/2/2
f 49/2/2 50/2/2 51/2/2
f 44/2/2 48/2/2 51/2/2
f 51/2/2 50/2/2 52/2/2
f 53/3/2 54/3/2 55/3/2
f 55/3/2 54/3/2 56/3/2
f 55/3/2 56/3/2 58/3/2
f 56/3/2 57/3/2 58/3/2
f 58/3/2 57/3/2 59/3/2
f 59/3/2 57/3/2 60/3/2
f 60/3/2 61/3/2 62/3/2
f 62/3/2 61/3/2 63/3/2
f 60/3/2 62/3/2 64/3/2
f 64/3/2 62/3/2 65/3/2
f 58/3/2 59/3/2 67/3/2
f 67/3/2 59/3/2 68/3/2
f 66/3/2 67/3/2 69/3/2
f 69/3/2 67/3/2 70/3/2
f 71/3/2 72/3/2 74/3/2
f 74/3/2 72/3/2 75/3/2
f 73/3/2 74/3/2 76/3/2
f 76/3/2 74/3/2 77/3/2
f 77/3/2 74/3/2 78/3/2
f 78/3/2 74/3/2 79/3/2
f 84/2/3 81/2/3 80/2/3
f 85/2/3 81/2/3 84/2/3
f 86/3/3 83/3/3 82/3/3
f 87/3/3 83/3/3 86/3/3
f 90/3/3 89/3/3 88/3/3
f 91/3/3 89/3/3 90/3/3
f 97/3/3 93/3/3 92/3/3
f 97/3/3 94/3/3 93/3/3
f 98/3/3 94/3/3 97/3/3
f 99/3/3 96/3/3 95/3/3
f 100/3/3 96/3/3 99/3/3
f 103/3/3 102/3/3 101/3/3
f 104/3/3 102/3/3 103/3/3
f 105/3/3 102/3/3 104/3/3
f 106/3/3 102/3/3 105/3/3
f 109/3/3 108/3/3 107/3/3
f 110/3/3 108/3/3 109/3/3
f 114/3/3 112/3/3 111/3/3
f 114/3/3 113/3/3 112/3/3
f 115/3/3 113/3/3 114/3/3
f 116/3/4 117/3/4 118/3/4
f 118/3/4 117/3/4 119/3/4
f 120/3/4 121/3/4 122/3/4
f 122/3/4 121/3/4 123/3/4
f 124/2/4 125/2/4 126/2/4
f 126/2/4 125/2/4 127/2/4
f 127/2/4 125/2/4 128/2/4
f 126/3/4 127/3/4 131/3/4
f 131/3/4 127/3/4 132/3/4
f 129/3/4 130/3/4 133/3/4
f 133/3/4 130/3/4 134/3/4
f 135/3/4 136/3/4 140/3/4
f 140/3/4 136/3/4 141/3/4
f 138/3/4 139/3/4 142/3/4
f 137/3/4 138/3/4 142/3/4
f 142/3/4 139/3/4 143/3/4
f 144/3/4 145/3/4 147/3/4
f 147/3/4 145/3/4 148/3/4
f 146/3/4 147/3/4 149/3/4
f 149/3/4 147/3/4 150/3/4
f 151/3/4 152/3/4 153/3/4
f 153/3/4 152/3/4 154/3/4
f 155/3/4 156/3/4 157/3/4
f 157/3/4 156/3/4 158/3/4
f 161/3/5 160/3/5 159/3/5
f 162/3/5 160/3/5 161/3/5
f 165/3/5 164/3/5 163/3/5
f 166/3/5 164/3/5 165/3/5
f 169/3/5 168/3/5 167/3/5
f 170/3/5 168/3/5 169/3/5
f 173/3/5 172/3/5 171/3/5
f 174/3/5 172/3/5 173/3/5
f 175/3/5 172/3/5 174/3/5
f 176/3/5 172/3/5 175/3/5
f 179/3/5 178/3/5 177/3/5
f 180/3/5 178/3/5 179/3/5
f 182/3/5 181/3/5 180/3/5
f 183/3/5 181/3/5 182/3/5
f 186/2/5 185/2/5 184/2/5
f 188/2/5 186/2/5 184/2/5
f 189/3/5 187/3/5 186/3/5
f 189/2/5 186/2/5 188/2/5
f 190/3/5 187/3/5 189/3/5
f 191/3/6 192/3/6 193/3/6
f 193/3/6 192/3/6 194/3/6
f 195/3/6 196/3/6 197/3/6
f 197/3/6 196/3/6 198/3/6
f 199/3/6 200/3/6 201/3/6
f 201/3/6 200/3/6 202/3/6
f 202/3/6 200/3/6 203/3/6
f 204/3/6 205/3/6 206/3/6
f 206/3/6 205/3/6 207/3/6
f 208/3/6 209/3/6 210/3/6
f 210/3/6 209/3/6 211/3/6
f 212/3/6 213/3/6 214/3/6
f 214/3/6 213/3/6 215/3/6
f 216/3/6 217/3/6 218/3/6
f 218/3/6 217/3/6 219/3/6
f 220/3/6 221/3/6 222/3/6
f 222/3/6 221/3/6 223/3/6
f 224/3/6 225/3/6 226/3/6
f 226/3/6 225/3/6 227/3/6
f 228/2/6 229/2/6 230/2/6
f 230/2/6 229/2/6 231/2/6
