# MagicaVoxel @ Ephtracy

# group
o torso_walk

# material
mtllib orc-5-torso_walk.mtl
usemtl palette

# normals
vn -1 0 0
vn 1 0 0
vn 0 0 1
vn 0 0 -1
vn 0 -1 0
vn 0 1 0

# texcoords
vt 0.970703 0.5
vt 0.974609 0.5

# verts
v -0.5 0.2 -0.2
v -0.5 0.2 -0.3
v -0.5 0.3 -0.2
v -0.5 0.3 -0.3
v -0.4 0.3 -0.2
v -0.4 0.3 -0.3
v -0.4 0.5 -0.2
v -0.4 0.5 -0.3
v -0.3 0.5 -0.2
v -0.3 0.5 -0.3
v -0.3 0.6 -0.2
v -0.3 0.6 -0.3
v 5.96046e-08 0.4 0.2
v 5.96046e-08 0.4 0.1
v 5.96046e-08 0.5 0.2
v 5.96046e-08 0.5 0.1
v 0.3 0.3 0.2
v 0.3 0.3 0.1
v 0.3 0.4 0.2
v 0.3 0.4 0.1
v -0.3 0.2 -0.2
v -0.3 0.2 -0.3
v -0.3 0.3 -0.2
v -0.3 0.3 -0.3
v -0.3 0.5 -0.2
v -0.3 0.5 -0.3
v -0.2 0.5 -0.2
v -0.2 0.5 -0.3
v -0.2 0.6 -0.2
v -0.2 0.6 -0.3
v 0.4 0.3 0.2
v 0.4 0.3 0.1
v 0.4 0.5 0.2
v 0.4 0.5 0.1
v 5.96046e-08 0.4 0.2
v 5.96046e-08 0.5 0.2
v 0.3 0.3 0.2
v 0.3 0.4 0.2
v 0.3 0.5 0.2
v 0.4 0.3 0.2
v 0.4 0.5 0.2
v -0.5 0.2 -0.2
v -0.5 0.3 -0.2
v -0.4 0.3 -0.2
v -0.4 0.5 -0.2
v -0.3 0.2 -0.2
v -0.3 0.3 -0.2
v -0.3 0.5 -0.2
v -0.3 0.6 -0.2
v -0.2 0.5 -0.2
v -0.2 0.6 -0.2
v 5.96046e-08 0.4 0.1
v 5.96046e-08 0.5 0.1
v 0.3 0.3 0.1
v 0.3 0.4 0.1
v 0.3 0.5 0.1
v 0.4 0.3 0.1
v 0.4 0.5 0.1
v -0.5 0.2 -0.3
v -0.5 0.3 -0.3
v -0.4 0.3 -0.3
v -0.4 0.5 -0.3
v -0.3 0.2 -0.3
v -0.3 0.3 -0.3
v -0.3 0.5 -0.3
v -0.3 0.6 -0.3
v -0.2 0.5 -0.3
v -0.2 0.6 -0.3
v -0.5 0.2 -0.2
v -0.3 0.2 -0.2
v -0.5 0.2 -0.3
v -0.3 0.2 -0.3
v 0.3 0.3 0.2
v 0.4 0.3 0.2
v 0.3 0.3 0.1
v 0.4 0.3 0.1
v 5.96046e-08 0.4 0.2
v 0.3 0.4 0.2
v 5.96046e-08 0.4 0.1
v 0.3 0.4 0.1
v -0.3 0.5 -0.2
v -0.2 0.5 -0.2
v -0.3 0.5 -0.3
v -0.2 0.5 -0.3
v -0.5 0.3 -0.2
v -0.4 0.3 -0.2
v -0.5 0.3 -0.3
v -0.4 0.3 -0.3
v 5.96046e-08 0.5 0.2
v 0.3 0.5 0.2
v 0.4 0.5 0.2
v 5.96046e-08 0.5 0.1
v 0.3 0.5 0.1
v 0.4 0.5 0.1
v -0.4 0.5 -0.2
v -0.3 0.5 -0.2
v -0.4 0.5 -0.3
v -0.3 0.5 -0.3
v -0.3 0.6 -0.2
v -0.2 0.6 -0.2
v -0.3 0.6 -0.3
v -0.2 0.6 -0.3

# faces
f 3/1/1 2/1/1 1/1/1
f 4/1/1 2/1/1 3/1/1
f 7/2/1 6/2/1 5/2/1
f 8/2/1 6/2/1 7/2/1
f 11/2/1 10/2/1 9/2/1
f 12/2/1 10/2/1 11/2/1
f 15/2/1 14/2/1 13/2/1
f 16/2/1 14/2/1 15/2/1
f 19/1/1 18/1/1 17/1/1
f 20/1/1 18/1/1 19/1/1
f 21/1/2 22/1/2 23/1/2
f 23/1/2 22/1/2 24/1/2
f 23/2/2 24/2/2 25/2/2
f 25/2/2 24/2/2 26/2/2
f 27/2/2 28/2/2 29/2/2
f 29/2/2 28/2/2 30/2/2
f 31/1/2 32/1/2 33/1/2
f 33/1/2 32/1/2 34/1/2
f 38/2/3 36/2/3 35/2/3
f 39/2/3 36/2/3 38/2/3
f 40/1/3 38/1/3 37/1/3
f 40/1/3 39/1/3 38/1/3
f 41/1/3 39/1/3 40/1/3
f 44/1/3 43/1/3 42/1/3
f 46/1/3 44/1/3 42/1/3
f 47/2/3 45/2/3 44/2/3
f 47/1/3 44/1/3 46/1/3
f 48/2/3 45/2/3 47/2/3
f 50/2/3 49/2/3 48/2/3
f 51/2/3 49/2/3 50/2/3
f 52/2/4 53/2/4 55/2/4
f 55/2/4 53/2/4 56/2/4
f 54/1/4 55/1/4 57/1/4
f 55/1/4 56/1/4 57/1/4
f 57/1/4 56/1/4 58/1/4
f 59/1/4 60/1/4 61/1/4
f 59/1/4 61/1/4 63/1/4
f 61/2/4 62/2/4 64/2/4
f 63/1/4 61/1/4 64/1/4
f 64/2/4 62/2/4 65/2/4
f 65/2/4 66/2/4 67/2/4
f 67/2/4 66/2/4 68/2/4
f 71/1/5 70/1/5 69/1/5
f 72/1/5 70/1/5 71/1/5
f 75/1/5 74/1/5 73/1/5
f 76/1/5 74/1/5 75/1/5
f 79/2/5 78/2/5 77/2/5
f 80/2/5 78/2/5 79/2/5
f 83/2/5 82/2/5 81/2/5
f 84/2/5 82/2/5 83/2/5
f 85/1/6 86/1/6 87/1/6
f 87/1/6 86/1/6 88/1/6
f 89/2/6 90/2/6 92/2/6
f 90/1/6 91/1/6 93/1/6
f 92/2/6 90/2/6 93/2/6
f 93/1/6 91/1/6 94/1/6
f 95/2/6 96/2/6 97/2/6
f 97/2/6 96/2/6 98/2/6
f 99/2/6 100/2/6 101/2/6
f 101/2/6 100/2/6 102/2/6
