# MagicaVoxel @ Ephtracy

# group
o torso_walk

# material
mtllib orc-4-torso_walk.mtl
usemtl palette

# normals
vn -1 0 0
vn 1 0 0
vn 0 0 1
vn 0 0 -1
vn 0 -1 0
vn 0 1 0

# texcoords
vt 0.970703 0.5
vt 0.974609 0.5

# verts
v -0.5 0.3 -0.2
v -0.5 0.3 -0.3
v -0.5 0.4 -0.2
v -0.5 0.4 -0.3
v -0.4 0.4 -0.2
v -0.4 0.4 -0.3
v -0.4 0.6 -0.2
v -0.4 0.6 -0.3
v 5.96046e-08 0.4 0.2
v 5.96046e-08 0.4 0.1
v 5.96046e-08 0.5 0.2
v 5.96046e-08 0.5 0.1
v 0.3 0.3 0.2
v 0.3 0.3 0.1
v 0.3 0.4 0.2
v 0.3 0.4 0.1
v -0.3 0.3 -0.2
v -0.3 0.3 -0.3
v -0.3 0.4 -0.2
v -0.3 0.4 -0.3
v -0.3 0.5 -0.2
v -0.3 0.5 -0.3
v -0.2 0.5 -0.2
v -0.2 0.5 -0.3
v -0.2 0.6 -0.2
v -0.2 0.6 -0.3
v 0.4 0.3 0.2
v 0.4 0.3 0.1
v 0.4 0.5 0.2
v 0.4 0.5 0.1
v 5.96046e-08 0.4 0.2
v 5.96046e-08 0.5 0.2
v 0.3 0.3 0.2
v 0.3 0.4 0.2
v 0.3 0.5 0.2
v 0.4 0.3 0.2
v 0.4 0.5 0.2
v -0.5 0.3 -0.2
v -0.5 0.4 -0.2
v -0.4 0.4 -0.2
v -0.4 0.6 -0.2
v -0.3 0.3 -0.2
v -0.3 0.4 -0.2
v -0.3 0.5 -0.2
v -0.2 0.5 -0.2
v -0.2 0.6 -0.2
v 5.96046e-08 0.4 0.1
v 5.96046e-08 0.5 0.1
v 0.3 0.3 0.1
v 0.3 0.4 0.1
v 0.3 0.5 0.1
v 0.4 0.3 0.1
v 0.4 0.5 0.1
v -0.5 0.3 -0.3
v -0.5 0.4 -0.3
v -0.4 0.4 -0.3
v -0.4 0.6 -0.3
v -0.3 0.3 -0.3
v -0.3 0.4 -0.3
v -0.3 0.5 -0.3
v -0.2 0.5 -0.3
v -0.2 0.6 -0.3
v 0.3 0.3 0.2
v 0.4 0.3 0.2
v 0.3 0.3 0.1
v 0.4 0.3 0.1
v -0.5 0.3 -0.2
v -0.3 0.3 -0.2
v -0.5 0.3 -0.3
v -0.3 0.3 -0.3
v 5.96046e-08 0.4 0.2
v 0.3 0.4 0.2
v 5.96046e-08 0.4 0.1
v 0.3 0.4 0.1
v -0.3 0.5 -0.2
v -0.2 0.5 -0.2
v -0.3 0.5 -0.3
v -0.2 0.5 -0.3
v -0.5 0.4 -0.2
v -0.4 0.4 -0.2
v -0.5 0.4 -0.3
v -0.4 0.4 -0.3
v 5.96046e-08 0.5 0.2
v 0.3 0.5 0.2
v 0.4 0.5 0.2
v 5.96046e-08 0.5 0.1
v 0.3 0.5 0.1
v 0.4 0.5 0.1
v -0.4 0.6 -0.2
v -0.2 0.6 -0.2
v -0.4 0.6 -0.3
v -0.2 0.6 -0.3

# faces
f 3/1/1 2/1/1 1/1/1
f 4/1/1 2/1/1 3/1/1
f 7/2/1 6/2/1 5/2/1
f 8/2/1 6/2/1 7/2/1
f 11/2/1 10/2/1 9/2/1
f 12/2/1 10/2/1 11/2/1
f 15/1/1 14/1/1 13/1/1
f 16/1/1 14/1/1 15/1/1
f 17/1/2 18/1/2 19/1/2
f 19/1/2 18/1/2 20/1/2
f 19/2/2 20/2/2 21/2/2
f 21/2/2 20/2/2 22/2/2
f 23/2/2 24/2/2 25/2/2
f 25/2/2 24/2/2 26/2/2
f 27/1/2 28/1/2 29/1/2
f 29/1/2 28/1/2 30/1/2
f 34/2/3 32/2/3 31/2/3
f 35/2/3 32/2/3 34/2/3
f 36/1/3 34/1/3 33/1/3
f 36/1/3 35/1/3 34/1/3
f 37/1/3 35/1/3 36/1/3
f 40/1/3 39/1/3 38/1/3
f 42/1/3 40/1/3 38/1/3
f 43/2/3 41/2/3 40/2/3
f 43/1/3 40/1/3 42/1/3
f 44/2/3 41/2/3 43/2/3
f 45/2/3 41/2/3 44/2/3
f 46/2/3 41/2/3 45/2/3
f 47/2/4 48/2/4 50/2/4
f 50/2/4 48/2/4 51/2/4
f 49/1/4 50/1/4 52/1/4
f 50/1/4 51/1/4 52/1/4
f 52/1/4 51/1/4 53/1/4
f 54/1/4 55/1/4 56/1/4
f 54/1/4 56/1/4 58/1/4
f 56/2/4 57/2/4 59/2/4
f 58/1/4 56/1/4 59/1/4
f 59/2/4 57/2/4 60/2/4
f 60/2/4 57/2/4 61/2/4
f 61/2/4 57/2/4 62/2/4
f 65/1/5 64/1/5 63/1/5
f 66/1/5 64/1/5 65/1/5
f 69/1/5 68/1/5 67/1/5
f 70/1/5 68/1/5 69/1/5
f 73/2/5 72/2/5 71/2/5
f 74/2/5 72/2/5 73/2/5
f 77/2/5 76/2/5 75/2/5
f 78/2/5 76/2/5 77/2/5
f 79/1/6 80/1/6 81/1/6
f 81/1/6 80/1/6 82/1/6
f 83/2/6 84/2/6 86/2/6
f 84/1/6 85/1/6 87/1/6
f 86/2/6 84/2/6 87/2/6
f 87/1/6 85/1/6 88/1/6
f 89/2/6 90/2/6 91/2/6
f 91/2/6 90/2/6 92/2/6
