# MagicaVoxel @ Ephtracy

# group
o flames

# material
mtllib wall_torch-8-flames.mtl
usemtl palette

# normals
vn -1 0 0
vn 1 0 0
vn 0 0 1
vn 0 0 -1
vn 0 -1 0
vn 0 1 0

# texcoords
vt 0.978516 0.5
vt 0.982422 0.5
vt 0.986328 0.5
vt 0.990234 0.5
vt 0.994141 0.5

# verts
v -0.2 0.5 -7.45058e-09
v -0.2 0.5 -0.1
v -0.2 0.5 -0.2
v -0.2 0.5 -0.3
v -0.2 0.6 -7.45058e-09
v -0.2 0.6 -0.1
v -0.2 0.6 -0.2
v -0.2 0.6 -0.3
v -0.2 0.7 -0.1
v -0.2 0.7 -0.2
v -0.1 0.6 -7.45058e-09
v -0.1 0.6 -0.1
v -0.1 0.7 -7.45058e-09
v -0.1 0.7 -0.1
v 0 0.6 -0.2
v 0 0.6 -0.3
v 0 0.7 -7.45058e-09
v 0 0.7 -0.1
v 0 0.7 -0.2
v 0 0.7 -0.3
v 0 0.8 -7.45058e-09
v 0 0.8 -0.2
v 0.1 0.5 -7.45058e-09
v 0.1 0.5 -0.1
v 0.1 0.5 -0.2
v 0.1 0.5 -0.3
v 0.1 0.6 -7.45058e-09
v 0.1 0.6 -0.1
v 0.1 0.6 -0.2
v 0.1 0.6 -0.3
v 0.1 0.7 -7.45058e-09
v 0.1 0.7 -0.1
v 0.1 0.7 -0.2
v 0.1 0.7 -0.3
v 0.1 0.8 -7.45058e-09
v 0.1 0.8 -0.2
v -0.2 0.5 -7.45058e-09
v -0.2 0.6 -7.45058e-09
v -0.1 0.6 -7.45058e-09
v -0.1 0.7 -7.45058e-09
v 0 0.5 -7.45058e-09
v 0 0.6 -7.45058e-09
v 0 0.7 -7.45058e-09
v 0 0.8 -7.45058e-09
v 0.1 0.5 -7.45058e-09
v 0.1 0.6 -7.45058e-09
v 0.1 0.7 -7.45058e-09
v 0.1 0.8 -7.45058e-09
v -0.2 0.6 -0.1
v -0.2 0.7 -0.1
v -0.1 0.6 -0.1
v -0.1 0.7 -0.1
v -0.2 0.6 -0.2
v -0.2 0.7 -0.2
v -0.1 0.6 -0.2
v -0.1 0.7 -0.2
v 0 0.6 -0.2
v 0 0.7 -0.2
v 0 0.8 -0.2
v 0.1 0.7 -0.2
v 0.1 0.8 -0.2
v -0.2 0.5 -0.3
v -0.2 0.6 -0.3
v 0 0.6 -0.3
v 0 0.7 -0.3
v 0.1 0.5 -0.3
v 0.1 0.6 -0.3
v 0.1 0.7 -0.3
v -0.2 0.5 -7.45058e-09
v 0 0.5 -7.45058e-09
v 0.1 0.5 -7.45058e-09
v -0.2 0.5 -0.1
v -0.1 0.5 -0.1
v 0 0.5 -0.1
v 0.1 0.5 -0.1
v -0.2 0.5 -0.2
v -0.1 0.5 -0.2
v 0 0.5 -0.2
v 0.1 0.5 -0.2
v -0.2 0.5 -0.3
v 0.1 0.5 -0.3
v -0.2 0.6 -7.45058e-09
v -0.1 0.6 -7.45058e-09
v -0.2 0.6 -0.1
v -0.1 0.6 -0.1
v -0.2 0.6 -0.2
v -0.1 0.6 -0.2
v 0 0.6 -0.2
v -0.2 0.6 -0.3
v 0 0.6 -0.3
v -0.1 0.7 -7.45058e-09
v 0 0.7 -7.45058e-09
v -0.2 0.7 -0.1
v -0.1 0.7 -0.1
v 0 0.7 -0.1
v -0.2 0.7 -0.2
v -0.1 0.7 -0.2
v 0 0.7 -0.2
v 0.1 0.7 -0.2
v 0 0.7 -0.3
v 0.1 0.7 -0.3
v 0 0.8 -7.45058e-09
v 0.1 0.8 -7.45058e-09
v 0 0.8 -0.2
v 0.1 0.8 -0.2

# faces
f 5/2/1 2/2/1 1/2/1
f 6/1/1 3/1/1 2/1/1
f 6/2/1 2/2/1 5/2/1
f 7/2/1 4/2/1 3/2/1
f 7/1/1 3/1/1 6/1/1
f 8/2/1 4/2/1 7/2/1
f 9/2/1 7/2/1 6/2/1
f 10/2/1 7/2/1 9/2/1
f 13/3/1 12/3/1 11/3/1
f 14/3/1 12/3/1 13/3/1
f 19/3/1 16/3/1 15/3/1
f 20/3/1 16/3/1 19/3/1
f 21/3/1 18/3/1 17/3/1
f 21/3/1 19/3/1 18/3/1
f 22/3/1 19/3/1 21/3/1
f 23/3/2 24/3/2 27/3/2
f 24/5/2 25/5/2 28/5/2
f 27/3/2 24/3/2 28/3/2
f 25/2/2 26/2/2 29/2/2
f 28/5/2 25/5/2 29/5/2
f 29/2/2 26/2/2 30/2/2
f 27/4/2 28/4/2 31/4/2
f 28/3/2 29/3/2 32/3/2
f 31/4/2 28/4/2 32/4/2
f 29/3/2 30/3/2 32/3/2
f 32/3/2 30/3/2 33/3/2
f 33/3/2 30/3/2 34/3/2
f 31/3/2 32/3/2 35/3/2
f 32/3/2 33/3/2 35/3/2
f 35/3/2 33/3/2 36/3/2
f 39/2/3 38/2/3 37/2/3
f 41/2/3 39/2/3 37/2/3
f 42/3/3 40/3/3 39/3/3
f 42/2/3 39/2/3 41/2/3
f 43/3/3 40/3/3 42/3/3
f 45/3/3 42/3/3 41/3/3
f 46/4/3 43/4/3 42/4/3
f 46/3/3 42/3/3 45/3/3
f 47/3/3 44/3/3 43/3/3
f 47/4/3 43/4/3 46/4/3
f 48/3/3 44/3/3 47/3/3
f 51/2/3 50/2/3 49/2/3
f 52/2/3 50/2/3 51/2/3
f 53/2/4 54/2/4 55/2/4
f 55/2/4 54/2/4 56/2/4
f 55/4/4 56/4/4 57/4/4
f 57/4/4 56/4/4 58/4/4
f 58/3/4 59/3/4 60/3/4
f 60/3/4 59/3/4 61/3/4
f 62/2/4 63/2/4 64/2/4
f 62/2/4 64/2/4 66/2/4
f 64/3/4 65/3/4 67/3/4
f 66/2/4 64/2/4 67/2/4
f 67/3/4 65/3/4 68/3/4
f 72/2/5 70/2/5 69/2/5
f 73/2/5 70/2/5 72/2/5
f 74/3/5 71/3/5 70/3/5
f 74/2/5 70/2/5 73/2/5
f 75/3/5 71/3/5 74/3/5
f 76/1/5 73/1/5 72/1/5
f 77/4/5 74/4/5 73/4/5
f 77/1/5 73/1/5 76/1/5
f 78/5/5 75/5/5 74/5/5
f 78/4/5 74/4/5 77/4/5
f 79/5/5 75/5/5 78/5/5
f 80/2/5 77/2/5 76/2/5
f 80/2/5 78/2/5 77/2/5
f 80/2/5 79/2/5 78/2/5
f 81/2/5 79/2/5 80/2/5
f 82/2/6 83/2/6 84/2/6
f 84/2/6 83/2/6 85/2/6
f 86/2/6 87/2/6 89/2/6
f 87/2/6 88/2/6 89/2/6
f 89/2/6 88/2/6 90/2/6
f 91/3/6 92/3/6 94/3/6
f 94/3/6 92/3/6 95/3/6
f 93/2/6 94/2/6 96/2/6
f 94/4/6 95/4/6 97/4/6
f 96/2/6 94/2/6 97/2/6
f 97/4/6 95/4/6 98/4/6
f 98/3/6 99/3/6 100/3/6
f 100/3/6 99/3/6 101/3/6
f 102/3/6 103/3/6 104/3/6
f 104/3/6 103/3/6 105/3/6
