# MagicaVoxel @ Ephtracy

# group
o flames

# material
mtllib wall_torch-11-flames.mtl
usemtl palette

# normals
vn -1 0 0
vn 1 0 0
vn 0 0 1
vn 0 0 -1
vn 0 -1 0
vn 0 1 0

# texcoords
vt 0.978516 0.5
vt 0.982422 0.5
vt 0.986328 0.5
vt 0.990234 0.5
vt 0.994141 0.5

# verts
v -0.2 0.5 -7.45058e-09
v -0.2 0.5 -0.1
v -0.2 0.5 -0.2
v -0.2 0.5 -0.3
v -0.2 0.6 -7.45058e-09
v -0.2 0.6 -0.1
v -0.2 0.6 -0.2
v -0.2 0.6 -0.3
v -0.2 0.7 -0.1
v -0.2 0.7 -0.2
v -0.2 0.8 -0.2
v -0.2 0.8 -0.3
v -0.2 0.9 -0.2
v -0.2 0.9 -0.3
v -0.1 0.6 -7.45058e-09
v -0.1 0.6 -0.1
v -0.1 0.7 -7.45058e-09
v -0.1 0.7 -0.1
v 0 0.6 -0.2
v 0 0.6 -0.3
v 0 0.7 -0.2
v 0 0.7 -0.3
v -0.1 0.8 -0.2
v -0.1 0.8 -0.3
v -0.1 0.9 -0.2
v -0.1 0.9 -0.3
v 0 0.6 -7.45058e-09
v 0 0.6 -0.1
v 0 0.7 -7.45058e-09
v 0 0.7 -0.1
v 0.1 0.5 -7.45058e-09
v 0.1 0.5 -0.1
v 0.1 0.5 -0.2
v 0.1 0.5 -0.3
v 0.1 0.6 -7.45058e-09
v 0.1 0.6 -0.1
v 0.1 0.6 -0.2
v 0.1 0.6 -0.3
v 0.1 0.7 -0.1
v 0.1 0.7 -0.2
v 0.1 0.7 -0.3
v -0.2 0.5 -7.45058e-09
v -0.2 0.6 -7.45058e-09
v -0.1 0.5 -7.45058e-09
v -0.1 0.6 -7.45058e-09
v -0.1 0.7 -7.45058e-09
v 0 0.5 -7.45058e-09
v 0 0.6 -7.45058e-09
v 0 0.7 -7.45058e-09
v 0.1 0.5 -7.45058e-09
v 0.1 0.6 -7.45058e-09
v -0.2 0.6 -0.1
v -0.2 0.7 -0.1
v -0.1 0.6 -0.1
v -0.1 0.7 -0.1
v 0 0.6 -0.1
v 0 0.7 -0.1
v 0.1 0.6 -0.1
v 0.1 0.7 -0.1
v -0.2 0.8 -0.2
v -0.2 0.9 -0.2
v -0.1 0.8 -0.2
v -0.1 0.9 -0.2
v -0.2 0.6 -0.2
v -0.2 0.7 -0.2
v -0.1 0.6 -0.2
v -0.1 0.7 -0.2
v 0 0.6 -0.2
v 0 0.7 -0.2
v -0.2 0.5 -0.3
v -0.2 0.6 -0.3
v -0.2 0.8 -0.3
v -0.2 0.9 -0.3
v -0.1 0.5 -0.3
v -0.1 0.6 -0.3
v -0.1 0.8 -0.3
v -0.1 0.9 -0.3
v 0 0.5 -0.3
v 0 0.6 -0.3
v 0 0.7 -0.3
v 0.1 0.5 -0.3
v 0.1 0.6 -0.3
v 0.1 0.7 -0.3
v -0.2 0.5 -7.45058e-09
v -0.1 0.5 -7.45058e-09
v 0 0.5 -7.45058e-09
v 0.1 0.5 -7.45058e-09
v -0.2 0.5 -0.1
v -0.1 0.5 -0.1
v 0 0.5 -0.1
v 0.1 0.5 -0.1
v -0.2 0.5 -0.2
v -0.1 0.5 -0.2
v 0 0.5 -0.2
v 0.1 0.5 -0.2
v -0.2 0.5 -0.3
v -0.1 0.5 -0.3
v 0 0.5 -0.3
v 0.1 0.5 -0.3
v -0.2 0.8 -0.2
v -0.1 0.8 -0.2
v -0.2 0.8 -0.3
v -0.1 0.8 -0.3
v -0.2 0.6 -7.45058e-09
v -0.1 0.6 -7.45058e-09
v 0 0.6 -7.45058e-09
v 0.1 0.6 -7.45058e-09
v -0.2 0.6 -0.1
v -0.1 0.6 -0.1
v 0 0.6 -0.1
v 0.1 0.6 -0.1
v -0.2 0.6 -0.2
v -0.1 0.6 -0.2
v 0 0.6 -0.2
v -0.2 0.6 -0.3
v -0.1 0.6 -0.3
v 0 0.6 -0.3
v -0.1 0.7 -7.45058e-09
v 0 0.7 -7.45058e-09
v -0.2 0.7 -0.1
v -0.1 0.7 -0.1
v 0 0.7 -0.1
v 0.1 0.7 -0.1
v -0.2 0.7 -0.2
v -0.1 0.7 -0.2
v 0 0.7 -0.2
v 0.1 0.7 -0.2
v 0 0.7 -0.3
v 0.1 0.7 -0.3
v -0.2 0.9 -0.2
v -0.1 0.9 -0.2
v -0.2 0.9 -0.3
v -0.1 0.9 -0.3

# faces
f 5/1/1 2/1/1 1/1/1
f 6/2/1 3/2/1 2/2/1
f 6/1/1 2/1/1 5/1/1
f 7/1/1 4/1/1 3/1/1
f 7/2/1 3/2/1 6/2/1
f 8/1/1 4/1/1 7/1/1
f 9/3/1 7/3/1 6/3/1
f 10/3/1 7/3/1 9/3/1
f 13/1/1 12/1/1 11/1/1
f 14/1/1 12/1/1 13/1/1
f 17/3/1 16/3/1 15/3/1
f 18/3/1 16/3/1 17/3/1
f 21/4/1 20/4/1 19/4/1
f 22/4/1 20/4/1 21/4/1
f 23/1/2 24/1/2 25/1/2
f 25/1/2 24/1/2 26/1/2
f 27/3/2 28/3/2 29/3/2
f 29/3/2 28/3/2 30/3/2
f 31/4/2 32/4/2 35/4/2
f 32/3/2 33/3/2 36/3/2
f 35/4/2 32/4/2 36/4/2
f 33/1/2 34/1/2 37/1/2
f 36/3/2 33/3/2 37/3/2
f 37/1/2 34/1/2 38/1/2
f 36/3/2 37/3/2 39/3/2
f 37/4/2 38/4/2 40/4/2
f 39/3/2 37/3/2 40/3/2
f 40/4/2 38/4/2 41/4/2
f 44/1/3 43/1/3 42/1/3
f 45/1/3 43/1/3 44/1/3
f 47/3/3 45/3/3 44/3/3
f 47/3/3 46/3/3 45/3/3
f 48/3/3 46/3/3 47/3/3
f 49/3/3 46/3/3 48/3/3
f 50/4/3 48/4/3 47/4/3
f 51/4/3 48/4/3 50/4/3
f 54/3/3 53/3/3 52/3/3
f 55/3/3 53/3/3 54/3/3
f 58/3/3 57/3/3 56/3/3
f 59/3/3 57/3/3 58/3/3
f 62/1/3 61/1/3 60/1/3
f 63/1/3 61/1/3 62/1/3
f 64/3/4 65/3/4 66/3/4
f 66/3/4 65/3/4 67/3/4
f 66/5/4 67/5/4 68/5/4
f 68/5/4 67/5/4 69/5/4
f 70/1/4 71/1/4 74/1/4
f 74/1/4 71/1/4 75/1/4
f 72/1/4 73/1/4 76/1/4
f 76/1/4 73/1/4 77/1/4
f 74/4/4 75/4/4 78/4/4
f 78/4/4 75/4/4 79/4/4
f 78/1/4 79/1/4 81/1/4
f 79/4/4 80/4/4 82/4/4
f 81/1/4 79/1/4 82/1/4
f 82/4/4 80/4/4 83/4/4
f 88/1/5 85/1/5 84/1/5
f 89/3/5 86/3/5 85/3/5
f 89/1/5 85/1/5 88/1/5
f 90/4/5 87/4/5 86/4/5
f 90/3/5 86/3/5 89/3/5
f 91/4/5 87/4/5 90/4/5
f 92/2/5 89/2/5 88/2/5
f 92/2/5 90/2/5 89/2/5
f 93/2/5 90/2/5 92/2/5
f 94/3/5 91/3/5 90/3/5
f 94/2/5 90/2/5 93/2/5
f 95/3/5 91/3/5 94/3/5
f 96/1/5 93/1/5 92/1/5
f 97/4/5 94/4/5 93/4/5
f 97/1/5 93/1/5 96/1/5
f 98/1/5 95/1/5 94/1/5
f 98/4/5 94/4/5 97/4/5
f 99/1/5 95/1/5 98/1/5
f 102/1/5 101/1/5 100/1/5
f 103/1/5 101/1/5 102/1/5
f 104/1/6 105/1/6 108/1/6
f 108/1/6 105/1/6 109/1/6
f 106/4/6 107/4/6 110/4/6
f 110/4/6 107/4/6 111/4/6
f 112/1/6 113/1/6 115/1/6
f 113/4/6 114/4/6 116/4/6
f 115/1/6 113/1/6 116/1/6
f 116/4/6 114/4/6 117/4/6
f 118/3/6 119/3/6 121/3/6
f 121/3/6 119/3/6 122/3/6
f 120/3/6 121/3/6 124/3/6
f 121/5/6 122/5/6 125/5/6
f 124/3/6 121/3/6 125/3/6
f 122/3/6 123/3/6 126/3/6
f 125/5/6 122/5/6 126/5/6
f 126/3/6 123/3/6 127/3/6
f 126/4/6 127/4/6 128/4/6
f 128/4/6 127/4/6 129/4/6
f 130/1/6 131/1/6 132/1/6
f 132/1/6 131/1/6 133/1/6
