# MagicaVoxel @ Ephtracy

# group
o flames

# material
mtllib wall_torch-7-flames.mtl
usemtl palette

# normals
vn -1 0 0
vn 1 0 0
vn 0 0 1
vn 0 0 -1
vn 0 -1 0
vn 0 1 0

# texcoords
vt 0.978516 0.5
vt 0.982422 0.5
vt 0.986328 0.5
vt 0.990234 0.5
vt 0.994141 0.5

# verts
v -0.2 0.5 -7.45058e-09
v -0.2 0.5 -0.1
v -0.2 0.5 -0.2
v -0.2 0.5 -0.3
v -0.2 0.6 -7.45058e-09
v -0.2 0.6 -0.1
v -0.2 0.6 -0.2
v -0.2 0.6 -0.3
v -0.2 0.7 -0.1
v -0.2 0.7 -0.2
v -0.1 0.6 -0.2
v -0.1 0.6 -0.3
v -0.1 0.7 -0.2
v -0.1 0.7 -0.3
v 0 0.6 -7.45058e-09
v 0 0.6 -0.1
v 0 0.7 -7.45058e-09
v 0 0.7 -0.1
v 0 0.7 -0.2
v 0 0.8 -0.1
v 0 0.8 -0.2
v 0.1 0.5 -7.45058e-09
v 0.1 0.5 -0.1
v 0.1 0.5 -0.2
v 0.1 0.5 -0.3
v 0.1 0.6 -7.45058e-09
v 0.1 0.6 -0.1
v 0.1 0.6 -0.2
v 0.1 0.6 -0.3
v 0.1 0.7 -7.45058e-09
v 0.1 0.7 -0.1
v 0.1 0.7 -0.2
v 0.1 0.7 -0.3
v 0.1 0.8 -0.1
v 0.1 0.8 -0.2
v -0.2 0.5 -7.45058e-09
v -0.2 0.6 -7.45058e-09
v 0 0.5 -7.45058e-09
v 0 0.6 -7.45058e-09
v 0 0.7 -7.45058e-09
v 0.1 0.5 -7.45058e-09
v 0.1 0.6 -7.45058e-09
v 0.1 0.7 -7.45058e-09
v -0.2 0.6 -0.1
v -0.2 0.7 -0.1
v 0 0.6 -0.1
v 0 0.7 -0.1
v 0 0.8 -0.1
v 0.1 0.7 -0.1
v 0.1 0.8 -0.1
v -0.2 0.6 -0.2
v -0.2 0.7 -0.2
v -0.1 0.6 -0.2
v -0.1 0.7 -0.2
v 0 0.7 -0.2
v 0 0.8 -0.2
v 0.1 0.7 -0.2
v 0.1 0.8 -0.2
v -0.2 0.5 -0.3
v -0.2 0.6 -0.3
v -0.1 0.6 -0.3
v -0.1 0.7 -0.3
v 0 0.6 -0.3
v 0 0.7 -0.3
v 0.1 0.5 -0.3
v 0.1 0.6 -0.3
v 0.1 0.7 -0.3
v -0.2 0.5 -7.45058e-09
v 0 0.5 -7.45058e-09
v 0.1 0.5 -7.45058e-09
v -0.2 0.5 -0.1
v -0.1 0.5 -0.1
v 0 0.5 -0.1
v 0.1 0.5 -0.1
v -0.2 0.5 -0.2
v -0.1 0.5 -0.2
v 0 0.5 -0.2
v 0.1 0.5 -0.2
v -0.2 0.5 -0.3
v 0.1 0.5 -0.3
v -0.2 0.6 -7.45058e-09
v 0 0.6 -7.45058e-09
v -0.2 0.6 -0.1
v 0 0.6 -0.1
v -0.2 0.6 -0.2
v -0.1 0.6 -0.2
v -0.2 0.6 -0.3
v -0.1 0.6 -0.3
v 0 0.7 -7.45058e-09
v 0.1 0.7 -7.45058e-09
v -0.2 0.7 -0.1
v 0 0.7 -0.1
v 0.1 0.7 -0.1
v -0.2 0.7 -0.2
v -0.1 0.7 -0.2
v 0 0.7 -0.2
v 0.1 0.7 -0.2
v -0.1 0.7 -0.3
v 0 0.7 -0.3
v 0.1 0.7 -0.3
v 0 0.8 -0.1
v 0.1 0.8 -0.1
v 0 0.8 -0.2
v 0.1 0.8 -0.2

# faces
f 5/2/1 2/2/1 1/2/1
f 6/1/1 3/1/1 2/1/1
f 6/2/1 2/2/1 5/2/1
f 7/2/1 4/2/1 3/2/1
f 7/1/1 3/1/1 6/1/1
f 8/2/1 4/2/1 7/2/1
f 9/3/1 7/3/1 6/3/1
f 10/3/1 7/3/1 9/3/1
f 13/4/1 12/4/1 11/4/1
f 14/4/1 12/4/1 13/4/1
f 17/4/1 16/4/1 15/4/1
f 18/4/1 16/4/1 17/4/1
f 20/3/1 19/3/1 18/3/1
f 21/3/1 19/3/1 20/3/1
f 22/3/2 23/3/2 26/3/2
f 23/5/2 24/5/2 27/5/2
f 26/3/2 23/3/2 27/3/2
f 24/2/2 25/2/2 28/2/2
f 27/5/2 24/5/2 28/5/2
f 28/2/2 25/2/2 29/2/2
f 26/4/2 27/4/2 30/4/2
f 27/3/2 28/3/2 31/3/2
f 30/4/2 27/4/2 31/4/2
f 28/3/2 29/3/2 31/3/2
f 31/3/2 29/3/2 32/3/2
f 32/3/2 29/3/2 33/3/2
f 31/3/2 32/3/2 34/3/2
f 34/3/2 32/3/2 35/3/2
f 38/2/3 37/2/3 36/2/3
f 39/2/3 37/2/3 38/2/3
f 41/3/3 39/3/3 38/3/3
f 42/4/3 40/4/3 39/4/3
f 42/3/3 39/3/3 41/3/3
f 43/4/3 40/4/3 42/4/3
f 46/3/3 45/3/3 44/3/3
f 47/3/3 45/3/3 46/3/3
f 49/3/3 48/3/3 47/3/3
f 50/3/3 48/3/3 49/3/3
f 51/3/4 52/3/4 53/3/4
f 53/3/4 52/3/4 54/3/4
f 55/3/4 56/3/4 57/3/4
f 57/3/4 56/3/4 58/3/4
f 59/2/4 60/2/4 61/2/4
f 59/2/4 61/2/4 63/2/4
f 61/4/4 62/4/4 63/4/4
f 63/4/4 62/4/4 64/4/4
f 59/2/4 63/2/4 65/2/4
f 63/3/4 64/3/4 66/3/4
f 65/2/4 63/2/4 66/2/4
f 66/3/4 64/3/4 67/3/4
f 71/2/5 69/2/5 68/2/5
f 72/2/5 69/2/5 71/2/5
f 73/3/5 70/3/5 69/3/5
f 73/2/5 69/2/5 72/2/5
f 74/3/5 70/3/5 73/3/5
f 75/1/5 72/1/5 71/1/5
f 76/4/5 73/4/5 72/4/5
f 76/1/5 72/1/5 75/1/5
f 77/5/5 74/5/5 73/5/5
f 77/4/5 73/4/5 76/4/5
f 78/5/5 74/5/5 77/5/5
f 79/2/5 76/2/5 75/2/5
f 79/2/5 77/2/5 76/2/5
f 79/2/5 78/2/5 77/2/5
f 80/2/5 78/2/5 79/2/5
f 81/2/6 82/2/6 83/2/6
f 83/2/6 82/2/6 84/2/6
f 85/2/6 86/2/6 87/2/6
f 87/2/6 86/2/6 88/2/6
f 89/4/6 90/4/6 92/4/6
f 92/4/6 90/4/6 93/4/6
f 91/3/6 92/3/6 94/3/6
f 94/3/6 92/3/6 95/3/6
f 95/3/6 92/3/6 96/3/6
f 95/4/6 96/4/6 98/4/6
f 96/3/6 97/3/6 99/3/6
f 98/4/6 96/4/6 99/4/6
f 99/3/6 97/3/6 100/3/6
f 101/3/6 102/3/6 103/3/6
f 103/3/6 102/3/6 104/3/6
