# MagicaVoxel @ Ephtracy

# group
o flames

# material
mtllib wall_torch-3-flames.mtl
usemtl palette

# normals
vn -1 0 0
vn 1 0 0
vn 0 0 1
vn 0 0 -1
vn 0 -1 0
vn 0 1 0

# texcoords
vt 0.978516 0.5
vt 0.982422 0.5
vt 0.986328 0.5
vt 0.990234 0.5

# verts
v -0.2 0.5 -7.45058e-09
v -0.2 0.5 -0.1
v -0.2 0.5 -0.2
v -0.2 0.5 -0.3
v -0.2 0.6 -7.45058e-09
v -0.2 0.6 -0.1
v -0.2 0.6 -0.2
v -0.2 0.6 -0.3
v -0.2 0.7 -0.1
v -0.2 0.7 -0.2
v -0.2 0.7 -0.3
v -0.1 0.6 -7.45058e-09
v -0.1 0.6 -0.1
v -0.1 0.7 -7.45058e-09
v -0.1 0.7 -0.1
v -0.1 0.7 -0.2
v -0.1 0.8 -0.1
v -0.1 0.8 -0.2
v 0 0.6 -7.45058e-09
v 0 0.6 -0.1
v 0 0.7 -7.45058e-09
v 0 0.7 -0.1
v 0 0.7 -0.2
v 0 0.8 -0.1
v 0 0.8 -0.2
v 0.1 0.5 -7.45058e-09
v 0.1 0.5 -0.1
v 0.1 0.5 -0.2
v 0.1 0.5 -0.3
v 0.1 0.6 -7.45058e-09
v 0.1 0.6 -0.1
v 0.1 0.6 -0.2
v 0.1 0.6 -0.3
v 0.1 0.7 -0.1
v 0.1 0.7 -0.2
v 0.1 0.7 -0.3
v -0.2 0.5 -7.45058e-09
v -0.2 0.6 -7.45058e-09
v -0.1 0.5 -7.45058e-09
v -0.1 0.6 -7.45058e-09
v -0.1 0.7 -7.45058e-09
v 0 0.6 -7.45058e-09
v 0 0.7 -7.45058e-09
v 0.1 0.5 -7.45058e-09
v 0.1 0.6 -7.45058e-09
v -0.2 0.6 -0.1
v -0.2 0.7 -0.1
v -0.1 0.6 -0.1
v -0.1 0.7 -0.1
v -0.1 0.8 -0.1
v 0 0.6 -0.1
v 0 0.7 -0.1
v 0 0.8 -0.1
v 0.1 0.6 -0.1
v 0.1 0.7 -0.1
v -0.1 0.7 -0.2
v -0.1 0.8 -0.2
v 0 0.7 -0.2
v 0 0.8 -0.2
v -0.2 0.5 -0.3
v -0.2 0.6 -0.3
v -0.2 0.7 -0.3
v -0.1 0.6 -0.3
v -0.1 0.7 -0.3
v 0 0.5 -0.3
v 0 0.6 -0.3
v 0 0.7 -0.3
v 0.1 0.5 -0.3
v 0.1 0.6 -0.3
v 0.1 0.7 -0.3
v -0.2 0.5 -7.45058e-09
v -0.1 0.5 -7.45058e-09
v 0.1 0.5 -7.45058e-09
v -0.2 0.5 -0.1
v -0.1 0.5 -0.1
v 0.1 0.5 -0.1
v -0.2 0.5 -0.2
v -0.1 0.5 -0.2
v 0 0.5 -0.2
v 0.1 0.5 -0.2
v -0.2 0.5 -0.3
v 0 0.5 -0.3
v 0.1 0.5 -0.3
v -0.2 0.6 -7.45058e-09
v -0.1 0.6 -7.45058e-09
v 0 0.6 -7.45058e-09
v 0.1 0.6 -7.45058e-09
v -0.2 0.6 -0.1
v -0.1 0.6 -0.1
v 0 0.6 -0.1
v 0.1 0.6 -0.1
v -0.1 0.7 -7.45058e-09
v 0 0.7 -7.45058e-09
v -0.2 0.7 -0.1
v -0.1 0.7 -0.1
v 0 0.7 -0.1
v 0.1 0.7 -0.1
v -0.2 0.7 -0.2
v -0.1 0.7 -0.2
v 0 0.7 -0.2
v 0.1 0.7 -0.2
v -0.2 0.7 -0.3
v -0.1 0.7 -0.3
v 0 0.7 -0.3
v 0.1 0.7 -0.3
v -0.1 0.8 -0.1
v 0 0.8 -0.1
v -0.1 0.8 -0.2
v 0 0.8 -0.2

# faces
f 5/1/1 2/1/1 1/1/1
f 6/2/1 3/2/1 2/2/1
f 6/1/1 2/1/1 5/1/1
f 7/3/1 4/3/1 3/3/1
f 7/2/1 3/2/1 6/2/1
f 8/3/1 4/3/1 7/3/1
f 9/3/1 7/3/1 6/3/1
f 10/1/1 8/1/1 7/1/1
f 10/3/1 7/3/1 9/3/1
f 11/1/1 8/1/1 10/1/1
f 14/4/1 13/4/1 12/4/1
f 15/4/1 13/4/1 14/4/1
f 17/4/1 16/4/1 15/4/1
f 18/4/1 16/4/1 17/4/1
f 19/4/2 20/4/2 21/4/2
f 21/4/2 20/4/2 22/4/2
f 22/4/2 23/4/2 24/4/2
f 24/4/2 23/4/2 25/4/2
f 26/2/2 27/2/2 30/2/2
f 27/1/2 28/1/2 31/1/2
f 30/2/2 27/2/2 31/2/2
f 28/2/2 29/2/2 32/2/2
f 31/1/2 28/1/2 32/1/2
f 32/2/2 29/2/2 33/2/2
f 31/3/2 32/3/2 34/3/2
f 32/4/2 33/4/2 35/4/2
f 34/3/2 32/3/2 35/3/2
f 35/4/2 33/4/2 36/4/2
f 39/1/3 38/1/3 37/1/3
f 40/1/3 38/1/3 39/1/3
f 42/2/3 40/2/3 39/2/3
f 42/4/3 41/4/3 40/4/3
f 43/4/3 41/4/3 42/4/3
f 44/2/3 42/2/3 39/2/3
f 45/2/3 42/2/3 44/2/3
f 48/3/3 47/3/3 46/3/3
f 49/3/3 47/3/3 48/3/3
f 52/4/3 50/4/3 49/4/3
f 53/4/3 50/4/3 52/4/3
f 54/3/3 52/3/3 51/3/3
f 55/3/3 52/3/3 54/3/3
f 56/4/4 57/4/4 58/4/4
f 58/4/4 57/4/4 59/4/4
f 60/3/4 61/3/4 63/3/4
f 61/1/4 62/1/4 63/1/4
f 63/1/4 62/1/4 64/1/4
f 60/3/4 63/3/4 65/3/4
f 63/3/4 64/3/4 65/3/4
f 65/3/4 64/3/4 66/3/4
f 66/3/4 64/3/4 67/3/4
f 65/2/4 66/2/4 68/2/4
f 66/4/4 67/4/4 69/4/4
f 68/2/4 66/2/4 69/2/4
f 69/4/4 67/4/4 70/4/4
f 74/1/5 72/1/5 71/1/5
f 75/2/5 73/2/5 72/2/5
f 75/1/5 72/1/5 74/1/5
f 76/2/5 73/2/5 75/2/5
f 77/2/5 75/2/5 74/2/5
f 78/1/5 76/1/5 75/1/5
f 78/2/5 75/2/5 77/2/5
f 79/1/5 76/1/5 78/1/5
f 80/1/5 76/1/5 79/1/5
f 81/3/5 78/3/5 77/3/5
f 81/3/5 79/3/5 78/3/5
f 82/2/5 80/2/5 79/2/5
f 82/3/5 79/3/5 81/3/5
f 83/2/5 80/2/5 82/2/5
f 84/1/6 85/1/6 88/1/6
f 88/1/6 85/1/6 89/1/6
f 86/2/6 87/2/6 90/2/6
f 90/2/6 87/2/6 91/2/6
f 92/4/6 93/4/6 95/4/6
f 95/4/6 93/4/6 96/4/6
f 94/3/6 95/3/6 98/3/6
f 98/3/6 95/3/6 99/3/6
f 96/3/6 97/3/6 100/3/6
f 100/3/6 97/3/6 101/3/6
f 98/1/6 99/1/6 102/1/6
f 99/3/6 100/3/6 103/3/6
f 102/1/6 99/1/6 103/1/6
f 100/4/6 101/4/6 104/4/6
f 103/3/6 100/3/6 104/3/6
f 104/4/6 101/4/6 105/4/6
f 106/4/6 107/4/6 108/4/6
f 108/4/6 107/4/6 109/4/6
