# MagicaVoxel @ Ephtracy

# group
o flames

# material
mtllib wall_torch-5-flames.mtl
usemtl palette

# normals
vn -1 0 0
vn 1 0 0
vn 0 0 1
vn 0 0 -1
vn 0 -1 0
vn 0 1 0

# texcoords
vt 0.978516 0.5
vt 0.982422 0.5
vt 0.986328 0.5
vt 0.990234 0.5

# verts
v -0.2 0.5 -7.45058e-09
v -0.2 0.5 -0.1
v -0.2 0.5 -0.2
v -0.2 0.5 -0.3
v -0.2 0.6 -7.45058e-09
v -0.2 0.6 -0.1
v -0.2 0.6 -0.2
v -0.2 0.6 -0.3
v -0.2 0.7 -0.1
v -0.2 0.7 -0.2
v -0.2 0.7 -0.3
v -0.2 0.8 -0.2
v -0.2 0.8 -0.3
v -0.2 0.9 -0.2
v -0.2 0.9 -0.3
v -0.1 0.6 -7.45058e-09
v -0.1 0.6 -0.1
v -0.1 0.7 -7.45058e-09
v -0.1 0.7 -0.1
v 0 0.6 -0.1
v 0 0.6 -0.2
v 0 0.7 -0.1
v 0 0.7 -0.2
v -0.1 0.6 -0.1
v -0.1 0.6 -0.2
v -0.1 0.7 -0.1
v -0.1 0.7 -0.2
v -0.1 0.7 -0.3
v -0.1 0.8 -0.2
v -0.1 0.8 -0.3
v -0.1 0.9 -0.2
v -0.1 0.9 -0.3
v 0 0.6 -7.45058e-09
v 0 0.6 -0.1
v 0 0.6 -0.2
v 0 0.6 -0.3
v 0 0.7 -7.45058e-09
v 0 0.7 -0.1
v 0 0.7 -0.2
v 0 0.7 -0.3
v 0.1 0.5 -7.45058e-09
v 0.1 0.5 -0.1
v 0.1 0.5 -0.2
v 0.1 0.5 -0.3
v 0.1 0.6 -7.45058e-09
v 0.1 0.6 -0.1
v 0.1 0.6 -0.2
v 0.1 0.6 -0.3
v 0.1 0.7 -0.1
v 0.1 0.7 -0.2
v -0.2 0.5 -7.45058e-09
v -0.2 0.6 -7.45058e-09
v -0.1 0.6 -7.45058e-09
v -0.1 0.7 -7.45058e-09
v 0 0.5 -7.45058e-09
v 0 0.6 -7.45058e-09
v 0 0.7 -7.45058e-09
v 0.1 0.5 -7.45058e-09
v 0.1 0.6 -7.45058e-09
v -0.2 0.6 -0.1
v -0.2 0.7 -0.1
v -0.1 0.6 -0.1
v -0.1 0.7 -0.1
v 0 0.6 -0.1
v 0 0.7 -0.1
v 0.1 0.6 -0.1
v 0.1 0.7 -0.1
v -0.2 0.7 -0.2
v -0.2 0.8 -0.2
v -0.2 0.9 -0.2
v -0.1 0.6 -0.2
v -0.1 0.7 -0.2
v -0.1 0.8 -0.2
v -0.1 0.9 -0.2
v 0 0.6 -0.2
v 0 0.7 -0.2
v -0.1 0.6 -0.1
v -0.1 0.7 -0.1
v 0 0.6 -0.1
v 0 0.7 -0.1
v 0 0.6 -0.2
v 0 0.7 -0.2
v 0.1 0.6 -0.2
v 0.1 0.7 -0.2
v -0.2 0.5 -0.3
v -0.2 0.6 -0.3
v -0.2 0.7 -0.3
v -0.2 0.8 -0.3
v -0.2 0.9 -0.3
v -0.1 0.6 -0.3
v -0.1 0.7 -0.3
v -0.1 0.8 -0.3
v -0.1 0.9 -0.3
v 0 0.5 -0.3
v 0 0.6 -0.3
v 0 0.7 -0.3
v 0.1 0.5 -0.3
v 0.1 0.6 -0.3
v -0.2 0.5 -7.45058e-09
v 0 0.5 -7.45058e-09
v 0.1 0.5 -7.45058e-09
v -0.2 0.5 -0.1
v -0.1 0.5 -0.1
v 0 0.5 -0.1
v 0.1 0.5 -0.1
v -0.2 0.5 -0.2
v -0.1 0.5 -0.2
v 0 0.5 -0.2
v 0.1 0.5 -0.2
v -0.2 0.5 -0.3
v 0 0.5 -0.3
v 0.1 0.5 -0.3
v -0.2 0.6 -7.45058e-09
v -0.1 0.6 -7.45058e-09
v 0 0.6 -7.45058e-09
v 0.1 0.6 -7.45058e-09
v -0.2 0.6 -0.1
v -0.1 0.6 -0.1
v 0 0.6 -0.1
v 0.1 0.6 -0.1
v -0.1 0.6 -0.2
v 0 0.6 -0.2
v 0.1 0.6 -0.2
v 0 0.6 -0.3
v 0.1 0.6 -0.3
v -0.1 0.7 -7.45058e-09
v 0 0.7 -7.45058e-09
v -0.2 0.7 -0.1
v -0.1 0.7 -0.1
v 0 0.7 -0.1
v 0.1 0.7 -0.1
v -0.2 0.7 -0.2
v -0.1 0.7 -0.2
v 0 0.7 -0.2
v 0.1 0.7 -0.2
v -0.1 0.7 -0.3
v 0 0.7 -0.3
v -0.2 0.9 -0.2
v -0.1 0.9 -0.2
v -0.2 0.9 -0.3
v -0.1 0.9 -0.3

# faces
f 5/2/1 2/2/1 1/2/1
f 6/1/1 3/1/1 2/1/1
f 6/2/1 2/2/1 5/2/1
f 7/2/1 4/2/1 3/2/1
f 7/1/1 3/1/1 6/1/1
f 8/2/1 4/2/1 7/2/1
f 9/4/1 7/4/1 6/4/1
f 10/3/1 8/3/1 7/3/1
f 10/4/1 7/4/1 9/4/1
f 11/3/1 8/3/1 10/3/1
f 12/4/1 11/4/1 10/4/1
f 13/4/1 11/4/1 12/4/1
f 14/3/1 13/3/1 12/3/1
f 15/3/1 13/3/1 14/3/1
f 18/4/1 17/4/1 16/4/1
f 19/4/1 17/4/1 18/4/1
f 22/1/1 21/1/1 20/1/1
f 23/1/1 21/1/1 22/1/1
f 24/4/2 25/4/2 26/4/2
f 26/4/2 25/4/2 27/4/2
f 27/4/2 28/4/2 29/4/2
f 29/4/2 28/4/2 30/4/2
f 29/3/2 30/3/2 31/3/2
f 31/3/2 30/3/2 32/3/2
f 33/4/2 34/4/2 37/4/2
f 37/4/2 34/4/2 38/4/2
f 35/2/2 36/2/2 39/2/2
f 39/2/2 36/2/2 40/2/2
f 41/3/2 42/3/2 45/3/2
f 42/1/2 43/1/2 46/1/2
f 45/3/2 42/3/2 46/3/2
f 43/3/2 44/3/2 47/3/2
f 46/1/2 43/1/2 47/1/2
f 47/3/2 44/3/2 48/3/2
f 46/1/2 47/1/2 49/1/2
f 49/1/2 47/1/2 50/1/2
f 53/2/3 52/2/3 51/2/3
f 55/2/3 53/2/3 51/2/3
f 56/4/3 54/4/3 53/4/3
f 56/2/3 53/2/3 55/2/3
f 57/4/3 54/4/3 56/4/3
f 58/3/3 56/3/3 55/3/3
f 59/3/3 56/3/3 58/3/3
f 62/4/3 61/4/3 60/4/3
f 63/4/3 61/4/3 62/4/3
f 66/1/3 65/1/3 64/1/3
f 67/1/3 65/1/3 66/1/3
f 72/4/3 69/4/3 68/4/3
f 73/3/3 70/3/3 69/3/3
f 73/4/3 69/4/3 72/4/3
f 74/3/3 70/3/3 73/3/3
f 75/2/3 72/2/3 71/2/3
f 76/2/3 72/2/3 75/2/3
f 77/4/4 78/4/4 79/4/4
f 79/4/4 78/4/4 80/4/4
f 81/1/4 82/1/4 83/1/4
f 83/1/4 82/1/4 84/1/4
f 85/2/4 86/2/4 90/2/4
f 86/3/4 87/3/4 90/3/4
f 87/4/4 88/4/4 91/4/4
f 90/3/4 87/3/4 91/3/4
f 88/3/4 89/3/4 92/3/4
f 91/4/4 88/4/4 92/4/4
f 92/3/4 89/3/4 93/3/4
f 90/2/4 91/2/4 94/2/4
f 85/2/4 90/2/4 94/2/4
f 94/2/4 91/2/4 95/2/4
f 95/2/4 91/2/4 96/2/4
f 94/3/4 95/3/4 97/3/4
f 97/3/4 95/3/4 98/3/4
f 102/2/5 100/2/5 99/2/5
f 103/2/5 100/2/5 102/2/5
f 104/3/5 101/3/5 100/3/5
f 104/2/5 100/2/5 103/2/5
f 105/3/5 101/3/5 104/3/5
f 106/1/5 103/1/5 102/1/5
f 107/3/5 104/3/5 103/3/5
f 107/1/5 103/1/5 106/1/5
f 108/1/5 105/1/5 104/1/5
f 108/3/5 104/3/5 107/3/5
f 109/1/5 105/1/5 108/1/5
f 110/2/5 107/2/5 106/2/5
f 110/2/5 108/2/5 107/2/5
f 111/3/5 109/3/5 108/3/5
f 111/2/5 108/2/5 110/2/5
f 112/3/5 109/3/5 111/3/5
f 113/2/6 114/2/6 117/2/6
f 117/2/6 114/2/6 118/2/6
f 115/3/6 116/3/6 119/3/6
f 119/3/6 116/3/6 120/3/6
f 118/3/6 119/3/6 121/3/6
f 121/3/6 119/3/6 122/3/6
f 122/3/6 123/3/6 124/3/6
f 124/3/6 123/3/6 125/3/6
f 126/4/6 127/4/6 129/4/6
f 129/4/6 127/4/6 130/4/6
f 128/4/6 129/4/6 132/4/6
f 132/4/6 129/4/6 133/4/6
f 130/1/6 131/1/6 134/1/6
f 134/1/6 131/1/6 135/1/6
f 133/2/6 134/2/6 136/2/6
f 136/2/6 134/2/6 137/2/6
f 138/3/6 139/3/6 140/3/6
f 140/3/6 139/3/6 141/3/6
