# MagicaVoxel @ Ephtracy

# group
o flames

# material
mtllib wall_torch-10-flames.mtl
usemtl palette

# normals
vn -1 0 0
vn 1 0 0
vn 0 0 1
vn 0 0 -1
vn 0 -1 0
vn 0 1 0

# texcoords
vt 0.978516 0.5
vt 0.982422 0.5
vt 0.986328 0.5
vt 0.990234 0.5
vt 0.994141 0.5

# verts
v -0.2 0.5 -7.45058e-09
v -0.2 0.5 -0.1
v -0.2 0.5 -0.2
v -0.2 0.5 -0.3
v -0.2 0.6 -7.45058e-09
v -0.2 0.6 -0.1
v -0.2 0.6 -0.2
v -0.2 0.6 -0.3
v -0.2 0.7 -0.2
v -0.2 0.7 -0.3
v -0.2 0.8 -0.2
v -0.2 0.8 -0.3
v -0.2 0.9 -0.2
v -0.2 0.9 -0.3
v -0.1 0.6 -7.45058e-09
v -0.1 0.6 -0.1
v -0.1 0.6 -0.2
v -0.1 0.7 -7.45058e-09
v -0.1 0.7 -0.1
v -0.1 0.7 -0.2
v 0 0.8 -7.45058e-09
v 0 0.8 -0.1
v 0 0.9 -7.45058e-09
v 0 0.9 -0.1
v -0.1 0.7 -0.2
v -0.1 0.7 -0.3
v -0.1 0.8 -0.2
v -0.1 0.8 -0.3
v -0.1 0.9 -0.2
v -0.1 0.9 -0.3
v 0 0.6 -0.2
v 0 0.6 -0.3
v 0 0.7 -0.2
v 0 0.7 -0.3
v 0.1 0.5 -7.45058e-09
v 0.1 0.5 -0.1
v 0.1 0.5 -0.2
v 0.1 0.5 -0.3
v 0.1 0.6 -7.45058e-09
v 0.1 0.6 -0.1
v 0.1 0.6 -0.2
v 0.1 0.6 -0.3
v 0.1 0.7 -7.45058e-09
v 0.1 0.7 -0.1
v 0.1 0.7 -0.2
v 0.1 0.8 -7.45058e-09
v 0.1 0.8 -0.1
v 0.1 0.9 -7.45058e-09
v 0.1 0.9 -0.1
v -0.2 0.5 -7.45058e-09
v -0.2 0.6 -7.45058e-09
v -0.1 0.6 -7.45058e-09
v -0.1 0.7 -7.45058e-09
v 0 0.5 -7.45058e-09
v 0 0.6 -7.45058e-09
v 0 0.7 -7.45058e-09
v 0 0.8 -7.45058e-09
v 0 0.9 -7.45058e-09
v 0.1 0.5 -7.45058e-09
v 0.1 0.6 -7.45058e-09
v 0.1 0.7 -7.45058e-09
v 0.1 0.8 -7.45058e-09
v 0.1 0.9 -7.45058e-09
v -0.2 0.6 -0.2
v -0.2 0.7 -0.2
v -0.2 0.8 -0.2
v -0.2 0.9 -0.2
v -0.1 0.6 -0.2
v -0.1 0.7 -0.2
v -0.1 0.8 -0.2
v -0.1 0.9 -0.2
v 0 0.8 -0.1
v 0 0.9 -0.1
v 0.1 0.8 -0.1
v 0.1 0.9 -0.1
v 0 0.6 -0.2
v 0 0.7 -0.2
v 0.1 0.6 -0.2
v 0.1 0.7 -0.2
v -0.2 0.5 -0.3
v -0.2 0.6 -0.3
v -0.2 0.7 -0.3
v -0.2 0.8 -0.3
v -0.2 0.9 -0.3
v -0.1 0.6 -0.3
v -0.1 0.7 -0.3
v -0.1 0.8 -0.3
v -0.1 0.9 -0.3
v 0 0.6 -0.3
v 0 0.7 -0.3
v 0.1 0.5 -0.3
v 0.1 0.6 -0.3
v -0.2 0.5 -7.45058e-09
v 0 0.5 -7.45058e-09
v 0.1 0.5 -7.45058e-09
v -0.2 0.5 -0.1
v -0.1 0.5 -0.1
v 0 0.5 -0.1
v 0.1 0.5 -0.1
v -0.2 0.5 -0.2
v -0.1 0.5 -0.2
v 0 0.5 -0.2
v 0.1 0.5 -0.2
v -0.2 0.5 -0.3
v 0.1 0.5 -0.3
v 0 0.8 -7.45058e-09
v 0.1 0.8 -7.45058e-09
v 0 0.8 -0.1
v 0.1 0.8 -0.1
v -0.2 0.6 -7.45058e-09
v -0.1 0.6 -7.45058e-09
v -0.2 0.6 -0.1
v -0.1 0.6 -0.1
v -0.2 0.6 -0.2
v -0.1 0.6 -0.2
v 0 0.6 -0.2
v 0.1 0.6 -0.2
v 0 0.6 -0.3
v 0.1 0.6 -0.3
v -0.1 0.7 -7.45058e-09
v 0 0.7 -7.45058e-09
v 0.1 0.7 -7.45058e-09
v -0.1 0.7 -0.1
v 0 0.7 -0.1
v 0.1 0.7 -0.1
v -0.1 0.7 -0.2
v 0 0.7 -0.2
v 0.1 0.7 -0.2
v -0.1 0.7 -0.3
v 0 0.7 -0.3
v 0 0.9 -7.45058e-09
v 0.1 0.9 -7.45058e-09
v 0 0.9 -0.1
v 0.1 0.9 -0.1
v -0.2 0.9 -0.2
v -0.1 0.9 -0.2
v -0.2 0.9 -0.3
v -0.1 0.9 -0.3

# faces
f 5/2/1 2/2/1 1/2/1
f 6/1/1 3/1/1 2/1/1
f 6/2/1 2/2/1 5/2/1
f 7/2/1 4/2/1 3/2/1
f 7/1/1 3/1/1 6/1/1
f 8/2/1 4/2/1 7/2/1
f 9/3/1 8/3/1 7/3/1
f 10/3/1 8/3/1 9/3/1
f 11/4/1 10/4/1 9/4/1
f 12/4/1 10/4/1 11/4/1
f 13/2/1 12/2/1 11/2/1
f 14/2/1 12/2/1 13/2/1
f 18/3/1 16/3/1 15/3/1
f 19/2/1 17/2/1 16/2/1
f 19/3/1 16/3/1 18/3/1
f 20/2/1 17/2/1 19/2/1
f 23/3/1 22/3/1 21/3/1
f 24/3/1 22/3/1 23/3/1
f 25/4/2 26/4/2 27/4/2
f 27/4/2 26/4/2 28/4/2
f 27/2/2 28/2/2 29/2/2
f 29/2/2 28/2/2 30/2/2
f 31/5/2 32/5/2 33/5/2
f 33/5/2 32/5/2 34/5/2
f 35/3/2 36/3/2 39/3/2
f 36/5/2 37/5/2 40/5/2
f 39/3/2 36/3/2 40/3/2
f 37/2/2 38/2/2 41/2/2
f 40/5/2 37/5/2 41/5/2
f 41/2/2 38/2/2 42/2/2
f 39/4/2 40/4/2 43/4/2
f 40/3/2 41/3/2 44/3/2
f 43/4/2 40/4/2 44/4/2
f 44/3/2 41/3/2 45/3/2
f 46/3/2 47/3/2 48/3/2
f 48/3/2 47/3/2 49/3/2
f 52/2/3 51/2/3 50/2/3
f 54/2/3 52/2/3 50/2/3
f 55/3/3 53/3/3 52/3/3
f 55/2/3 52/2/3 54/2/3
f 56/3/3 53/3/3 55/3/3
f 59/3/3 55/3/3 54/3/3
f 60/4/3 56/4/3 55/4/3
f 60/3/3 55/3/3 59/3/3
f 61/4/3 56/4/3 60/4/3
f 62/3/3 58/3/3 57/3/3
f 63/3/3 58/3/3 62/3/3
f 68/3/3 65/3/3 64/3/3
f 69/4/3 66/4/3 65/4/3
f 69/3/3 65/3/3 68/3/3
f 70/2/3 67/2/3 66/2/3
f 70/4/3 66/4/3 69/4/3
f 71/2/3 67/2/3 70/2/3
f 72/3/4 73/3/4 74/3/4
f 74/3/4 73/3/4 75/3/4
f 76/3/4 77/3/4 78/3/4
f 78/3/4 77/3/4 79/3/4
f 80/2/4 81/2/4 85/2/4
f 81/3/4 82/3/4 85/3/4
f 82/4/4 83/4/4 86/4/4
f 85/3/4 82/3/4 86/3/4
f 83/2/4 84/2/4 87/2/4
f 86/4/4 83/4/4 87/4/4
f 87/2/4 84/2/4 88/2/4
f 85/5/4 86/5/4 89/5/4
f 80/2/4 85/2/4 89/2/4
f 89/5/4 86/5/4 90/5/4
f 80/2/4 89/2/4 91/2/4
f 91/2/4 89/2/4 92/2/4
f 96/2/5 94/2/5 93/2/5
f 97/2/5 94/2/5 96/2/5
f 98/3/5 95/3/5 94/3/5
f 98/2/5 94/2/5 97/2/5
f 99/3/5 95/3/5 98/3/5
f 100/1/5 97/1/5 96/1/5
f 101/4/5 98/4/5 97/4/5
f 101/1/5 97/1/5 100/1/5
f 102/5/5 99/5/5 98/5/5
f 102/4/5 98/4/5 101/4/5
f 103/5/5 99/5/5 102/5/5
f 104/2/5 101/2/5 100/2/5
f 104/2/5 102/2/5 101/2/5
f 104/2/5 103/2/5 102/2/5
f 105/2/5 103/2/5 104/2/5
f 108/3/5 107/3/5 106/3/5
f 109/3/5 107/3/5 108/3/5
f 110/2/6 111/2/6 112/2/6
f 112/2/6 111/2/6 113/2/6
f 112/1/6 113/1/6 114/1/6
f 114/1/6 113/1/6 115/1/6
f 116/2/6 117/2/6 118/2/6
f 118/2/6 117/2/6 119/2/6
f 120/3/6 121/3/6 123/3/6
f 121/4/6 122/4/6 124/4/6
f 123/3/6 121/3/6 124/3/6
f 124/4/6 122/4/6 125/4/6
f 123/2/6 124/2/6 126/2/6
f 124/3/6 125/3/6 127/3/6
f 126/2/6 124/2/6 127/2/6
f 127/3/6 125/3/6 128/3/6
f 126/5/6 127/5/6 129/5/6
f 129/5/6 127/5/6 130/5/6
f 131/3/6 132/3/6 133/3/6
f 133/3/6 132/3/6 134/3/6
f 135/2/6 136/2/6 137/2/6
f 137/2/6 136/2/6 138/2/6
