# MagicaVoxel @ Ephtracy

# group
o flames

# material
mtllib wall_torch-6-flames.mtl
usemtl palette

# normals
vn -1 0 0
vn 1 0 0
vn 0 0 1
vn 0 0 -1
vn 0 -1 0
vn 0 1 0

# texcoords
vt 0.978516 0.5
vt 0.982422 0.5
vt 0.986328 0.5

# verts
v -0.2 0.5 -7.45058e-09
v -0.2 0.5 -0.1
v -0.2 0.5 -0.2
v -0.2 0.5 -0.3
v -0.2 0.6 -7.45058e-09
v -0.2 0.6 -0.1
v -0.2 0.6 -0.2
v -0.2 0.6 -0.3
v -0.2 0.7 -7.45058e-09
v -0.2 0.7 -0.1
v -0.2 0.7 -0.2
v -0.2 0.8 -0.2
v -0.2 0.8 -0.3
v -0.2 0.9 -0.2
v -0.2 0.9 -0.3
v 0 0.6 -7.45058e-09
v 0 0.6 -0.1
v 0 0.7 -7.45058e-09
v 0 0.7 -0.1
v -0.1 0.6 -7.45058e-09
v -0.1 0.6 -0.1
v -0.1 0.7 -7.45058e-09
v -0.1 0.7 -0.1
v -0.1 0.8 -0.2
v -0.1 0.8 -0.3
v -0.1 0.9 -0.2
v -0.1 0.9 -0.3
v 0 0.6 -0.1
v 0 0.6 -0.2
v 0 0.7 -0.1
v 0 0.7 -0.2
v 0.1 0.5 -7.45058e-09
v 0.1 0.5 -0.1
v 0.1 0.5 -0.2
v 0.1 0.5 -0.3
v 0.1 0.6 -7.45058e-09
v 0.1 0.6 -0.1
v 0.1 0.6 -0.2
v 0.1 0.6 -0.3
v 0.1 0.7 -7.45058e-09
v 0.1 0.7 -0.1
v -0.2 0.5 -7.45058e-09
v -0.2 0.6 -7.45058e-09
v -0.2 0.7 -7.45058e-09
v -0.1 0.6 -7.45058e-09
v -0.1 0.7 -7.45058e-09
v 0 0.5 -7.45058e-09
v 0 0.6 -7.45058e-09
v 0 0.7 -7.45058e-09
v 0.1 0.5 -7.45058e-09
v 0.1 0.6 -7.45058e-09
v 0.1 0.7 -7.45058e-09
v -0.1 0.6 -0.1
v -0.1 0.7 -0.1
v 0 0.6 -0.1
v 0 0.7 -0.1
v -0.2 0.8 -0.2
v -0.2 0.9 -0.2
v -0.1 0.8 -0.2
v -0.1 0.9 -0.2
v 0 0.6 -0.1
v 0 0.7 -0.1
v 0.1 0.6 -0.1
v 0.1 0.7 -0.1
v -0.2 0.6 -0.2
v -0.2 0.7 -0.2
v -0.1 0.6 -0.2
v -0.1 0.7 -0.2
v 0 0.6 -0.2
v 0 0.7 -0.2
v -0.2 0.5 -0.3
v -0.2 0.6 -0.3
v -0.2 0.8 -0.3
v -0.2 0.9 -0.3
v -0.1 0.8 -0.3
v -0.1 0.9 -0.3
v 0 0.5 -0.3
v 0 0.6 -0.3
v 0.1 0.5 -0.3
v 0.1 0.6 -0.3
v -0.2 0.5 -7.45058e-09
v 0 0.5 -7.45058e-09
v 0.1 0.5 -7.45058e-09
v -0.2 0.5 -0.1
v -0.1 0.5 -0.1
v 0 0.5 -0.1
v 0.1 0.5 -0.1
v -0.2 0.5 -0.2
v -0.1 0.5 -0.2
v 0 0.5 -0.2
v 0.1 0.5 -0.2
v -0.2 0.5 -0.3
v 0 0.5 -0.3
v 0.1 0.5 -0.3
v -0.2 0.8 -0.2
v -0.1 0.8 -0.2
v -0.2 0.8 -0.3
v -0.1 0.8 -0.3
v -0.1 0.6 -7.45058e-09
v 0 0.6 -7.45058e-09
v -0.1 0.6 -0.1
v 0 0.6 -0.1
v 0.1 0.6 -0.1
v -0.2 0.6 -0.2
v -0.1 0.6 -0.2
v 0 0.6 -0.2
v 0.1 0.6 -0.2
v -0.2 0.6 -0.3
v 0 0.6 -0.3
v 0.1 0.6 -0.3
v -0.2 0.7 -7.45058e-09
v -0.1 0.7 -7.45058e-09
v 0 0.7 -7.45058e-09
v 0.1 0.7 -7.45058e-09
v -0.2 0.7 -0.1
v -0.1 0.7 -0.1
v 0 0.7 -0.1
v 0.1 0.7 -0.1
v -0.2 0.7 -0.2
v -0.1 0.7 -0.2
v 0 0.7 -0.2
v -0.2 0.9 -0.2
v -0.1 0.9 -0.2
v -0.2 0.9 -0.3
v -0.1 0.9 -0.3

# faces
f 5/2/1 2/2/1 1/2/1
f 6/1/1 3/1/1 2/1/1
f 6/2/1 2/2/1 5/2/1
f 7/2/1 4/2/1 3/2/1
f 7/1/1 3/1/1 6/1/1
f 8/2/1 4/2/1 7/2/1
f 9/3/1 6/3/1 5/3/1
f 10/2/1 7/2/1 6/2/1
f 10/3/1 6/3/1 9/3/1
f 11/2/1 7/2/1 10/2/1
f 14/1/1 13/1/1 12/1/1
f 15/1/1 13/1/1 14/1/1
f 18/2/1 17/2/1 16/2/1
f 19/2/1 17/2/1 18/2/1
f 20/3/2 21/3/2 22/3/2
f 22/3/2 21/3/2 23/3/2
f 24/1/2 25/1/2 26/1/2
f 26/1/2 25/1/2 27/1/2
f 28/3/2 29/3/2 30/3/2
f 30/3/2 29/3/2 31/3/2
f 32/3/2 33/3/2 36/3/2
f 33/1/2 34/1/2 37/1/2
f 36/3/2 33/3/2 37/3/2
f 34/3/2 35/3/2 38/3/2
f 37/1/2 34/1/2 38/1/2
f 38/3/2 35/3/2 39/3/2
f 36/2/2 37/2/2 40/2/2
f 40/2/2 37/2/2 41/2/2
f 45/2/3 43/2/3 42/2/3
f 45/3/3 44/3/3 43/3/3
f 46/3/3 44/3/3 45/3/3
f 47/2/3 45/2/3 42/2/3
f 48/2/3 45/2/3 47/2/3
f 50/3/3 48/3/3 47/3/3
f 51/2/3 49/2/3 48/2/3
f 51/3/3 48/3/3 50/3/3
f 52/2/3 49/2/3 51/2/3
f 55/3/3 54/3/3 53/3/3
f 56/3/3 54/3/3 55/3/3
f 59/1/3 58/1/3 57/1/3
f 60/1/3 58/1/3 59/1/3
f 61/2/4 62/2/4 63/2/4
f 63/2/4 62/2/4 64/2/4
f 65/2/4 66/2/4 67/2/4
f 67/2/4 66/2/4 68/2/4
f 67/3/4 68/3/4 69/3/4
f 69/3/4 68/3/4 70/3/4
f 73/1/4 74/1/4 75/1/4
f 75/1/4 74/1/4 76/1/4
f 71/2/4 72/2/4 77/2/4
f 77/2/4 72/2/4 78/2/4
f 77/3/4 78/3/4 79/3/4
f 79/3/4 78/3/4 80/3/4
f 84/2/5 82/2/5 81/2/5
f 85/2/5 82/2/5 84/2/5
f 86/3/5 83/3/5 82/3/5
f 86/2/5 82/2/5 85/2/5
f 87/3/5 83/3/5 86/3/5
f 88/1/5 85/1/5 84/1/5
f 89/3/5 86/3/5 85/3/5
f 89/1/5 85/1/5 88/1/5
f 90/1/5 87/1/5 86/1/5
f 90/3/5 86/3/5 89/3/5
f 91/1/5 87/1/5 90/1/5
f 92/2/5 89/2/5 88/2/5
f 92/2/5 90/2/5 89/2/5
f 93/3/5 91/3/5 90/3/5
f 93/2/5 90/2/5 92/2/5
f 94/3/5 91/3/5 93/3/5
f 97/1/5 96/1/5 95/1/5
f 98/1/5 96/1/5 97/1/5
f 99/2/6 100/2/6 101/2/6
f 101/2/6 100/2/6 102/2/6
f 102/1/6 103/1/6 106/1/6
f 106/1/6 103/1/6 107/1/6
f 104/2/6 105/2/6 108/2/6
f 105/2/6 106/2/6 108/2/6
f 106/3/6 107/3/6 109/3/6
f 108/2/6 106/2/6 109/2/6
f 109/3/6 107/3/6 110/3/6
f 111/3/6 112/3/6 115/3/6
f 115/3/6 112/3/6 116/3/6
f 113/2/6 114/2/6 117/2/6
f 117/2/6 114/2/6 118/2/6
f 115/2/6 116/2/6 119/2/6
f 116/3/6 117/3/6 120/3/6
f 119/2/6 116/2/6 120/2/6
f 120/3/6 117/3/6 121/3/6
f 122/1/6 123/1/6 124/1/6
f 124/1/6 123/1/6 125/1/6
