# MagicaVoxel @ Ephtracy

# group
o flames

# material
mtllib wall_torch-9-flames.mtl
usemtl palette

# normals
vn -1 0 0
vn 1 0 0
vn 0 0 1
vn 0 0 -1
vn 0 -1 0
vn 0 1 0

# texcoords
vt 0.978516 0.5
vt 0.982422 0.5
vt 0.986328 0.5
vt 0.990234 0.5
vt 0.994141 0.5

# verts
v -0.2 0.5 -7.45058e-09
v -0.2 0.5 -0.1
v -0.2 0.5 -0.2
v -0.2 0.5 -0.3
v -0.2 0.6 -7.45058e-09
v -0.2 0.6 -0.1
v -0.2 0.6 -0.2
v -0.2 0.6 -0.3
v -0.2 0.7 -0.1
v -0.2 0.7 -0.2
v -0.2 0.7 -0.3
v -0.2 0.8 -0.2
v -0.2 0.8 -0.3
v -0.1 0.6 -7.45058e-09
v -0.1 0.6 -0.1
v -0.1 0.7 -7.45058e-09
v -0.1 0.7 -0.1
v 0 0.6 -0.1
v 0 0.6 -0.2
v 0 0.7 -7.45058e-09
v 0 0.7 -0.1
v 0 0.7 -0.2
v 0 0.8 -7.45058e-09
v 0 0.8 -0.1
v 0 0.8 -0.2
v 0 0.9 -7.45058e-09
v 0 0.9 -0.1
v -0.1 0.6 -0.1
v -0.1 0.6 -0.2
v -0.1 0.7 -0.1
v -0.1 0.7 -0.2
v -0.1 0.7 -0.3
v -0.1 0.8 -0.2
v -0.1 0.8 -0.3
v 0.1 0.5 -7.45058e-09
v 0.1 0.5 -0.1
v 0.1 0.5 -0.2
v 0.1 0.5 -0.3
v 0.1 0.6 -7.45058e-09
v 0.1 0.6 -0.1
v 0.1 0.6 -0.2
v 0.1 0.6 -0.3
v 0.1 0.7 -0.2
v 0.1 0.7 -0.3
v 0.1 0.8 -7.45058e-09
v 0.1 0.8 -0.1
v 0.1 0.8 -0.2
v 0.1 0.9 -7.45058e-09
v 0.1 0.9 -0.1
v -0.2 0.5 -7.45058e-09
v -0.2 0.6 -7.45058e-09
v -0.1 0.6 -7.45058e-09
v -0.1 0.7 -7.45058e-09
v 0 0.5 -7.45058e-09
v 0 0.6 -7.45058e-09
v 0 0.7 -7.45058e-09
v 0 0.8 -7.45058e-09
v 0 0.9 -7.45058e-09
v 0.1 0.5 -7.45058e-09
v 0.1 0.6 -7.45058e-09
v 0.1 0.8 -7.45058e-09
v 0.1 0.9 -7.45058e-09
v -0.2 0.6 -0.1
v -0.2 0.7 -0.1
v -0.1 0.6 -0.1
v -0.1 0.7 -0.1
v -0.2 0.7 -0.2
v -0.2 0.8 -0.2
v -0.1 0.6 -0.2
v -0.1 0.7 -0.2
v -0.1 0.8 -0.2
v 0 0.6 -0.2
v 0 0.7 -0.2
v -0.1 0.6 -0.1
v -0.1 0.7 -0.1
v 0 0.6 -0.1
v 0 0.7 -0.1
v 0 0.8 -0.1
v 0 0.9 -0.1
v 0.1 0.8 -0.1
v 0.1 0.9 -0.1
v 0 0.7 -0.2
v 0 0.8 -0.2
v 0.1 0.7 -0.2
v 0.1 0.8 -0.2
v -0.2 0.5 -0.3
v -0.2 0.6 -0.3
v -0.2 0.7 -0.3
v -0.2 0.8 -0.3
v -0.1 0.6 -0.3
v -0.1 0.7 -0.3
v -0.1 0.8 -0.3
v 0 0.6 -0.3
v 0 0.7 -0.3
v 0.1 0.5 -0.3
v 0.1 0.6 -0.3
v 0.1 0.7 -0.3
v -0.2 0.5 -7.45058e-09
v 0 0.5 -7.45058e-09
v 0.1 0.5 -7.45058e-09
v -0.2 0.5 -0.1
v -0.1 0.5 -0.1
v 0 0.5 -0.1
v 0.1 0.5 -0.1
v -0.2 0.5 -0.2
v -0.1 0.5 -0.2
v 0 0.5 -0.2
v 0.1 0.5 -0.2
v -0.2 0.5 -0.3
v 0.1 0.5 -0.3
v -0.2 0.6 -7.45058e-09
v -0.1 0.6 -7.45058e-09
v -0.2 0.6 -0.1
v -0.1 0.6 -0.1
v 0 0.6 -0.1
v -0.1 0.6 -0.2
v 0 0.6 -0.2
v -0.1 0.7 -7.45058e-09
v 0 0.7 -7.45058e-09
v -0.2 0.7 -0.1
v -0.1 0.7 -0.1
v 0 0.7 -0.1
v -0.2 0.7 -0.2
v -0.1 0.7 -0.2
v 0 0.7 -0.2
v 0.1 0.7 -0.2
v -0.1 0.7 -0.3
v 0 0.7 -0.3
v 0.1 0.7 -0.3
v 0 0.8 -0.1
v 0.1 0.8 -0.1
v -0.2 0.8 -0.2
v -0.1 0.8 -0.2
v 0 0.8 -0.2
v 0.1 0.8 -0.2
v -0.2 0.8 -0.3
v -0.1 0.8 -0.3
v 0 0.9 -7.45058e-09
v 0.1 0.9 -7.45058e-09
v 0 0.9 -0.1
v 0.1 0.9 -0.1

# faces
f 5/2/1 2/2/1 1/2/1
f 6/1/1 3/1/1 2/1/1
f 6/2/1 2/2/1 5/2/1
f 7/2/1 4/2/1 3/2/1
f 7/1/1 3/1/1 6/1/1
f 8/2/1 4/2/1 7/2/1
f 9/2/1 7/2/1 6/2/1
f 10/4/1 8/4/1 7/4/1
f 10/2/1 7/2/1 9/2/1
f 11/4/1 8/4/1 10/4/1
f 12/3/1 11/3/1 10/3/1
f 13/3/1 11/3/1 12/3/1
f 16/2/1 15/2/1 14/2/1
f 17/2/1 15/2/1 16/2/1
f 21/3/1 19/3/1 18/3/1
f 22/3/1 19/3/1 21/3/1
f 23/4/1 21/4/1 20/4/1
f 24/3/1 22/3/1 21/3/1
f 24/4/1 21/4/1 23/4/1
f 25/3/1 22/3/1 24/3/1
f 26/3/1 24/3/1 23/3/1
f 27/3/1 24/3/1 26/3/1
f 28/2/2 29/2/2 30/2/2
f 30/2/2 29/2/2 31/2/2
f 31/3/2 32/3/2 33/3/2
f 33/3/2 32/3/2 34/3/2
f 35/3/2 36/3/2 39/3/2
f 36/5/2 37/5/2 40/5/2
f 39/3/2 36/3/2 40/3/2
f 37/2/2 38/2/2 41/2/2
f 40/5/2 37/5/2 41/5/2
f 41/2/2 38/2/2 42/2/2
f 40/3/2 41/3/2 43/3/2
f 41/3/2 42/3/2 43/3/2
f 43/3/2 42/3/2 44/3/2
f 39/4/2 40/4/2 45/4/2
f 40/3/2 43/3/2 46/3/2
f 45/4/2 40/4/2 46/4/2
f 46/3/2 43/3/2 47/3/2
f 45/3/2 46/3/2 48/3/2
f 48/3/2 46/3/2 49/3/2
f 52/2/3 51/2/3 50/2/3
f 54/2/3 52/2/3 50/2/3
f 54/2/3 53/2/3 52/2/3
f 55/2/3 53/2/3 54/2/3
f 56/2/3 53/2/3 55/2/3
f 59/3/3 55/3/3 54/3/3
f 60/4/3 56/4/3 55/4/3
f 60/3/3 55/3/3 59/3/3
f 60/4/3 57/4/3 56/4/3
f 61/3/3 58/3/3 57/3/3
f 61/4/3 57/4/3 60/4/3
f 62/3/3 58/3/3 61/3/3
f 65/2/3 64/2/3 63/2/3
f 66/2/3 64/2/3 65/2/3
f 70/3/3 68/3/3 67/3/3
f 71/3/3 68/3/3 70/3/3
f 72/2/3 70/2/3 69/2/3
f 73/2/3 70/2/3 72/2/3
f 74/2/4 75/2/4 76/2/4
f 76/2/4 75/2/4 77/2/4
f 78/3/4 79/3/4 80/3/4
f 80/3/4 79/3/4 81/3/4
f 82/3/4 83/3/4 84/3/4
f 84/3/4 83/3/4 85/3/4
f 86/2/4 87/2/4 90/2/4
f 87/4/4 88/4/4 90/4/4
f 88/3/4 89/3/4 91/3/4
f 90/4/4 88/4/4 91/4/4
f 91/3/4 89/3/4 92/3/4
f 86/2/4 90/2/4 93/2/4
f 90/2/4 91/2/4 93/2/4
f 93/2/4 91/2/4 94/2/4
f 86/2/4 93/2/4 95/2/4
f 93/3/4 94/3/4 96/3/4
f 95/2/4 93/2/4 96/2/4
f 96/3/4 94/3/4 97/3/4
f 101/2/5 99/2/5 98/2/5
f 102/2/5 99/2/5 101/2/5
f 103/3/5 100/3/5 99/3/5
f 103/2/5 99/2/5 102/2/5
f 104/3/5 100/3/5 103/3/5
f 105/1/5 102/1/5 101/1/5
f 106/4/5 103/4/5 102/4/5
f 106/1/5 102/1/5 105/1/5
f 107/5/5 104/5/5 103/5/5
f 107/4/5 103/4/5 106/4/5
f 108/5/5 104/5/5 107/5/5
f 109/2/5 106/2/5 105/2/5
f 109/2/5 107/2/5 106/2/5
f 109/2/5 108/2/5 107/2/5
f 110/2/5 108/2/5 109/2/5
f 111/2/6 112/2/6 113/2/6
f 113/2/6 112/2/6 114/2/6
f 114/4/6 115/4/6 116/4/6
f 116/4/6 115/4/6 117/4/6
f 118/2/6 119/2/6 121/2/6
f 121/2/6 119/2/6 122/2/6
f 120/2/6 121/2/6 123/2/6
f 123/2/6 121/2/6 124/2/6
f 124/2/6 125/2/6 127/2/6
f 125/3/6 126/3/6 128/3/6
f 127/2/6 125/2/6 128/2/6
f 128/3/6 126/3/6 129/3/6
f 130/3/6 131/3/6 134/3/6
f 134/3/6 131/3/6 135/3/6
f 132/3/6 133/3/6 136/3/6
f 136/3/6 133/3/6 137/3/6
f 138/3/6 139/3/6 140/3/6
f 140/3/6 139/3/6 141/3/6
