# MagicaVoxel @ Ephtracy

# group
o torso_walk

# material
mtllib thymea-0-torso_walk.mtl
usemtl palette

# normals
vn -1 0 0
vn 1 0 0
vn 0 0 1
vn 0 0 -1
vn 0 -1 0
vn 0 1 0

# texcoords
vt 0.970703 0.5
vt 0.974609 0.5

# verts
v -0.3 0.1 -0.1
v -0.3 0.1 -0.2
v -0.3 0.2 -0.1
v -0.3 0.2 -0.2
v -0.2 0.2 -0.1
v -0.2 0.2 -0.2
v -0.2 0.5 -0.1
v -0.2 0.5 -0.2
v -0.1 0.5 -0.1
v -0.1 0.5 -0.2
v -0.1 0.6 0.1
v -0.1 0.6 -0.1
v -0.1 0.7 0.1
v -0.1 0.7 -0.2
v 2.98023e-08 0.5 0.1
v 2.98023e-08 0.5 -1.49012e-08
v 2.98023e-08 0.6 0.1
v 2.98023e-08 0.6 -1.49012e-08
v 0.1 0 0.1
v 0.1 0 -1.49012e-08
v 0.1 0.1 0.1
v 0.1 0.1 -1.49012e-08
v 0.1 0.3 0.1
v 0.1 0.3 -1.49012e-08
v 0.1 0.5 0.1
v 0.1 0.5 -1.49012e-08
v 0.2 0.1 0.1
v 0.2 0.1 -1.49012e-08
v 0.2 0.3 0.1
v 0.2 0.3 -1.49012e-08
v -0.1 0.1 -0.1
v -0.1 0.1 -0.2
v -0.1 0.2 -0.1
v -0.1 0.2 -0.2
v -0.1 0.5 -0.1
v -0.1 0.5 -0.2
v 2.98023e-08 0.5 -0.1
v 2.98023e-08 0.5 -0.2
v 2.98023e-08 0.6 -0.1
v 2.98023e-08 0.6 -0.2
v 0.1 0.5 0.1
v 0.1 0.5 -1.49012e-08
v 0.1 0.6 -1.49012e-08
v 0.1 0.6 -0.2
v 0.1 0.7 0.1
v 0.1 0.7 -0.2
v 0.2 0.3 0.1
v 0.2 0.3 -1.49012e-08
v 0.2 0.5 0.1
v 0.2 0.5 -1.49012e-08
v 0.3 0 0.1
v 0.3 0 -1.49012e-08
v 0.3 0.1 0.1
v 0.3 0.1 -1.49012e-08
v 0.3 0.3 0.1
v 0.3 0.3 -1.49012e-08
v -0.1 0.6 0.1
v -0.1 0.7 0.1
v 2.98023e-08 0.5 0.1
v 2.98023e-08 0.6 0.1
v 0.1 0 0.1
v 0.1 0.1 0.1
v 0.1 0.3 0.1
v 0.1 0.5 0.1
v 0.1 0.7 0.1
v 0.2 0.1 0.1
v 0.2 0.3 0.1
v 0.2 0.5 0.1
v 0.3 0 0.1
v 0.3 0.1 0.1
v 0.3 0.3 0.1
v -0.3 0.1 -0.1
v -0.3 0.2 -0.1
v -0.2 0.2 -0.1
v -0.2 0.5 -0.1
v -0.1 0.1 -0.1
v -0.1 0.2 -0.1
v -0.1 0.5 -0.1
v -0.1 0.6 -0.1
v 2.98023e-08 0.5 -0.1
v 2.98023e-08 0.6 -0.1
v 2.98023e-08 0.5 -1.49012e-08
v 2.98023e-08 0.6 -1.49012e-08
v 0.1 0 -1.49012e-08
v 0.1 0.1 -1.49012e-08
v 0.1 0.3 -1.49012e-08
v 0.1 0.5 -1.49012e-08
v 0.1 0.6 -1.49012e-08
v 0.2 0.1 -1.49012e-08
v 0.2 0.3 -1.49012e-08
v 0.2 0.5 -1.49012e-08
v 0.3 0 -1.49012e-08
v 0.3 0.1 -1.49012e-08
v 0.3 0.3 -1.49012e-08
v -0.3 0.1 -0.2
v -0.3 0.2 -0.2
v -0.2 0.2 -0.2
v -0.2 0.5 -0.2
v -0.1 0.1 -0.2
v -0.1 0.2 -0.2
v -0.1 0.5 -0.2
v -0.1 0.7 -0.2
v 2.98023e-08 0.5 -0.2
v 2.98023e-08 0.6 -0.2
v 0.1 0.6 -0.2
v 0.1 0.7 -0.2
v 0.1 0 0.1
v 0.3 0 0.1
v 0.1 0 -1.49012e-08
v 0.3 0 -1.49012e-08
v -0.3 0.1 -0.1
v -0.1 0.1 -0.1
v -0.3 0.1 -0.2
v -0.1 0.1 -0.2
v 0.1 0.3 0.1
v 0.2 0.3 0.1
v 0.1 0.3 -1.49012e-08
v 0.2 0.3 -1.49012e-08
v 2.98023e-08 0.5 0.1
v 0.1 0.5 0.1
v 2.98023e-08 0.5 -1.49012e-08
v 0.1 0.5 -1.49012e-08
v -0.1 0.5 -0.1
v 2.98023e-08 0.5 -0.1
v -0.1 0.5 -0.2
v 2.98023e-08 0.5 -0.2
v -0.1 0.6 0.1
v 2.98023e-08 0.6 0.1
v 2.98023e-08 0.6 -1.49012e-08
v 0.1 0.6 -1.49012e-08
v -0.1 0.6 -0.1
v 2.98023e-08 0.6 -0.1
v 2.98023e-08 0.6 -0.2
v 0.1 0.6 -0.2
v 0.1 0.1 0.1
v 0.2 0.1 0.1
v 0.1 0.1 -1.49012e-08
v 0.2 0.1 -1.49012e-08
v -0.3 0.2 -0.1
v -0.2 0.2 -0.1
v -0.3 0.2 -0.2
v -0.2 0.2 -0.2
v 0.2 0.3 0.1
v 0.3 0.3 0.1
v 0.2 0.3 -1.49012e-08
v 0.3 0.3 -1.49012e-08
v 0.1 0.5 0.1
v 0.2 0.5 0.1
v 0.1 0.5 -1.49012e-08
v 0.2 0.5 -1.49012e-08
v -0.2 0.5 -0.1
v -0.1 0.5 -0.1
v -0.2 0.5 -0.2
v -0.1 0.5 -0.2
v -0.1 0.7 0.1
v 0.1 0.7 0.1
v -0.1 0.7 -0.2
v 0.1 0.7 -0.2

# faces
f 3/1/1 2/1/1 1/1/1
f 4/1/1 2/1/1 3/1/1
f 7/2/1 6/2/1 5/2/1
f 8/2/1 6/2/1 7/2/1
f 12/2/1 10/2/1 9/2/1
f 13/2/1 12/2/1 11/2/1
f 14/2/1 10/2/1 12/2/1
f 14/2/1 12/2/1 13/2/1
f 17/2/1 16/2/1 15/2/1
f 18/2/1 16/2/1 17/2/1
f 21/1/1 20/1/1 19/1/1
f 22/1/1 20/1/1 21/1/1
f 25/2/1 24/2/1 23/2/1
f 26/2/1 24/2/1 25/2/1
f 29/2/1 28/2/1 27/2/1
f 30/2/1 28/2/1 29/2/1
f 31/1/2 32/1/2 33/1/2
f 33/1/2 32/1/2 34/1/2
f 33/2/2 34/2/2 35/2/2
f 35/2/2 34/2/2 36/2/2
f 37/2/2 38/2/2 39/2/2
f 39/2/2 38/2/2 40/2/2
f 41/2/2 42/2/2 43/2/2
f 41/2/2 43/2/2 45/2/2
f 43/2/2 44/2/2 45/2/2
f 45/2/2 44/2/2 46/2/2
f 47/2/2 48/2/2 49/2/2
f 49/2/2 48/2/2 50/2/2
f 51/1/2 52/1/2 53/1/2
f 53/1/2 52/1/2 54/1/2
f 53/2/2 54/2/2 55/2/2
f 55/2/2 54/2/2 56/2/2
f 60/2/3 58/2/3 57/2/3
f 64/2/3 60/2/3 59/2/3
f 65/2/3 58/2/3 60/2/3
f 65/2/3 60/2/3 64/2/3
f 66/1/3 62/1/3 61/1/3
f 67/2/3 64/2/3 63/2/3
f 68/2/3 64/2/3 67/2/3
f 69/1/3 66/1/3 61/1/3
f 70/2/3 67/2/3 66/2/3
f 70/1/3 66/1/3 69/1/3
f 71/2/3 67/2/3 70/2/3
f 74/1/3 73/1/3 72/1/3
f 76/1/3 74/1/3 72/1/3
f 77/2/3 75/2/3 74/2/3
f 77/1/3 74/1/3 76/1/3
f 78/2/3 75/2/3 77/2/3
f 80/2/3 79/2/3 78/2/3
f 81/2/3 79/2/3 80/2/3
f 82/2/4 83/2/4 87/2/4
f 87/2/4 83/2/4 88/2/4
f 84/1/4 85/1/4 89/1/4
f 86/2/4 87/2/4 90/2/4
f 90/2/4 87/2/4 91/2/4
f 84/1/4 89/1/4 92/1/4
f 89/2/4 90/2/4 93/2/4
f 92/1/4 89/1/4 93/1/4
f 93/2/4 90/2/4 94/2/4
f 95/1/4 96/1/4 97/1/4
f 95/1/4 97/1/4 99/1/4
f 97/2/4 98/2/4 100/2/4
f 99/1/4 97/1/4 100/1/4
f 100/2/4 98/2/4 101/2/4
f 101/2/4 102/2/4 103/2/4
f 103/2/4 102/2/4 104/2/4
f 104/2/4 102/2/4 105/2/4
f 105/2/4 102/2/4 106/2/4
f 109/1/5 108/1/5 107/1/5
f 110/1/5 108/1/5 109/1/5
f 113/1/5 112/1/5 111/1/5
f 114/1/5 112/1/5 113/1/5
f 117/2/5 116/2/5 115/2/5
f 118/2/5 116/2/5 117/2/5
f 121/2/5 120/2/5 119/2/5
f 122/2/5 120/2/5 121/2/5
f 125/2/5 124/2/5 123/2/5
f 126/2/5 124/2/5 125/2/5
f 129/2/5 128/2/5 127/2/5
f 131/2/5 129/2/5 127/2/5
f 131/2/5 130/2/5 129/2/5
f 132/2/5 130/2/5 131/2/5
f 133/2/5 130/2/5 132/2/5
f 134/2/5 130/2/5 133/2/5
f 135/1/6 136/1/6 137/1/6
f 137/1/6 136/1/6 138/1/6
f 139/1/6 140/1/6 141/1/6
f 141/1/6 140/1/6 142/1/6
f 143/2/6 144/2/6 145/2/6
f 145/2/6 144/2/6 146/2/6
f 147/2/6 148/2/6 149/2/6
f 149/2/6 148/2/6 150/2/6
f 151/2/6 152/2/6 153/2/6
f 153/2/6 152/2/6 154/2/6
f 155/2/6 156/2/6 157/2/6
f 157/2/6 156/2/6 158/2/6
