# MagicaVoxel @ Ephtracy

# group
o torso_walk

# material
mtllib thymea-6-torso_walk.mtl
usemtl palette

# normals
vn -1 0 0
vn 1 0 0
vn 0 0 1
vn 0 0 -1
vn 0 -1 0
vn 0 1 0

# texcoords
vt 0.970703 0.5
vt 0.974609 0.5

# verts
v -0.5 0.2 0.1
v -0.5 0.2 -1.49012e-08
v -0.5 0.3 0.1
v -0.5 0.3 -1.49012e-08
v -0.4 0.3 0.1
v -0.4 0.3 -1.49012e-08
v -0.4 0.5 0.1
v -0.4 0.5 -1.49012e-08
v -0.3 0.5 0.1
v -0.3 0.5 -1.49012e-08
v -0.3 0.6 0.1
v -0.3 0.6 -1.49012e-08
v -0.1 0.6 0.1
v -0.1 0.6 -1.49012e-08
v -0.1 0.6 -0.2
v -0.1 0.7 0.1
v -0.1 0.7 -0.2
v 5.96046e-08 0.4 -0.1
v 5.96046e-08 0.4 -0.2
v 5.96046e-08 0.6 -0.1
v 5.96046e-08 0.6 -0.2
v 0.3 0.3 -0.1
v 0.3 0.3 -0.2
v 0.3 0.4 -0.1
v 0.3 0.4 -0.2
v -0.3 0.2 0.1
v -0.3 0.2 -1.49012e-08
v -0.3 0.3 0.1
v -0.3 0.3 -1.49012e-08
v -0.3 0.5 0.1
v -0.3 0.5 -1.49012e-08
v 5.96046e-08 0.5 0.1
v 5.96046e-08 0.5 -1.49012e-08
v 5.96046e-08 0.6 0.1
v 5.96046e-08 0.6 -1.49012e-08
v 0.1 0.5 -0.1
v 0.1 0.5 -0.2
v 0.1 0.6 0.1
v 0.1 0.6 -0.1
v 0.1 0.7 0.1
v 0.1 0.7 -0.2
v 0.4 0.3 -0.1
v 0.4 0.3 -0.2
v 0.4 0.5 -0.1
v 0.4 0.5 -0.2
v -0.5 0.2 0.1
v -0.5 0.3 0.1
v -0.4 0.3 0.1
v -0.4 0.5 0.1
v -0.3 0.2 0.1
v -0.3 0.3 0.1
v -0.3 0.5 0.1
v -0.3 0.6 0.1
v -0.1 0.6 0.1
v -0.1 0.7 0.1
v 5.96046e-08 0.5 0.1
v 5.96046e-08 0.6 0.1
v 0.1 0.6 0.1
v 0.1 0.7 0.1
v 5.96046e-08 0.4 -0.1
v 5.96046e-08 0.6 -0.1
v 0.1 0.5 -0.1
v 0.1 0.6 -0.1
v 0.3 0.3 -0.1
v 0.3 0.4 -0.1
v 0.3 0.5 -0.1
v 0.4 0.3 -0.1
v 0.4 0.5 -0.1
v -0.5 0.2 -1.49012e-08
v -0.5 0.3 -1.49012e-08
v -0.4 0.3 -1.49012e-08
v -0.4 0.5 -1.49012e-08
v -0.3 0.2 -1.49012e-08
v -0.3 0.3 -1.49012e-08
v -0.3 0.5 -1.49012e-08
v -0.3 0.6 -1.49012e-08
v -0.1 0.6 -1.49012e-08
v 5.96046e-08 0.5 -1.49012e-08
v 5.96046e-08 0.6 -1.49012e-08
v -0.1 0.6 -0.2
v -0.1 0.7 -0.2
v 5.96046e-08 0.4 -0.2
v 5.96046e-08 0.6 -0.2
v 0.1 0.5 -0.2
v 0.1 0.7 -0.2
v 0.3 0.3 -0.2
v 0.3 0.4 -0.2
v 0.3 0.5 -0.2
v 0.4 0.3 -0.2
v 0.4 0.5 -0.2
v -0.5 0.2 0.1
v -0.3 0.2 0.1
v -0.5 0.2 -1.49012e-08
v -0.3 0.2 -1.49012e-08
v 0.3 0.3 -0.1
v 0.4 0.3 -0.1
v 0.3 0.3 -0.2
v 0.4 0.3 -0.2
v 5.96046e-08 0.4 -0.1
v 0.3 0.4 -0.1
v 5.96046e-08 0.4 -0.2
v 0.3 0.4 -0.2
v -0.3 0.5 0.1
v 5.96046e-08 0.5 0.1
v -0.3 0.5 -1.49012e-08
v 5.96046e-08 0.5 -1.49012e-08
v 5.96046e-08 0.6 0.1
v 0.1 0.6 0.1
v -0.1 0.6 -1.49012e-08
v 5.96046e-08 0.6 -1.49012e-08
v 5.96046e-08 0.6 -0.1
v 0.1 0.6 -0.1
v -0.1 0.6 -0.2
v 5.96046e-08 0.6 -0.2
v -0.5 0.3 0.1
v -0.4 0.3 0.1
v -0.5 0.3 -1.49012e-08
v -0.4 0.3 -1.49012e-08
v -0.4 0.5 0.1
v -0.3 0.5 0.1
v -0.4 0.5 -1.49012e-08
v -0.3 0.5 -1.49012e-08
v 0.1 0.5 -0.1
v 0.3 0.5 -0.1
v 0.4 0.5 -0.1
v 0.1 0.5 -0.2
v 0.3 0.5 -0.2
v 0.4 0.5 -0.2
v -0.3 0.6 0.1
v -0.1 0.6 0.1
v -0.3 0.6 -1.49012e-08
v -0.1 0.6 -1.49012e-08
v -0.1 0.7 0.1
v 0.1 0.7 0.1
v -0.1 0.7 -0.2
v 0.1 0.7 -0.2

# faces
f 3/1/1 2/1/1 1/1/1
f 4/1/1 2/1/1 3/1/1
f 7/2/1 6/2/1 5/2/1
f 8/2/1 6/2/1 7/2/1
f 11/2/1 10/2/1 9/2/1
f 12/2/1 10/2/1 11/2/1
f 16/2/1 14/2/1 13/2/1
f 16/2/1 15/2/1 14/2/1
f 17/2/1 15/2/1 16/2/1
f 20/2/1 19/2/1 18/2/1
f 21/2/1 19/2/1 20/2/1
f 24/1/1 23/1/1 22/1/1
f 25/1/1 23/1/1 24/1/1
f 26/1/2 27/1/2 28/1/2
f 28/1/2 27/1/2 29/1/2
f 28/2/2 29/2/2 30/2/2
f 30/2/2 29/2/2 31/2/2
f 32/2/2 33/2/2 34/2/2
f 34/2/2 33/2/2 35/2/2
f 36/2/2 37/2/2 39/2/2
f 38/2/2 39/2/2 40/2/2
f 39/2/2 37/2/2 41/2/2
f 40/2/2 39/2/2 41/2/2
f 42/1/2 43/1/2 44/1/2
f 44/1/2 43/1/2 45/1/2
f 48/1/3 47/1/3 46/1/3
f 50/1/3 48/1/3 46/1/3
f 51/2/3 49/2/3 48/2/3
f 51/1/3 48/1/3 50/1/3
f 52/2/3 49/2/3 51/2/3
f 54/2/3 53/2/3 52/2/3
f 56/2/3 54/2/3 52/2/3
f 56/2/3 55/2/3 54/2/3
f 57/2/3 55/2/3 56/2/3
f 58/2/3 55/2/3 57/2/3
f 59/2/3 55/2/3 58/2/3
f 62/2/3 61/2/3 60/2/3
f 63/2/3 61/2/3 62/2/3
f 65/2/3 62/2/3 60/2/3
f 66/2/3 62/2/3 65/2/3
f 67/1/3 65/1/3 64/1/3
f 67/1/3 66/1/3 65/1/3
f 68/1/3 66/1/3 67/1/3
f 69/1/4 70/1/4 71/1/4
f 69/1/4 71/1/4 73/1/4
f 71/2/4 72/2/4 74/2/4
f 73/1/4 71/1/4 74/1/4
f 74/2/4 72/2/4 75/2/4
f 75/2/4 76/2/4 77/2/4
f 75/2/4 77/2/4 78/2/4
f 78/2/4 77/2/4 79/2/4
f 80/2/4 81/2/4 83/2/4
f 82/2/4 83/2/4 84/2/4
f 83/2/4 81/2/4 85/2/4
f 84/2/4 83/2/4 85/2/4
f 82/2/4 84/2/4 87/2/4
f 87/2/4 84/2/4 88/2/4
f 86/1/4 87/1/4 89/1/4
f 87/1/4 88/1/4 89/1/4
f 89/1/4 88/1/4 90/1/4
f 93/1/5 92/1/5 91/1/5
f 94/1/5 92/1/5 93/1/5
f 97/1/5 96/1/5 95/1/5
f 98/1/5 96/1/5 97/1/5
f 101/2/5 100/2/5 99/2/5
f 102/2/5 100/2/5 101/2/5
f 105/2/5 104/2/5 103/2/5
f 106/2/5 104/2/5 105/2/5
f 110/2/5 108/2/5 107/2/5
f 111/2/5 108/2/5 110/2/5
f 111/2/5 110/2/5 109/2/5
f 112/2/5 108/2/5 111/2/5
f 113/2/5 111/2/5 109/2/5
f 114/2/5 111/2/5 113/2/5
f 115/1/6 116/1/6 117/1/6
f 117/1/6 116/1/6 118/1/6
f 119/2/6 120/2/6 121/2/6
f 121/2/6 120/2/6 122/2/6
f 123/2/6 124/2/6 126/2/6
f 124/1/6 125/1/6 127/1/6
f 126/2/6 124/2/6 127/2/6
f 127/1/6 125/1/6 128/1/6
f 129/2/6 130/2/6 131/2/6
f 131/2/6 130/2/6 132/2/6
f 133/2/6 134/2/6 135/2/6
f 135/2/6 134/2/6 136/2/6
