# MagicaVoxel @ Ephtracy

# group
o torso

# material
mtllib torso_walk-3-torso.mtl
usemtl palette

# normals
vn -1 0 0
vn 1 0 0
vn 0 0 1
vn 0 0 -1
vn 0 -1 0
vn 0 1 0

# texcoords
vt 0.970703 0.5
vt 0.974609 0.5
vt 0.978516 0.5
vt 0.982422 0.5

# verts
v -0.1 0 -0.1
v -0.1 0 -0.2
v -0.1 0.1 -0.1
v -0.1 0.1 -0.2
v -0.1 0.6 0.1
v -0.1 0.6 -0.2
v -0.1 0.7 0.1
v -0.1 0.7 -0.2
v -0.1 1.2 0.1
v -0.1 1.2 -0.2
v -0.1 1.3 0.1
v -0.1 1.3 -0.2
v -0.1 1.5 0.1
v -0.1 1.5 -0.2
v -0.1 1.6 0.1
v -0.1 1.6 -0.2
v 1.49012e-08 0.1 -0.1
v 1.49012e-08 0.1 -0.2
v 1.49012e-08 0.4 0.1
v 1.49012e-08 0.4 0
v 1.49012e-08 0.5 0.1
v 1.49012e-08 0.5 0
v 1.49012e-08 0.6 -0.1
v 1.49012e-08 0.6 -0.2
v 1.49012e-08 1.2 0
v 1.49012e-08 1.2 -0.1
v 1.49012e-08 1.3 0
v 1.49012e-08 1.3 -0.1
v 0.1 0.1 0.1
v 0.1 0.1 0
v 0.1 0.2 0.1
v 0.1 0.2 0
v 0.1 0.3 0.1
v 0.1 0.3 0
v 0.1 0.4 0.1
v 0.1 0.4 0
v 0.1 0.5 0.1
v 0.1 0.5 0
v 0.1 0.6 0.1
v 0.1 0.6 0
v 0.2 0.2 0.1
v 0.2 0.2 0
v 0.2 0.3 0.1
v 0.2 0.3 0
v 0.1 0 -0.1
v 0.1 0 -0.2
v 0.1 0.1 -0.1
v 0.1 0.1 -0.2
v 0.1 0.4 0.1
v 0.1 0.4 0
v 0.1 0.5 0.1
v 0.1 0.5 0
v 0.1 0.6 -0.1
v 0.1 0.6 -0.2
v 0.2 0.3 0.1
v 0.2 0.3 0
v 0.2 0.4 0.1
v 0.2 0.4 0
v 0.2 0.5 0.1
v 0.2 0.5 0
v 0.2 0.6 0
v 0.2 0.6 -0.2
v 0.2 0.7 0.1
v 0.2 0.7 -0.2
v 0.2 1.2 0.1
v 0.2 1.2 0
v 0.2 1.2 -0.1
v 0.2 1.2 -0.2
v 0.2 1.3 0.1
v 0.2 1.3 0
v 0.2 1.3 -0.1
v 0.2 1.3 -0.2
v 0.2 1.5 0.1
v 0.2 1.5 -0.2
v 0.2 1.6 0.1
v 0.2 1.6 -0.2
v 0.3 0.1 0.1
v 0.3 0.1 0
v 0.3 0.2 0.1
v 0.3 0.2 0
v 0.3 0.3 0.1
v 0.3 0.3 0
v -0.1 0.6 0.1
v -0.1 0.7 0.1
v -0.1 1.2 0.1
v -0.1 1.3 0.1
v -0.1 1.5 0.1
v -0.1 1.6 0.1
v 1.49012e-08 0.4 0.1
v 1.49012e-08 0.5 0.1
v 0.1 0.1 0.1
v 0.1 0.2 0.1
v 0.1 0.3 0.1
v 0.1 0.4 0.1
v 0.1 0.5 0.1
v 0.1 0.6 0.1
v 0.2 0.2 0.1
v 0.2 0.3 0.1
v 0.2 0.4 0.1
v 0.2 0.5 0.1
v 0.2 0.7 0.1
v 0.2 1.2 0.1
v 0.2 1.3 0.1
v 0.2 1.5 0.1
v 0.2 1.6 0.1
v 0.3 0.1 0.1
v 0.3 0.2 0.1
v 0.3 0.3 0.1
v 1.49012e-08 1.2 0
v 1.49012e-08 1.3 0
v 0.2 1.2 0
v 0.2 1.3 0
v -0.1 0 -0.1
v -0.1 0.1 -0.1
v 1.49012e-08 0.1 -0.1
v 1.49012e-08 0.6 -0.1
v 0.1 0 -0.1
v 0.1 0.1 -0.1
v 0.1 0.6 -0.1
v 1.49012e-08 0.4 0
v 1.49012e-08 0.5 0
v 0.1 0.1 0
v 0.1 0.2 0
v 0.1 0.3 0
v 0.1 0.4 0
v 0.1 0.5 0
v 0.1 0.6 0
v 0.2 0.2 0
v 0.2 0.3 0
v 0.2 0.4 0
v 0.2 0.5 0
v 0.2 0.6 0
v 0.3 0.1 0
v 0.3 0.2 0
v 0.3 0.3 0
v 1.49012e-08 1.2 -0.1
v 1.49012e-08 1.3 -0.1
v 0.2 1.2 -0.1
v 0.2 1.3 -0.1
v -0.1 0 -0.2
v -0.1 0.1 -0.2
v -0.1 0.6 -0.2
v -0.1 0.7 -0.2
v -0.1 1.2 -0.2
v -0.1 1.3 -0.2
v -0.1 1.5 -0.2
v -0.1 1.6 -0.2
v 1.49012e-08 0.1 -0.2
v 1.49012e-08 0.6 -0.2
v 0.1 0 -0.2
v 0.1 0.1 -0.2
v 0.1 0.6 -0.2
v 0.2 0.6 -0.2
v 0.2 0.7 -0.2
v 0.2 1.2 -0.2
v 0.2 1.3 -0.2
v 0.2 1.5 -0.2
v 0.2 1.6 -0.2
v -0.1 0 -0.1
v 0.1 0 -0.1
v -0.1 0 -0.2
v 0.1 0 -0.2
v 0.1 0.1 0.1
v 0.3 0.1 0.1
v 0.1 0.1 0
v 0.3 0.1 0
v 0.1 0.3 0.1
v 0.2 0.3 0.1
v 0.1 0.3 0
v 0.2 0.3 0
v 1.49012e-08 0.4 0.1
v 0.1 0.4 0.1
v 1.49012e-08 0.4 0
v 0.1 0.4 0
v 0.1 0.5 0.1
v 0.2 0.5 0.1
v 0.1 0.5 0
v 0.2 0.5 0
v -0.1 0.6 0.1
v 0.1 0.6 0.1
v 0.1 0.6 0
v 0.2 0.6 0
v 1.49012e-08 0.6 -0.1
v 0.1 0.6 -0.1
v -0.1 0.6 -0.2
v 1.49012e-08 0.6 -0.2
v 0.1 0.6 -0.2
v 0.2 0.6 -0.2
v -0.1 1.3 0.1
v 0.2 1.3 0.1
v 1.49012e-08 1.3 0
v 0.2 1.3 0
v 1.49012e-08 1.3 -0.1
v 0.2 1.3 -0.1
v -0.1 1.3 -0.2
v 0.2 1.3 -0.2
v -0.1 0.1 -0.1
v 1.49012e-08 0.1 -0.1
v -0.1 0.1 -0.2
v 1.49012e-08 0.1 -0.2
v 0.1 0.2 0.1
v 0.2 0.2 0.1
v 0.1 0.2 0
v 0.2 0.2 0
v 0.2 0.3 0.1
v 0.3 0.3 0.1
v 0.2 0.3 0
v 0.3 0.3 0
v 0.1 0.4 0.1
v 0.2 0.4 0.1
v 0.1 0.4 0
v 0.2 0.4 0
v 1.49012e-08 0.5 0.1
v 0.1 0.5 0.1
v 1.49012e-08 0.5 0
v 0.1 0.5 0
v -0.1 1.2 0.1
v 0.2 1.2 0.1
v 1.49012e-08 1.2 0
v 0.2 1.2 0
v 1.49012e-08 1.2 -0.1
v 0.2 1.2 -0.1
v -0.1 1.2 -0.2
v 0.2 1.2 -0.2
v -0.1 1.6 0.1
v 0.2 1.6 0.1
v -0.1 1.6 -0.2
v 0.2 1.6 -0.2

# faces
f 3/1/1 2/1/1 1/1/1
f 4/1/1 2/1/1 3/1/1
f 7/2/1 6/2/1 5/2/1
f 8/2/1 6/2/1 7/2/1
f 9/3/1 8/3/1 7/3/1
f 10/3/1 8/3/1 9/3/1
f 13/1/1 12/1/1 11/1/1
f 14/1/1 12/1/1 13/1/1
f 15/4/1 14/4/1 13/4/1
f 16/4/1 14/4/1 15/4/1
f 21/2/1 20/2/1 19/2/1
f 22/2/1 20/2/1 21/2/1
f 23/2/1 18/2/1 17/2/1
f 24/2/1 18/2/1 23/2/1
f 27/1/1 26/1/1 25/1/1
f 28/1/1 26/1/1 27/1/1
f 31/1/1 30/1/1 29/1/1
f 32/1/1 30/1/1 31/1/1
f 35/2/1 34/2/1 33/2/1
f 36/2/1 34/2/1 35/2/1
f 39/2/1 38/2/1 37/2/1
f 40/2/1 38/2/1 39/2/1
f 43/2/1 42/2/1 41/2/1
f 44/2/1 42/2/1 43/2/1
f 45/1/2 46/1/2 47/1/2
f 47/1/2 46/1/2 48/1/2
f 49/2/2 50/2/2 51/2/2
f 51/2/2 50/2/2 52/2/2
f 47/2/2 48/2/2 53/2/2
f 53/2/2 48/2/2 54/2/2
f 55/2/2 56/2/2 57/2/2
f 57/2/2 56/2/2 58/2/2
f 59/2/2 60/2/2 61/2/2
f 59/2/2 61/2/2 63/2/2
f 61/2/2 62/2/2 63/2/2
f 63/2/2 62/2/2 64/2/2
f 63/3/2 64/3/2 65/3/2
f 65/3/2 64/3/2 66/3/2
f 66/3/2 64/3/2 67/3/2
f 67/3/2 64/3/2 68/3/2
f 66/1/2 67/1/2 70/1/2
f 70/1/2 67/1/2 71/1/2
f 69/1/2 70/1/2 73/1/2
f 71/1/2 72/1/2 73/1/2
f 70/1/2 71/1/2 73/1/2
f 73/1/2 72/1/2 74/1/2
f 73/4/2 74/4/2 75/4/2
f 75/4/2 74/4/2 76/4/2
f 77/1/2 78/1/2 79/1/2
f 79/1/2 78/1/2 80/1/2
f 79/2/2 80/2/2 81/2/2
f 81/2/2 80/2/2 82/2/2
f 94/2/3 90/2/3 89/2/3
f 95/2/3 90/2/3 94/2/3
f 96/2/3 84/2/3 83/2/3
f 97/1/3 92/1/3 91/1/3
f 98/2/3 94/2/3 93/2/3
f 99/2/3 94/2/3 98/2/3
f 100/2/3 96/2/3 95/2/3
f 101/3/3 85/3/3 84/3/3
f 101/2/3 96/2/3 100/2/3
f 101/2/3 84/2/3 96/2/3
f 102/3/3 85/3/3 101/3/3
f 103/1/3 87/1/3 86/1/3
f 104/4/3 88/4/3 87/4/3
f 104/1/3 87/1/3 103/1/3
f 105/4/3 88/4/3 104/4/3
f 106/1/3 97/1/3 91/1/3
f 107/2/3 98/2/3 97/2/3
f 107/1/3 97/1/3 106/1/3
f 108/2/3 98/2/3 107/2/3
f 111/1/3 110/1/3 109/1/3
f 112/1/3 110/1/3 111/1/3
f 115/1/3 114/1/3 113/1/3
f 117/1/3 115/1/3 113/1/3
f 118/2/3 116/2/3 115/2/3
f 118/1/3 115/1/3 117/1/3
f 119/2/3 116/2/3 118/2/3
f 120/2/4 121/2/4 125/2/4
f 125/2/4 121/2/4 126/2/4
f 122/1/4 123/1/4 128/1/4
f 124/2/4 125/2/4 129/2/4
f 129/2/4 125/2/4 130/2/4
f 126/2/4 127/2/4 131/2/4
f 131/2/4 127/2/4 132/2/4
f 122/1/4 128/1/4 133/1/4
f 128/2/4 129/2/4 134/2/4
f 133/1/4 128/1/4 134/1/4
f 134/2/4 129/2/4 135/2/4
f 136/1/4 137/1/4 138/1/4
f 138/1/4 137/1/4 139/1/4
f 140/1/4 141/1/4 148/1/4
f 142/2/4 143/2/4 149/2/4
f 140/1/4 148/1/4 150/1/4
f 148/2/4 149/2/4 151/2/4
f 150/1/4 148/1/4 151/1/4
f 149/2/4 143/2/4 152/2/4
f 151/2/4 149/2/4 152/2/4
f 152/2/4 143/2/4 153/2/4
f 143/3/4 144/3/4 154/3/4
f 153/2/4 143/2/4 154/2/4
f 154/3/4 144/3/4 155/3/4
f 145/1/4 146/1/4 156/1/4
f 146/4/4 147/4/4 157/4/4
f 156/1/4 146/1/4 157/1/4
f 157/4/4 147/4/4 158/4/4
f 161/1/5 160/1/5 159/1/5
f 162/1/5 160/1/5 161/1/5
f 165/1/5 164/1/5 163/1/5
f 166/1/5 164/1/5 165/1/5
f 169/2/5 168/2/5 167/2/5
f 170/2/5 168/2/5 169/2/5
f 173/2/5 172/2/5 171/2/5
f 174/2/5 172/2/5 173/2/5
f 177/2/5 176/2/5 175/2/5
f 178/2/5 176/2/5 177/2/5
f 181/2/5 180/2/5 179/2/5
f 183/2/5 181/2/5 179/2/5
f 183/2/5 182/2/5 181/2/5
f 184/2/5 182/2/5 183/2/5
f 185/2/5 183/2/5 179/2/5
f 186/2/5 183/2/5 185/2/5
f 187/2/5 182/2/5 184/2/5
f 188/2/5 182/2/5 187/2/5
f 191/1/5 190/1/5 189/1/5
f 192/1/5 190/1/5 191/1/5
f 193/1/5 191/1/5 189/1/5
f 195/1/5 193/1/5 189/1/5
f 195/1/5 194/1/5 193/1/5
f 196/1/5 194/1/5 195/1/5
f 197/1/6 198/1/6 199/1/6
f 199/1/6 198/1/6 200/1/6
f 201/1/6 202/1/6 203/1/6
f 203/1/6 202/1/6 204/1/6
f 205/2/6 206/2/6 207/2/6
f 207/2/6 206/2/6 208/2/6
f 209/2/6 210/2/6 211/2/6
f 211/2/6 210/2/6 212/2/6
f 213/2/6 214/2/6 215/2/6
f 215/2/6 214/2/6 216/2/6
f 217/3/6 218/3/6 219/3/6
f 219/3/6 218/3/6 220/3/6
f 217/3/6 219/3/6 221/3/6
f 217/3/6 221/3/6 223/3/6
f 221/3/6 222/3/6 223/3/6
f 223/3/6 222/3/6 224/3/6
f 225/4/6 226/4/6 227/4/6
f 227/4/6 226/4/6 228/4/6
