# MagicaVoxel @ Ephtracy

# group
o torso

# material
mtllib torso_walk-5-torso.mtl
usemtl palette

# normals
vn -1 0 0
vn 1 0 0
vn 0 0 1
vn 0 0 -1
vn 0 -1 0
vn 0 1 0

# texcoords
vt 0.970703 0.5
vt 0.974609 0.5
vt 0.978516 0.5
vt 0.982422 0.5

# verts
v -0.2 0.3 -0.4
v -0.2 0.3 -0.5
v -0.2 0.4 -0.1
v -0.2 0.4 -0.4
v -0.2 0.5 -0.2
v -0.2 0.5 -0.4
v -0.2 0.5 -0.5
v -0.2 0.6 0.1
v -0.2 0.6 -0.1
v -0.2 0.7 0.1
v -0.2 0.7 -0.2
v -0.2 1.2 0.1
v -0.2 1.2 -0.2
v -0.2 1.3 0.1
v -0.2 1.3 -0.2
v -0.2 1.5 0.1
v -0.2 1.5 -0.2
v -0.2 1.6 0.1
v -0.2 1.6 -0.2
v -0.1 1.2 0
v -0.1 1.2 -0.2
v -0.1 1.3 0
v -0.1 1.3 -0.2
v 0 0.3 0.4
v 0 0.3 0.2
v 0 0.4 0.4
v 0 0.4 0.3
v 0 0.4 0.2
v 0 0.5 0.2
v 0 0.5 -0.1
v 0 0.6 0.3
v 0 0.6 0.1
v 0 0.6 -0.1
v -0.1 0.3 -0.4
v -0.1 0.3 -0.5
v -0.1 0.4 -0.1
v -0.1 0.4 -0.4
v -0.1 0.5 -0.2
v -0.1 0.5 -0.4
v -0.1 0.5 -0.5
v -0.1 0.6 -0.1
v -0.1 0.6 -0.2
v 0 1.2 0
v 0 1.2 -0.2
v 0 1.3 0
v 0 1.3 -0.2
v 0.1 0.3 0.4
v 0.1 0.3 0.2
v 0.1 0.4 0.4
v 0.1 0.4 0.3
v 0.1 0.4 0.2
v 0.1 0.5 0.2
v 0.1 0.5 -0.1
v 0.1 0.6 0.3
v 0.1 0.6 0.1
v 0.1 0.6 -0.1
v 0.1 0.6 -0.2
v 0.1 0.7 0.1
v 0.1 0.7 -0.2
v 0.1 1.2 0.1
v 0.1 1.2 -0.2
v 0.1 1.3 0.1
v 0.1 1.3 -0.2
v 0.1 1.5 0.1
v 0.1 1.5 -0.2
v 0.1 1.6 0.1
v 0.1 1.6 -0.2
v 0 0.3 0.4
v 0 0.4 0.4
v 0.1 0.3 0.4
v 0.1 0.4 0.4
v 0 0.4 0.3
v 0 0.6 0.3
v 0.1 0.4 0.3
v 0.1 0.6 0.3
v -0.2 0.6 0.1
v -0.2 0.7 0.1
v -0.2 1.2 0.1
v -0.2 1.3 0.1
v -0.2 1.5 0.1
v -0.2 1.6 0.1
v 0 0.6 0.1
v 0.1 0.6 0.1
v 0.1 0.7 0.1
v 0.1 1.2 0.1
v 0.1 1.3 0.1
v 0.1 1.5 0.1
v 0.1 1.6 0.1
v -0.1 1.2 0
v -0.1 1.3 0
v 0 1.2 0
v 0 1.3 0
v -0.2 0.4 -0.1
v -0.2 0.6 -0.1
v -0.1 0.4 -0.1
v -0.1 0.6 -0.1
v -0.2 0.3 -0.4
v -0.2 0.4 -0.4
v -0.1 0.3 -0.4
v -0.1 0.4 -0.4
v 0 0.3 0.2
v 0 0.4 0.2
v 0 0.5 0.2
v 0.1 0.3 0.2
v 0.1 0.4 0.2
v 0.1 0.5 0.2
v 0 0.5 -0.1
v 0 0.6 -0.1
v 0.1 0.5 -0.1
v 0.1 0.6 -0.1
v -0.2 0.5 -0.2
v -0.2 0.7 -0.2
v -0.2 1.2 -0.2
v -0.2 1.3 -0.2
v -0.2 1.5 -0.2
v -0.2 1.6 -0.2
v -0.1 0.5 -0.2
v -0.1 0.6 -0.2
v -0.1 1.2 -0.2
v -0.1 1.3 -0.2
v 0 1.2 -0.2
v 0 1.3 -0.2
v 0.1 0.6 -0.2
v 0.1 0.7 -0.2
v 0.1 1.2 -0.2
v 0.1 1.3 -0.2
v 0.1 1.5 -0.2
v 0.1 1.6 -0.2
v -0.2 0.3 -0.5
v -0.2 0.5 -0.5
v -0.1 0.3 -0.5
v -0.1 0.5 -0.5
v 0 0.3 0.4
v 0.1 0.3 0.4
v 0 0.3 0.2
v 0.1 0.3 0.2
v -0.2 0.3 -0.4
v -0.1 0.3 -0.4
v -0.2 0.3 -0.5
v -0.1 0.3 -0.5
v -0.2 0.4 -0.1
v -0.1 0.4 -0.1
v -0.2 0.4 -0.4
v -0.1 0.4 -0.4
v 0 0.5 0.2
v 0.1 0.5 0.2
v 0 0.5 -0.1
v 0.1 0.5 -0.1
v -0.2 0.6 0.1
v 0 0.6 0.1
v -0.2 0.6 -0.1
v -0.1 0.6 -0.1
v 0 0.6 -0.1
v 0.1 0.6 -0.1
v -0.1 0.6 -0.2
v 0.1 0.6 -0.2
v -0.2 1.3 0.1
v 0.1 1.3 0.1
v -0.1 1.3 0
v 0 1.3 0
v -0.2 1.3 -0.2
v -0.1 1.3 -0.2
v 0 1.3 -0.2
v 0.1 1.3 -0.2
v 0 0.4 0.4
v 0.1 0.4 0.4
v 0 0.4 0.3
v 0.1 0.4 0.3
v -0.2 0.5 -0.2
v -0.1 0.5 -0.2
v -0.2 0.5 -0.4
v -0.1 0.5 -0.4
v -0.2 0.5 -0.5
v -0.1 0.5 -0.5
v 0 0.6 0.3
v 0.1 0.6 0.3
v 0 0.6 0.1
v 0.1 0.6 0.1
v -0.2 1.2 0.1
v 0.1 1.2 0.1
v -0.1 1.2 0
v 0 1.2 0
v -0.2 1.2 -0.2
v -0.1 1.2 -0.2
v 0 1.2 -0.2
v 0.1 1.2 -0.2
v -0.2 1.6 0.1
v 0.1 1.6 0.1
v -0.2 1.6 -0.2
v 0.1 1.6 -0.2

# faces
f 4/1/1 2/1/1 1/1/1
f 5/2/1 4/2/1 3/2/1
f 6/1/1 2/1/1 4/1/1
f 6/2/1 4/2/1 5/2/1
f 7/1/1 2/1/1 6/1/1
f 9/2/1 5/2/1 3/2/1
f 10/2/1 9/2/1 8/2/1
f 11/2/1 5/2/1 9/2/1
f 11/2/1 9/2/1 10/2/1
f 12/3/1 11/3/1 10/3/1
f 13/3/1 11/3/1 12/3/1
f 16/1/1 15/1/1 14/1/1
f 17/1/1 15/1/1 16/1/1
f 18/4/1 17/4/1 16/4/1
f 19/4/1 17/4/1 18/4/1
f 22/1/1 21/1/1 20/1/1
f 23/1/1 21/1/1 22/1/1
f 26/1/1 25/1/1 24/1/1
f 27/1/1 25/1/1 26/1/1
f 28/1/1 25/1/1 27/1/1
f 29/2/1 28/2/1 27/2/1
f 31/2/1 29/2/1 27/2/1
f 31/2/1 30/2/1 29/2/1
f 32/2/1 30/2/1 31/2/1
f 33/2/1 30/2/1 32/2/1
f 34/1/2 35/1/2 37/1/2
f 36/2/2 37/2/2 38/2/2
f 37/1/2 35/1/2 39/1/2
f 38/2/2 37/2/2 39/2/2
f 39/1/2 35/1/2 40/1/2
f 36/2/2 38/2/2 41/2/2
f 41/2/2 38/2/2 42/2/2
f 43/1/2 44/1/2 45/1/2
f 45/1/2 44/1/2 46/1/2
f 47/1/2 48/1/2 49/1/2
f 49/1/2 48/1/2 50/1/2
f 50/1/2 48/1/2 51/1/2
f 50/2/2 51/2/2 52/2/2
f 50/2/2 52/2/2 54/2/2
f 52/2/2 53/2/2 54/2/2
f 54/2/2 53/2/2 55/2/2
f 55/2/2 53/2/2 56/2/2
f 56/2/2 57/2/2 58/2/2
f 55/2/2 56/2/2 58/2/2
f 58/2/2 57/2/2 59/2/2
f 58/3/2 59/3/2 60/3/2
f 60/3/2 59/3/2 61/3/2
f 62/1/2 63/1/2 64/1/2
f 64/1/2 63/1/2 65/1/2
f 64/4/2 65/4/2 66/4/2
f 66/4/2 65/4/2 67/4/2
f 70/1/3 69/1/3 68/1/3
f 71/1/3 69/1/3 70/1/3
f 74/2/3 73/2/3 72/2/3
f 75/2/3 73/2/3 74/2/3
f 82/2/3 77/2/3 76/2/3
f 83/2/3 77/2/3 82/2/3
f 84/3/3 78/3/3 77/3/3
f 84/2/3 77/2/3 83/2/3
f 85/3/3 78/3/3 84/3/3
f 86/1/3 80/1/3 79/1/3
f 87/4/3 81/4/3 80/4/3
f 87/1/3 80/1/3 86/1/3
f 88/4/3 81/4/3 87/4/3
f 91/1/3 90/1/3 89/1/3
f 92/1/3 90/1/3 91/1/3
f 95/2/3 94/2/3 93/2/3
f 96/2/3 94/2/3 95/2/3
f 99/1/3 98/1/3 97/1/3
f 100/1/3 98/1/3 99/1/3
f 101/1/4 102/1/4 104/1/4
f 102/2/4 103/2/4 105/2/4
f 104/1/4 102/1/4 105/1/4
f 105/2/4 103/2/4 106/2/4
f 107/2/4 108/2/4 109/2/4
f 109/2/4 108/2/4 110/2/4
f 111/2/4 112/2/4 117/2/4
f 117/2/4 112/2/4 118/2/4
f 112/3/4 113/3/4 119/3/4
f 114/1/4 115/1/4 120/1/4
f 112/3/4 119/3/4 121/3/4
f 119/1/4 120/1/4 121/1/4
f 120/1/4 115/1/4 122/1/4
f 121/1/4 120/1/4 122/1/4
f 118/2/4 112/2/4 123/2/4
f 112/3/4 121/3/4 124/3/4
f 123/2/4 112/2/4 124/2/4
f 124/3/4 121/3/4 125/3/4
f 122/1/4 115/1/4 126/1/4
f 115/4/4 116/4/4 127/4/4
f 126/1/4 115/1/4 127/1/4
f 127/4/4 116/4/4 128/4/4
f 129/1/4 130/1/4 131/1/4
f 131/1/4 130/1/4 132/1/4
f 135/1/5 134/1/5 133/1/5
f 136/1/5 134/1/5 135/1/5
f 139/1/5 138/1/5 137/1/5
f 140/1/5 138/1/5 139/1/5
f 143/2/5 142/2/5 141/2/5
f 144/2/5 142/2/5 143/2/5
f 147/2/5 146/2/5 145/2/5
f 148/2/5 146/2/5 147/2/5
f 151/2/5 150/2/5 149/2/5
f 152/2/5 150/2/5 151/2/5
f 153/2/5 150/2/5 152/2/5
f 155/2/5 154/2/5 153/2/5
f 155/2/5 153/2/5 152/2/5
f 156/2/5 154/2/5 155/2/5
f 159/1/5 158/1/5 157/1/5
f 160/1/5 158/1/5 159/1/5
f 161/1/5 159/1/5 157/1/5
f 162/1/5 159/1/5 161/1/5
f 163/1/5 158/1/5 160/1/5
f 164/1/5 158/1/5 163/1/5
f 165/1/6 166/1/6 167/1/6
f 167/1/6 166/1/6 168/1/6
f 169/2/6 170/2/6 171/2/6
f 171/2/6 170/2/6 172/2/6
f 171/1/6 172/1/6 173/1/6
f 173/1/6 172/1/6 174/1/6
f 175/2/6 176/2/6 177/2/6
f 177/2/6 176/2/6 178/2/6
f 179/3/6 180/3/6 181/3/6
f 181/3/6 180/3/6 182/3/6
f 179/3/6 181/3/6 183/3/6
f 183/3/6 181/3/6 184/3/6
f 182/3/6 180/3/6 185/3/6
f 185/3/6 180/3/6 186/3/6
f 187/4/6 188/4/6 189/4/6
f 189/4/6 188/4/6 190/4/6
