# MagicaVoxel @ Ephtracy

# group
o torso

# material
mtllib torso_walk-7-torso.mtl
usemtl palette

# normals
vn -1 0 0
vn 1 0 0
vn 0 0 1
vn 0 0 -1
vn 0 -1 0
vn 0 1 0

# texcoords
vt 0.970703 0.5
vt 0.974609 0.5
vt 0.978516 0.5
vt 0.982422 0.5

# verts
v -0.2 0.1 -0.1
v -0.2 0.1 -0.3
v -0.2 0.2 -0.1
v -0.2 0.2 -0.2
v -0.2 0.2 -0.3
v -0.2 0.3 -0.1
v -0.2 0.3 -0.2
v -0.2 0.3 -0.3
v -0.2 0.4 -1.49012e-08
v -0.2 0.4 -0.1
v -0.2 0.4 -0.2
v -0.2 0.5 -1.49012e-08
v -0.2 0.5 -0.1
v -0.2 0.5 -0.2
v -0.2 0.6 0.1
v -0.2 0.6 -0.1
v -0.2 0.7 0.1
v -0.2 0.7 -0.2
v -0.2 1.2 0.1
v -0.2 1.2 -0.2
v -0.2 1.3 0.1
v -0.2 1.3 -0.2
v -0.2 1.5 0.1
v -0.2 1.5 -0.2
v -0.2 1.6 0.1
v -0.2 1.6 -0.2
v -0.1 1.2 -1.49012e-08
v -0.1 1.2 -0.2
v -0.1 1.3 -1.49012e-08
v -0.1 1.3 -0.2
v 0 0 0.1
v 0 0 -0.1
v 0 0.1 0.1
v 0 0.1 -1.49012e-08
v 0 0.1 -0.1
v 0 0.6 -1.49012e-08
v 0 0.6 -0.1
v -0.1 0.1 -0.1
v -0.1 0.1 -0.3
v -0.1 0.2 -0.1
v -0.1 0.2 -0.2
v -0.1 0.2 -0.3
v -0.1 0.3 -0.1
v -0.1 0.3 -0.2
v -0.1 0.3 -0.3
v -0.1 0.4 -1.49012e-08
v -0.1 0.4 -0.1
v -0.1 0.4 -0.2
v -0.1 0.5 -1.49012e-08
v -0.1 0.5 -0.1
v -0.1 0.5 -0.2
v -0.1 0.6 -0.1
v -0.1 0.6 -0.2
v 0 1.2 -1.49012e-08
v 0 1.2 -0.2
v 0 1.3 -1.49012e-08
v 0 1.3 -0.2
v 0.1 0 0.1
v 0.1 0 -0.1
v 0.1 0.1 0.1
v 0.1 0.1 -1.49012e-08
v 0.1 0.1 -0.1
v 0.1 0.6 0.1
v 0.1 0.6 -1.49012e-08
v 0.1 0.6 -0.1
v 0.1 0.6 -0.2
v 0.1 0.7 0.1
v 0.1 0.7 -0.2
v 0.1 1.2 0.1
v 0.1 1.2 -0.2
v 0.1 1.3 0.1
v 0.1 1.3 -0.2
v 0.1 1.5 0.1
v 0.1 1.5 -0.2
v 0.1 1.6 0.1
v 0.1 1.6 -0.2
v -0.2 0.6 0.1
v -0.2 0.7 0.1
v -0.2 1.2 0.1
v -0.2 1.3 0.1
v -0.2 1.5 0.1
v -0.2 1.6 0.1
v 0 0 0.1
v 0 0.1 0.1
v 0.1 0 0.1
v 0.1 0.1 0.1
v 0.1 0.6 0.1
v 0.1 0.7 0.1
v 0.1 1.2 0.1
v 0.1 1.3 0.1
v 0.1 1.5 0.1
v 0.1 1.6 0.1
v -0.2 0.4 -1.49012e-08
v -0.2 0.5 -1.49012e-08
v -0.1 0.4 -1.49012e-08
v -0.1 0.5 -1.49012e-08
v -0.1 1.2 -1.49012e-08
v -0.1 1.3 -1.49012e-08
v 0 0.1 -1.49012e-08
v 0 0.6 -1.49012e-08
v 0 1.2 -1.49012e-08
v 0 1.3 -1.49012e-08
v 0.1 0.1 -1.49012e-08
v 0.1 0.6 -1.49012e-08
v -0.2 0.1 -0.1
v -0.2 0.2 -0.1
v -0.2 0.3 -0.1
v -0.2 0.4 -0.1
v -0.2 0.5 -0.1
v -0.2 0.6 -0.1
v -0.1 0.1 -0.1
v -0.1 0.2 -0.1
v -0.1 0.3 -0.1
v -0.1 0.4 -0.1
v -0.1 0.5 -0.1
v -0.1 0.6 -0.1
v -0.2 0.2 -0.2
v -0.2 0.3 -0.2
v -0.1 0.2 -0.2
v -0.1 0.3 -0.2
v -0.2 0.4 -0.1
v -0.2 0.5 -0.1
v -0.1 0.4 -0.1
v -0.1 0.5 -0.1
v 0 0 -0.1
v 0 0.1 -0.1
v 0 0.6 -0.1
v 0.1 0 -0.1
v 0.1 0.1 -0.1
v 0.1 0.6 -0.1
v -0.2 0.3 -0.2
v -0.2 0.4 -0.2
v -0.2 0.5 -0.2
v -0.2 0.7 -0.2
v -0.2 1.2 -0.2
v -0.2 1.3 -0.2
v -0.2 1.5 -0.2
v -0.2 1.6 -0.2
v -0.1 0.3 -0.2
v -0.1 0.4 -0.2
v -0.1 0.5 -0.2
v -0.1 0.6 -0.2
v -0.1 1.2 -0.2
v -0.1 1.3 -0.2
v 0 1.2 -0.2
v 0 1.3 -0.2
v 0.1 0.6 -0.2
v 0.1 0.7 -0.2
v 0.1 1.2 -0.2
v 0.1 1.3 -0.2
v 0.1 1.5 -0.2
v 0.1 1.6 -0.2
v -0.2 0.1 -0.3
v -0.2 0.2 -0.3
v -0.2 0.3 -0.3
v -0.1 0.1 -0.3
v -0.1 0.2 -0.3
v -0.1 0.3 -0.3
v 0 0 0.1
v 0.1 0 0.1
v 0 0 -0.1
v 0.1 0 -0.1
v -0.2 0.1 -0.1
v -0.1 0.1 -0.1
v -0.2 0.1 -0.3
v -0.1 0.1 -0.3
v -0.2 0.3 -0.1
v -0.1 0.3 -0.1
v -0.2 0.3 -0.2
v -0.1 0.3 -0.2
v -0.2 0.4 -1.49012e-08
v -0.1 0.4 -1.49012e-08
v -0.2 0.4 -0.1
v -0.1 0.4 -0.1
v -0.2 0.5 -0.1
v -0.1 0.5 -0.1
v -0.2 0.5 -0.2
v -0.1 0.5 -0.2
v -0.2 0.6 0.1
v 0.1 0.6 0.1
v 0 0.6 -1.49012e-08
v 0.1 0.6 -1.49012e-08
v -0.2 0.6 -0.1
v -0.1 0.6 -0.1
v 0 0.6 -0.1
v 0.1 0.6 -0.1
v -0.1 0.6 -0.2
v 0.1 0.6 -0.2
v -0.2 1.3 0.1
v 0.1 1.3 0.1
v -0.1 1.3 -1.49012e-08
v 0 1.3 -1.49012e-08
v -0.2 1.3 -0.2
v -0.1 1.3 -0.2
v 0 1.3 -0.2
v 0.1 1.3 -0.2
v 0 0.1 0.1
v 0.1 0.1 0.1
v 0 0.1 -1.49012e-08
v 0.1 0.1 -1.49012e-08
v -0.2 0.2 -0.1
v -0.1 0.2 -0.1
v -0.2 0.2 -0.2
v -0.1 0.2 -0.2
v -0.2 0.3 -0.2
v -0.1 0.3 -0.2
v -0.2 0.3 -0.3
v -0.1 0.3 -0.3
v -0.2 0.4 -0.1
v -0.1 0.4 -0.1
v -0.2 0.4 -0.2
v -0.1 0.4 -0.2
v -0.2 0.5 -1.49012e-08
v -0.1 0.5 -1.49012e-08
v -0.2 0.5 -0.1
v -0.1 0.5 -0.1
v -0.2 1.2 0.1
v 0.1 1.2 0.1
v -0.1 1.2 -1.49012e-08
v 0 1.2 -1.49012e-08
v -0.2 1.2 -0.2
v -0.1 1.2 -0.2
v 0 1.2 -0.2
v 0.1 1.2 -0.2
v -0.2 1.6 0.1
v 0.1 1.6 0.1
v -0.2 1.6 -0.2
v 0.1 1.6 -0.2

# faces
f 3/1/1 2/1/1 1/1/1
f 4/1/1 2/1/1 3/1/1
f 5/1/1 2/1/1 4/1/1
f 7/2/1 5/2/1 4/2/1
f 8/2/1 5/2/1 7/2/1
f 10/2/1 7/2/1 6/2/1
f 11/2/1 7/2/1 10/2/1
f 12/2/1 10/2/1 9/2/1
f 13/2/1 10/2/1 12/2/1
f 16/2/1 14/2/1 13/2/1
f 17/2/1 16/2/1 15/2/1
f 18/2/1 14/2/1 16/2/1
f 18/2/1 16/2/1 17/2/1
f 19/3/1 18/3/1 17/3/1
f 20/3/1 18/3/1 19/3/1
f 23/1/1 22/1/1 21/1/1
f 24/1/1 22/1/1 23/1/1
f 25/4/1 24/4/1 23/4/1
f 26/4/1 24/4/1 25/4/1
f 29/1/1 28/1/1 27/1/1
f 30/1/1 28/1/1 29/1/1
f 33/1/1 32/1/1 31/1/1
f 34/1/1 32/1/1 33/1/1
f 35/1/1 32/1/1 34/1/1
f 36/2/1 35/2/1 34/2/1
f 37/2/1 35/2/1 36/2/1
f 38/1/2 39/1/2 40/1/2
f 40/1/2 39/1/2 41/1/2
f 41/1/2 39/1/2 42/1/2
f 41/2/2 42/2/2 44/2/2
f 44/2/2 42/2/2 45/2/2
f 43/2/2 44/2/2 47/2/2
f 47/2/2 44/2/2 48/2/2
f 46/2/2 47/2/2 49/2/2
f 49/2/2 47/2/2 50/2/2
f 50/2/2 51/2/2 52/2/2
f 52/2/2 51/2/2 53/2/2
f 54/1/2 55/1/2 56/1/2
f 56/1/2 55/1/2 57/1/2
f 58/1/2 59/1/2 60/1/2
f 60/1/2 59/1/2 61/1/2
f 61/1/2 59/1/2 62/1/2
f 61/2/2 62/2/2 64/2/2
f 64/2/2 62/2/2 65/2/2
f 64/2/2 65/2/2 67/2/2
f 65/2/2 66/2/2 67/2/2
f 63/2/2 64/2/2 67/2/2
f 67/2/2 66/2/2 68/2/2
f 67/3/2 68/3/2 69/3/2
f 69/3/2 68/3/2 70/3/2
f 71/1/2 72/1/2 73/1/2
f 73/1/2 72/1/2 74/1/2
f 73/4/2 74/4/2 75/4/2
f 75/4/2 74/4/2 76/4/2
f 85/1/3 84/1/3 83/1/3
f 86/1/3 84/1/3 85/1/3
f 87/2/3 78/2/3 77/2/3
f 88/3/3 79/3/3 78/3/3
f 88/2/3 78/2/3 87/2/3
f 89/3/3 79/3/3 88/3/3
f 90/1/3 81/1/3 80/1/3
f 91/4/3 82/4/3 81/4/3
f 91/1/3 81/1/3 90/1/3
f 92/4/3 82/4/3 91/4/3
f 95/2/3 94/2/3 93/2/3
f 96/2/3 94/2/3 95/2/3
f 101/1/3 98/1/3 97/1/3
f 102/1/3 98/1/3 101/1/3
f 103/2/3 100/2/3 99/2/3
f 104/2/3 100/2/3 103/2/3
f 111/1/3 106/1/3 105/1/3
f 112/1/3 106/1/3 111/1/3
f 113/2/3 108/2/3 107/2/3
f 114/2/3 108/2/3 113/2/3
f 115/2/3 110/2/3 109/2/3
f 116/2/3 110/2/3 115/2/3
f 119/2/3 118/2/3 117/2/3
f 120/2/3 118/2/3 119/2/3
f 121/2/4 122/2/4 123/2/4
f 123/2/4 122/2/4 124/2/4
f 125/1/4 126/1/4 128/1/4
f 126/2/4 127/2/4 129/2/4
f 128/1/4 126/1/4 129/1/4
f 129/2/4 127/2/4 130/2/4
f 131/2/4 132/2/4 139/2/4
f 139/2/4 132/2/4 140/2/4
f 133/2/4 134/2/4 141/2/4
f 141/2/4 134/2/4 142/2/4
f 134/3/4 135/3/4 143/3/4
f 136/1/4 137/1/4 144/1/4
f 143/1/4 144/1/4 145/1/4
f 134/3/4 143/3/4 145/3/4
f 144/1/4 137/1/4 146/1/4
f 145/1/4 144/1/4 146/1/4
f 142/2/4 134/2/4 147/2/4
f 134/3/4 145/3/4 148/3/4
f 147/2/4 134/2/4 148/2/4
f 148/3/4 145/3/4 149/3/4
f 146/1/4 137/1/4 150/1/4
f 137/4/4 138/4/4 151/4/4
f 150/1/4 137/1/4 151/1/4
f 151/4/4 138/4/4 152/4/4
f 153/1/4 154/1/4 156/1/4
f 154/2/4 155/2/4 157/2/4
f 156/1/4 154/1/4 157/1/4
f 157/2/4 155/2/4 158/2/4
f 161/1/5 160/1/5 159/1/5
f 162/1/5 160/1/5 161/1/5
f 165/1/5 164/1/5 163/1/5
f 166/1/5 164/1/5 165/1/5
f 169/2/5 168/2/5 167/2/5
f 170/2/5 168/2/5 169/2/5
f 173/2/5 172/2/5 171/2/5
f 174/2/5 172/2/5 173/2/5
f 177/2/5 176/2/5 175/2/5
f 178/2/5 176/2/5 177/2/5
f 181/2/5 180/2/5 179/2/5
f 182/2/5 180/2/5 181/2/5
f 183/2/5 181/2/5 179/2/5
f 184/2/5 181/2/5 183/2/5
f 185/2/5 181/2/5 184/2/5
f 187/2/5 186/2/5 185/2/5
f 187/2/5 185/2/5 184/2/5
f 188/2/5 186/2/5 187/2/5
f 191/1/5 190/1/5 189/1/5
f 192/1/5 190/1/5 191/1/5
f 193/1/5 191/1/5 189/1/5
f 194/1/5 191/1/5 193/1/5
f 195/1/5 190/1/5 192/1/5
f 196/1/5 190/1/5 195/1/5
f 197/1/6 198/1/6 199/1/6
f 199/1/6 198/1/6 200/1/6
f 201/1/6 202/1/6 203/1/6
f 203/1/6 202/1/6 204/1/6
f 205/2/6 206/2/6 207/2/6
f 207/2/6 206/2/6 208/2/6
f 209/2/6 210/2/6 211/2/6
f 211/2/6 210/2/6 212/2/6
f 213/2/6 214/2/6 215/2/6
f 215/2/6 214/2/6 216/2/6
f 217/3/6 218/3/6 219/3/6
f 219/3/6 218/3/6 220/3/6
f 217/3/6 219/3/6 221/3/6
f 221/3/6 219/3/6 222/3/6
f 220/3/6 218/3/6 223/3/6
f 223/3/6 218/3/6 224/3/6
f 225/4/6 226/4/6 227/4/6
f 227/4/6 226/4/6 228/4/6
