# MagicaVoxel @ Ephtracy

# group
o torso_walk

# material
mtllib -5-torso_walk.mtl
usemtl palette

# normals
vn -1 0 0
vn 1 0 0
vn 0 0 1
vn 0 0 -1
vn 0 -1 0
vn 0 1 0

# texcoords
vt 0.970703 0.5
vt 0.974609 0.5
vt 0.978516 0.5
vt 0.982422 0.5

# verts
v -0.2 0.1 0.1
v -0.2 0.1 0
v -0.2 0.2 0.1
v -0.2 0.2 0
v -0.1 0.2 0.1
v -0.1 0.2 0
v -0.1 0.5 0.1
v -0.1 0.5 0
v -0.1 0.6 0.1
v -0.1 0.6 -0.2
v -0.1 0.7 0.1
v -0.1 0.7 -0.2
v -0.1 1.2 0.1
v -0.1 1.2 -0.2
v -0.1 1.3 0.1
v -0.1 1.3 -0.2
v -0.1 1.5 0.1
v -0.1 1.5 -0.2
v -0.1 1.6 0.1
v -0.1 1.6 -0.2
v 2.98023e-08 0.5 0.1
v 2.98023e-08 0.5 0
v 2.98023e-08 0.6 0.1
v 2.98023e-08 0.6 0
v 2.98023e-08 1.2 0
v 2.98023e-08 1.2 -0.1
v 2.98023e-08 1.3 0
v 2.98023e-08 1.3 -0.1
v 0.1 0.5 -0.1
v 0.1 0.5 -0.2
v 0.1 0.6 -0.1
v 0.1 0.6 -0.2
v 0.2 0 -0.1
v 0.2 0 -0.2
v 0.2 0.1 -0.1
v 0.2 0.1 -0.2
v 0.2 0.3 -0.1
v 0.2 0.3 -0.2
v 0.2 0.5 -0.1
v 0.2 0.5 -0.2
v 0.3 0.1 -0.1
v 0.3 0.1 -0.2
v 0.3 0.3 -0.1
v 0.3 0.3 -0.2
v 2.98023e-08 0.1 0.1
v 2.98023e-08 0.1 0
v 2.98023e-08 0.2 0.1
v 2.98023e-08 0.2 0
v 2.98023e-08 0.5 0.1
v 2.98023e-08 0.5 0
v 0.1 0.5 0.1
v 0.1 0.5 0
v 0.1 0.6 0.1
v 0.1 0.6 0
v 0.2 0.5 -0.1
v 0.2 0.5 -0.2
v 0.2 0.6 0.1
v 0.2 0.6 -0.1
v 0.2 0.7 0.1
v 0.2 0.7 -0.2
v 0.2 1.2 0.1
v 0.2 1.2 0
v 0.2 1.2 -0.1
v 0.2 1.2 -0.2
v 0.2 1.3 0.1
v 0.2 1.3 0
v 0.2 1.3 -0.1
v 0.2 1.3 -0.2
v 0.2 1.5 0.1
v 0.2 1.5 -0.2
v 0.2 1.6 0.1
v 0.2 1.6 -0.2
v 0.3 0.3 -0.1
v 0.3 0.3 -0.2
v 0.3 0.5 -0.1
v 0.3 0.5 -0.2
v 0.4 0 -0.1
v 0.4 0 -0.2
v 0.4 0.1 -0.1
v 0.4 0.1 -0.2
v 0.4 0.3 -0.1
v 0.4 0.3 -0.2
v -0.2 0.1 0.1
v -0.2 0.2 0.1
v -0.1 0.2 0.1
v -0.1 0.5 0.1
v -0.1 0.6 0.1
v -0.1 0.7 0.1
v -0.1 1.2 0.1
v -0.1 1.3 0.1
v -0.1 1.5 0.1
v -0.1 1.6 0.1
v 2.98023e-08 0.1 0.1
v 2.98023e-08 0.2 0.1
v 2.98023e-08 0.5 0.1
v 2.98023e-08 0.6 0.1
v 0.1 0.5 0.1
v 0.1 0.6 0.1
v 0.2 0.6 0.1
v 0.2 0.7 0.1
v 0.2 1.2 0.1
v 0.2 1.3 0.1
v 0.2 1.5 0.1
v 0.2 1.6 0.1
v 2.98023e-08 1.2 0
v 2.98023e-08 1.3 0
v 0.2 1.2 0
v 0.2 1.3 0
v 0.1 0.5 -0.1
v 0.1 0.6 -0.1
v 0.2 0 -0.1
v 0.2 0.1 -0.1
v 0.2 0.3 -0.1
v 0.2 0.5 -0.1
v 0.2 0.6 -0.1
v 0.3 0.1 -0.1
v 0.3 0.3 -0.1
v 0.3 0.5 -0.1
v 0.4 0 -0.1
v 0.4 0.1 -0.1
v 0.4 0.3 -0.1
v -0.2 0.1 0
v -0.2 0.2 0
v -0.1 0.2 0
v -0.1 0.5 0
v 2.98023e-08 0.1 0
v 2.98023e-08 0.2 0
v 2.98023e-08 0.5 0
v 2.98023e-08 0.6 0
v 0.1 0.5 0
v 0.1 0.6 0
v 2.98023e-08 1.2 -0.1
v 2.98023e-08 1.3 -0.1
v 0.2 1.2 -0.1
v 0.2 1.3 -0.1
v -0.1 0.6 -0.2
v -0.1 0.7 -0.2
v -0.1 1.2 -0.2
v -0.1 1.3 -0.2
v -0.1 1.5 -0.2
v -0.1 1.6 -0.2
v 0.1 0.5 -0.2
v 0.1 0.6 -0.2
v 0.2 0 -0.2
v 0.2 0.1 -0.2
v 0.2 0.3 -0.2
v 0.2 0.5 -0.2
v 0.2 0.7 -0.2
v 0.2 1.2 -0.2
v 0.2 1.3 -0.2
v 0.2 1.5 -0.2
v 0.2 1.6 -0.2
v 0.3 0.1 -0.2
v 0.3 0.3 -0.2
v 0.3 0.5 -0.2
v 0.4 0 -0.2
v 0.4 0.1 -0.2
v 0.4 0.3 -0.2
v 0.2 0 -0.1
v 0.4 0 -0.1
v 0.2 0 -0.2
v 0.4 0 -0.2
v -0.2 0.1 0.1
v 2.98023e-08 0.1 0.1
v -0.2 0.1 0
v 2.98023e-08 0.1 0
v 0.2 0.3 -0.1
v 0.3 0.3 -0.1
v 0.2 0.3 -0.2
v 0.3 0.3 -0.2
v 2.98023e-08 0.5 0.1
v 0.1 0.5 0.1
v 2.98023e-08 0.5 0
v 0.1 0.5 0
v 0.1 0.5 -0.1
v 0.2 0.5 -0.1
v 0.1 0.5 -0.2
v 0.2 0.5 -0.2
v -0.1 0.6 0.1
v 2.98023e-08 0.6 0.1
v 0.1 0.6 0.1
v 0.2 0.6 0.1
v 2.98023e-08 0.6 0
v 0.1 0.6 0
v 0.1 0.6 -0.1
v 0.2 0.6 -0.1
v -0.1 0.6 -0.2
v 0.1 0.6 -0.2
v -0.1 1.3 0.1
v 0.2 1.3 0.1
v 2.98023e-08 1.3 0
v 0.2 1.3 0
v 2.98023e-08 1.3 -0.1
v 0.2 1.3 -0.1
v -0.1 1.3 -0.2
v 0.2 1.3 -0.2
v 0.2 0.1 -0.1
v 0.3 0.1 -0.1
v 0.2 0.1 -0.2
v 0.3 0.1 -0.2
v -0.2 0.2 0.1
v -0.1 0.2 0.1
v -0.2 0.2 0
v -0.1 0.2 0
v 0.3 0.3 -0.1
v 0.4 0.3 -0.1
v 0.3 0.3 -0.2
v 0.4 0.3 -0.2
v -0.1 0.5 0.1
v 2.98023e-08 0.5 0.1
v -0.1 0.5 0
v 2.98023e-08 0.5 0
v 0.2 0.5 -0.1
v 0.3 0.5 -0.1
v 0.2 0.5 -0.2
v 0.3 0.5 -0.2
v -0.1 1.2 0.1
v 0.2 1.2 0.1
v 2.98023e-08 1.2 0
v 0.2 1.2 0
v 2.98023e-08 1.2 -0.1
v 0.2 1.2 -0.1
v -0.1 1.2 -0.2
v 0.2 1.2 -0.2
v -0.1 1.6 0.1
v 0.2 1.6 0.1
v -0.1 1.6 -0.2
v 0.2 1.6 -0.2

# faces
f 3/1/1 2/1/1 1/1/1
f 4/1/1 2/1/1 3/1/1
f 7/2/1 6/2/1 5/2/1
f 8/2/1 6/2/1 7/2/1
f 11/2/1 10/2/1 9/2/1
f 12/2/1 10/2/1 11/2/1
f 13/3/1 12/3/1 11/3/1
f 14/3/1 12/3/1 13/3/1
f 17/1/1 16/1/1 15/1/1
f 18/1/1 16/1/1 17/1/1
f 19/4/1 18/4/1 17/4/1
f 20/4/1 18/4/1 19/4/1
f 23/2/1 22/2/1 21/2/1
f 24/2/1 22/2/1 23/2/1
f 27/1/1 26/1/1 25/1/1
f 28/1/1 26/1/1 27/1/1
f 31/2/1 30/2/1 29/2/1
f 32/2/1 30/2/1 31/2/1
f 35/1/1 34/1/1 33/1/1
f 36/1/1 34/1/1 35/1/1
f 39/2/1 38/2/1 37/2/1
f 40/2/1 38/2/1 39/2/1
f 43/2/1 42/2/1 41/2/1
f 44/2/1 42/2/1 43/2/1
f 45/1/2 46/1/2 47/1/2
f 47/1/2 46/1/2 48/1/2
f 47/2/2 48/2/2 49/2/2
f 49/2/2 48/2/2 50/2/2
f 51/2/2 52/2/2 53/2/2
f 53/2/2 52/2/2 54/2/2
f 55/2/2 56/2/2 58/2/2
f 57/2/2 58/2/2 59/2/2
f 58/2/2 56/2/2 60/2/2
f 59/2/2 58/2/2 60/2/2
f 59/3/2 60/3/2 61/3/2
f 61/3/2 60/3/2 62/3/2
f 62/3/2 60/3/2 63/3/2
f 63/3/2 60/3/2 64/3/2
f 62/1/2 63/1/2 66/1/2
f 66/1/2 63/1/2 67/1/2
f 65/1/2 66/1/2 69/1/2
f 67/1/2 68/1/2 69/1/2
f 66/1/2 67/1/2 69/1/2
f 69/1/2 68/1/2 70/1/2
f 69/4/2 70/4/2 71/4/2
f 71/4/2 70/4/2 72/4/2
f 73/2/2 74/2/2 75/2/2
f 75/2/2 74/2/2 76/2/2
f 77/1/2 78/1/2 79/1/2
f 79/1/2 78/1/2 80/1/2
f 79/2/2 80/2/2 81/2/2
f 81/2/2 80/2/2 82/2/2
f 85/1/3 84/1/3 83/1/3
f 93/1/3 85/1/3 83/1/3
f 94/2/3 86/2/3 85/2/3
f 94/1/3 85/1/3 93/1/3
f 95/2/3 86/2/3 94/2/3
f 96/2/3 88/2/3 87/2/3
f 97/2/3 96/2/3 95/2/3
f 98/2/3 88/2/3 96/2/3
f 98/2/3 96/2/3 97/2/3
f 99/2/3 88/2/3 98/2/3
f 100/3/3 89/3/3 88/3/3
f 100/2/3 88/2/3 99/2/3
f 101/3/3 89/3/3 100/3/3
f 102/1/3 91/1/3 90/1/3
f 103/4/3 92/4/3 91/4/3
f 103/1/3 91/1/3 102/1/3
f 104/4/3 92/4/3 103/4/3
f 107/1/3 106/1/3 105/1/3
f 108/1/3 106/1/3 107/1/3
f 114/2/3 110/2/3 109/2/3
f 115/2/3 110/2/3 114/2/3
f 116/1/3 112/1/3 111/1/3
f 117/2/3 114/2/3 113/2/3
f 118/2/3 114/2/3 117/2/3
f 119/1/3 116/1/3 111/1/3
f 120/2/3 117/2/3 116/2/3
f 120/1/3 116/1/3 119/1/3
f 121/2/3 117/2/3 120/2/3
f 122/1/4 123/1/4 124/1/4
f 122/1/4 124/1/4 126/1/4
f 124/2/4 125/2/4 127/2/4
f 126/1/4 124/1/4 127/1/4
f 127/2/4 125/2/4 128/2/4
f 128/2/4 129/2/4 130/2/4
f 130/2/4 129/2/4 131/2/4
f 132/1/4 133/1/4 134/1/4
f 134/1/4 133/1/4 135/1/4
f 136/2/4 137/2/4 143/2/4
f 142/2/4 143/2/4 147/2/4
f 137/3/4 138/3/4 148/3/4
f 143/2/4 137/2/4 148/2/4
f 147/2/4 143/2/4 148/2/4
f 148/3/4 138/3/4 149/3/4
f 139/1/4 140/1/4 150/1/4
f 140/4/4 141/4/4 151/4/4
f 150/1/4 140/1/4 151/1/4
f 151/4/4 141/4/4 152/4/4
f 144/1/4 145/1/4 153/1/4
f 146/2/4 147/2/4 154/2/4
f 154/2/4 147/2/4 155/2/4
f 144/1/4 153/1/4 156/1/4
f 153/2/4 154/2/4 157/2/4
f 156/1/4 153/1/4 157/1/4
f 157/2/4 154/2/4 158/2/4
f 161/1/5 160/1/5 159/1/5
f 162/1/5 160/1/5 161/1/5
f 165/1/5 164/1/5 163/1/5
f 166/1/5 164/1/5 165/1/5
f 169/2/5 168/2/5 167/2/5
f 170/2/5 168/2/5 169/2/5
f 173/2/5 172/2/5 171/2/5
f 174/2/5 172/2/5 173/2/5
f 177/2/5 176/2/5 175/2/5
f 178/2/5 176/2/5 177/2/5
f 183/2/5 180/2/5 179/2/5
f 184/2/5 182/2/5 181/2/5
f 185/2/5 182/2/5 184/2/5
f 185/2/5 184/2/5 183/2/5
f 186/2/5 182/2/5 185/2/5
f 187/2/5 183/2/5 179/2/5
f 187/2/5 185/2/5 183/2/5
f 188/2/5 185/2/5 187/2/5
f 191/1/5 190/1/5 189/1/5
f 192/1/5 190/1/5 191/1/5
f 193/1/5 191/1/5 189/1/5
f 195/1/5 193/1/5 189/1/5
f 195/1/5 194/1/5 193/1/5
f 196/1/5 194/1/5 195/1/5
f 197/1/6 198/1/6 199/1/6
f 199/1/6 198/1/6 200/1/6
f 201/1/6 202/1/6 203/1/6
f 203/1/6 202/1/6 204/1/6
f 205/2/6 206/2/6 207/2/6
f 207/2/6 206/2/6 208/2/6
f 209/2/6 210/2/6 211/2/6
f 211/2/6 210/2/6 212/2/6
f 213/2/6 214/2/6 215/2/6
f 215/2/6 214/2/6 216/2/6
f 217/3/6 218/3/6 219/3/6
f 219/3/6 218/3/6 220/3/6
f 217/3/6 219/3/6 221/3/6
f 217/3/6 221/3/6 223/3/6
f 221/3/6 222/3/6 223/3/6
f 223/3/6 222/3/6 224/3/6
f 225/4/6 226/4/6 227/4/6
f 227/4/6 226/4/6 228/4/6
