# MagicaVoxel @ Ephtracy

# group
o torso_static

# material
mtllib human-8-torso_static.mtl
usemtl palette

# normals
vn -1 0 0
vn 1 0 0
vn 0 0 1
vn 0 0 -1
vn 0 -1 0
vn 0 1 0

# texcoords
vt 0.970703 0.5
vt 0.978516 0.5
vt 0.982422 0.5

# verts
v -0.2 0.7 0.1
v -0.2 0.7 -0.2
v -0.2 1.2 0.1
v -0.2 1.2 -0.2
v -0.2 1.4 0.1
v -0.2 1.4 -0.2
v -0.2 1.6 0.1
v -0.2 1.6 -0.2
v -0.2 1.7 0.1
v -0.2 1.7 -0.2
v -0.1 1.2 0.1
v -0.1 1.2 -0.2
v -0.1 1.3 0.1
v -0.1 1.3 1.49012e-08
v -0.1 1.3 -0.1
v -0.1 1.3 -0.2
v -0.1 1.4 1.49012e-08
v -0.1 1.4 -0.1
v 0.1 0.7 0.1
v 0.1 0.7 -0.2
v 0.1 1.3 0.1
v 0.1 1.3 1.49012e-08
v 0.1 1.3 -0.1
v 0.1 1.3 -0.2
v 0.1 1.4 0.1
v 0.1 1.4 1.49012e-08
v 0.1 1.4 -0.1
v 0.1 1.4 -0.2
v 0.1 1.6 0.1
v 0.1 1.6 -0.2
v 0.1 1.7 0.1
v 0.1 1.7 -0.2
v -0.2 0.7 0.1
v -0.2 1.2 0.1
v -0.2 1.4 0.1
v -0.2 1.6 0.1
v -0.2 1.7 0.1
v -0.1 1.2 0.1
v -0.1 1.3 0.1
v 0.1 0.7 0.1
v 0.1 1.3 0.1
v 0.1 1.4 0.1
v 0.1 1.6 0.1
v 0.1 1.7 0.1
v -0.1 1.3 1.49012e-08
v -0.1 1.4 1.49012e-08
v 0.1 1.3 1.49012e-08
v 0.1 1.4 1.49012e-08
v -0.1 1.3 -0.1
v -0.1 1.4 -0.1
v 0.1 1.3 -0.1
v 0.1 1.4 -0.1
v -0.2 0.7 -0.2
v -0.2 1.2 -0.2
v -0.2 1.4 -0.2
v -0.2 1.6 -0.2
v -0.2 1.7 -0.2
v -0.1 1.2 -0.2
v -0.1 1.3 -0.2
v 0.1 0.7 -0.2
v 0.1 1.3 -0.2
v 0.1 1.4 -0.2
v 0.1 1.6 -0.2
v 0.1 1.7 -0.2
v -0.2 0.7 0.1
v 0.1 0.7 0.1
v -0.2 0.7 -0.2
v 0.1 0.7 -0.2
v -0.2 1.4 0.1
v 0.1 1.4 0.1
v -0.1 1.4 1.49012e-08
v 0.1 1.4 1.49012e-08
v -0.1 1.4 -0.1
v 0.1 1.4 -0.1
v -0.2 1.4 -0.2
v 0.1 1.4 -0.2
v -0.2 1.2 0.1
v -0.1 1.2 0.1
v -0.2 1.2 -0.2
v -0.1 1.2 -0.2
v -0.1 1.3 0.1
v 0.1 1.3 0.1
v -0.1 1.3 1.49012e-08
v 0.1 1.3 1.49012e-08
v -0.1 1.3 -0.1
v 0.1 1.3 -0.1
v -0.1 1.3 -0.2
v 0.1 1.3 -0.2
v -0.2 1.7 0.1
v 0.1 1.7 0.1
v -0.2 1.7 -0.2
v 0.1 1.7 -0.2

# faces
f 3/2/1 2/2/1 1/2/1
f 4/2/1 2/2/1 3/2/1
f 7/1/1 6/1/1 5/1/1
f 8/1/1 6/1/1 7/1/1
f 9/3/1 8/3/1 7/3/1
f 10/3/1 8/3/1 9/3/1
f 13/2/1 12/2/1 11/2/1
f 14/2/1 12/2/1 13/2/1
f 15/2/1 12/2/1 14/2/1
f 16/2/1 12/2/1 15/2/1
f 17/1/1 15/1/1 14/1/1
f 18/1/1 15/1/1 17/1/1
f 19/2/2 20/2/2 21/2/2
f 21/2/2 20/2/2 22/2/2
f 22/2/2 20/2/2 23/2/2
f 23/2/2 20/2/2 24/2/2
f 22/1/2 23/1/2 26/1/2
f 26/1/2 23/1/2 27/1/2
f 25/1/2 26/1/2 29/1/2
f 27/1/2 28/1/2 29/1/2
f 26/1/2 27/1/2 29/1/2
f 29/1/2 28/1/2 30/1/2
f 29/3/2 30/3/2 31/3/2
f 31/3/2 30/3/2 32/3/2
f 38/2/3 34/2/3 33/2/3
f 40/2/3 38/2/3 33/2/3
f 40/2/3 39/2/3 38/2/3
f 41/2/3 39/2/3 40/2/3
f 42/1/3 36/1/3 35/1/3
f 43/3/3 37/3/3 36/3/3
f 43/1/3 36/1/3 42/1/3
f 44/3/3 37/3/3 43/3/3
f 47/1/3 46/1/3 45/1/3
f 48/1/3 46/1/3 47/1/3
f 49/1/4 50/1/4 51/1/4
f 51/1/4 50/1/4 52/1/4
f 53/2/4 54/2/4 58/2/4
f 53/2/4 58/2/4 60/2/4
f 58/2/4 59/2/4 60/2/4
f 60/2/4 59/2/4 61/2/4
f 55/1/4 56/1/4 62/1/4
f 56/3/4 57/3/4 63/3/4
f 62/1/4 56/1/4 63/1/4
f 63/3/4 57/3/4 64/3/4
f 67/2/5 66/2/5 65/2/5
f 68/2/5 66/2/5 67/2/5
f 71/1/5 70/1/5 69/1/5
f 72/1/5 70/1/5 71/1/5
f 73/1/5 71/1/5 69/1/5
f 75/1/5 73/1/5 69/1/5
f 75/1/5 74/1/5 73/1/5
f 76/1/5 74/1/5 75/1/5
f 77/2/6 78/2/6 79/2/6
f 79/2/6 78/2/6 80/2/6
f 81/2/6 82/2/6 83/2/6
f 83/2/6 82/2/6 84/2/6
f 85/2/6 86/2/6 87/2/6
f 87/2/6 86/2/6 88/2/6
f 89/3/6 90/3/6 91/3/6
f 91/3/6 90/3/6 92/3/6
