# MagicaVoxel @ Ephtracy

# group
o torso_walk

# material
mtllib human-0-torso_walk.mtl
usemtl palette

# normals
vn -1 0 0
vn 1 0 0
vn 0 0 1
vn 0 0 -1
vn 0 -1 0
vn 0 1 0

# texcoords
vt 0.970703 0.5
vt 0.974609 0.5

# verts
v -0.3 0.1 -0.1
v -0.3 0.1 -0.2
v -0.3 0.2 -0.1
v -0.3 0.2 -0.2
v -0.2 0.2 -0.1
v -0.2 0.2 -0.2
v -0.2 0.5 -0.1
v -0.2 0.5 -0.2
v -0.2 0.6 0.1
v -0.2 0.6 -0.2
v -0.2 0.7 0.1
v -0.2 0.7 -0.2
v -0.1 0.5 -0.1
v -0.1 0.5 -0.2
v -0.1 0.6 -0.1
v -0.1 0.6 -0.2
v 2.98023e-08 0.5 0.1
v 2.98023e-08 0.5 1.49012e-08
v 2.98023e-08 0.6 0.1
v 2.98023e-08 0.6 1.49012e-08
v 0.1 0 0.1
v 0.1 0 1.49012e-08
v 0.1 0.1 0.1
v 0.1 0.1 1.49012e-08
v 0.1 0.3 0.1
v 0.1 0.3 1.49012e-08
v 0.1 0.5 0.1
v 0.1 0.5 1.49012e-08
v 0.2 0.1 0.1
v 0.2 0.1 1.49012e-08
v 0.2 0.3 0.1
v 0.2 0.3 1.49012e-08
v -0.1 0.1 -0.1
v -0.1 0.1 -0.2
v -0.1 0.2 -0.1
v -0.1 0.2 -0.2
v -0.1 0.5 -0.1
v -0.1 0.5 -0.2
v 2.98023e-08 0.5 -0.1
v 2.98023e-08 0.5 -0.2
v 2.98023e-08 0.6 -0.1
v 2.98023e-08 0.6 -0.2
v 0.1 0.5 0.1
v 0.1 0.5 1.49012e-08
v 0.1 0.6 1.49012e-08
v 0.1 0.6 -0.2
v 0.1 0.7 0.1
v 0.1 0.7 -0.2
v 0.2 0.3 0.1
v 0.2 0.3 1.49012e-08
v 0.2 0.5 0.1
v 0.2 0.5 1.49012e-08
v 0.3 0 0.1
v 0.3 0 1.49012e-08
v 0.3 0.1 0.1
v 0.3 0.1 1.49012e-08
v 0.3 0.3 0.1
v 0.3 0.3 1.49012e-08
v -0.2 0.6 0.1
v -0.2 0.7 0.1
v 2.98023e-08 0.5 0.1
v 2.98023e-08 0.6 0.1
v 0.1 0 0.1
v 0.1 0.1 0.1
v 0.1 0.3 0.1
v 0.1 0.5 0.1
v 0.1 0.7 0.1
v 0.2 0.1 0.1
v 0.2 0.3 0.1
v 0.2 0.5 0.1
v 0.3 0 0.1
v 0.3 0.1 0.1
v 0.3 0.3 0.1
v -0.3 0.1 -0.1
v -0.3 0.2 -0.1
v -0.2 0.2 -0.1
v -0.2 0.5 -0.1
v -0.1 0.1 -0.1
v -0.1 0.2 -0.1
v -0.1 0.5 -0.1
v -0.1 0.6 -0.1
v 2.98023e-08 0.5 -0.1
v 2.98023e-08 0.6 -0.1
v 2.98023e-08 0.5 1.49012e-08
v 2.98023e-08 0.6 1.49012e-08
v 0.1 0 1.49012e-08
v 0.1 0.1 1.49012e-08
v 0.1 0.3 1.49012e-08
v 0.1 0.5 1.49012e-08
v 0.1 0.6 1.49012e-08
v 0.2 0.1 1.49012e-08
v 0.2 0.3 1.49012e-08
v 0.2 0.5 1.49012e-08
v 0.3 0 1.49012e-08
v 0.3 0.1 1.49012e-08
v 0.3 0.3 1.49012e-08
v -0.3 0.1 -0.2
v -0.3 0.2 -0.2
v -0.2 0.2 -0.2
v -0.2 0.5 -0.2
v -0.2 0.6 -0.2
v -0.2 0.7 -0.2
v -0.1 0.1 -0.2
v -0.1 0.2 -0.2
v -0.1 0.5 -0.2
v -0.1 0.6 -0.2
v 2.98023e-08 0.5 -0.2
v 2.98023e-08 0.6 -0.2
v 0.1 0.6 -0.2
v 0.1 0.7 -0.2
v 0.1 0 0.1
v 0.3 0 0.1
v 0.1 0 1.49012e-08
v 0.3 0 1.49012e-08
v -0.3 0.1 -0.1
v -0.1 0.1 -0.1
v -0.3 0.1 -0.2
v -0.1 0.1 -0.2
v 0.1 0.3 0.1
v 0.2 0.3 0.1
v 0.1 0.3 1.49012e-08
v 0.2 0.3 1.49012e-08
v 2.98023e-08 0.5 0.1
v 0.1 0.5 0.1
v 2.98023e-08 0.5 1.49012e-08
v 0.1 0.5 1.49012e-08
v -0.1 0.5 -0.1
v 2.98023e-08 0.5 -0.1
v -0.1 0.5 -0.2
v 2.98023e-08 0.5 -0.2
v -0.2 0.6 0.1
v 2.98023e-08 0.6 0.1
v 2.98023e-08 0.6 1.49012e-08
v 0.1 0.6 1.49012e-08
v -0.1 0.6 -0.1
v 2.98023e-08 0.6 -0.1
v -0.2 0.6 -0.2
v -0.1 0.6 -0.2
v 2.98023e-08 0.6 -0.2
v 0.1 0.6 -0.2
v 0.1 0.1 0.1
v 0.2 0.1 0.1
v 0.1 0.1 1.49012e-08
v 0.2 0.1 1.49012e-08
v -0.3 0.2 -0.1
v -0.2 0.2 -0.1
v -0.3 0.2 -0.2
v -0.2 0.2 -0.2
v 0.2 0.3 0.1
v 0.3 0.3 0.1
v 0.2 0.3 1.49012e-08
v 0.3 0.3 1.49012e-08
v 0.1 0.5 0.1
v 0.2 0.5 0.1
v 0.1 0.5 1.49012e-08
v 0.2 0.5 1.49012e-08
v -0.2 0.5 -0.1
v -0.1 0.5 -0.1
v -0.2 0.5 -0.2
v -0.1 0.5 -0.2
v -0.2 0.7 0.1
v 0.1 0.7 0.1
v -0.2 0.7 -0.2
v 0.1 0.7 -0.2

# faces
f 3/1/1 2/1/1 1/1/1
f 4/1/1 2/1/1 3/1/1
f 7/2/1 6/2/1 5/2/1
f 8/2/1 6/2/1 7/2/1
f 11/2/1 10/2/1 9/2/1
f 12/2/1 10/2/1 11/2/1
f 15/2/1 14/2/1 13/2/1
f 16/2/1 14/2/1 15/2/1
f 19/2/1 18/2/1 17/2/1
f 20/2/1 18/2/1 19/2/1
f 23/1/1 22/1/1 21/1/1
f 24/1/1 22/1/1 23/1/1
f 27/2/1 26/2/1 25/2/1
f 28/2/1 26/2/1 27/2/1
f 31/2/1 30/2/1 29/2/1
f 32/2/1 30/2/1 31/2/1
f 33/1/2 34/1/2 35/1/2
f 35/1/2 34/1/2 36/1/2
f 35/2/2 36/2/2 37/2/2
f 37/2/2 36/2/2 38/2/2
f 39/2/2 40/2/2 41/2/2
f 41/2/2 40/2/2 42/2/2
f 43/2/2 44/2/2 45/2/2
f 43/2/2 45/2/2 47/2/2
f 45/2/2 46/2/2 47/2/2
f 47/2/2 46/2/2 48/2/2
f 49/2/2 50/2/2 51/2/2
f 51/2/2 50/2/2 52/2/2
f 53/1/2 54/1/2 55/1/2
f 55/1/2 54/1/2 56/1/2
f 55/2/2 56/2/2 57/2/2
f 57/2/2 56/2/2 58/2/2
f 62/2/3 60/2/3 59/2/3
f 66/2/3 62/2/3 61/2/3
f 67/2/3 60/2/3 62/2/3
f 67/2/3 62/2/3 66/2/3
f 68/1/3 64/1/3 63/1/3
f 69/2/3 66/2/3 65/2/3
f 70/2/3 66/2/3 69/2/3
f 71/1/3 68/1/3 63/1/3
f 72/2/3 69/2/3 68/2/3
f 72/1/3 68/1/3 71/1/3
f 73/2/3 69/2/3 72/2/3
f 76/1/3 75/1/3 74/1/3
f 78/1/3 76/1/3 74/1/3
f 79/2/3 77/2/3 76/2/3
f 79/1/3 76/1/3 78/1/3
f 80/2/3 77/2/3 79/2/3
f 82/2/3 81/2/3 80/2/3
f 83/2/3 81/2/3 82/2/3
f 84/2/4 85/2/4 89/2/4
f 89/2/4 85/2/4 90/2/4
f 86/1/4 87/1/4 91/1/4
f 88/2/4 89/2/4 92/2/4
f 92/2/4 89/2/4 93/2/4
f 86/1/4 91/1/4 94/1/4
f 91/2/4 92/2/4 95/2/4
f 94/1/4 91/1/4 95/1/4
f 95/2/4 92/2/4 96/2/4
f 97/1/4 98/1/4 99/1/4
f 97/1/4 99/1/4 103/1/4
f 99/2/4 100/2/4 104/2/4
f 103/1/4 99/1/4 104/1/4
f 104/2/4 100/2/4 105/2/4
f 101/2/4 102/2/4 106/2/4
f 105/2/4 106/2/4 107/2/4
f 106/2/4 102/2/4 108/2/4
f 107/2/4 106/2/4 108/2/4
f 108/2/4 102/2/4 109/2/4
f 109/2/4 102/2/4 110/2/4
f 113/1/5 112/1/5 111/1/5
f 114/1/5 112/1/5 113/1/5
f 117/1/5 116/1/5 115/1/5
f 118/1/5 116/1/5 117/1/5
f 121/2/5 120/2/5 119/2/5
f 122/2/5 120/2/5 121/2/5
f 125/2/5 124/2/5 123/2/5
f 126/2/5 124/2/5 125/2/5
f 129/2/5 128/2/5 127/2/5
f 130/2/5 128/2/5 129/2/5
f 133/2/5 132/2/5 131/2/5
f 135/2/5 133/2/5 131/2/5
f 135/2/5 134/2/5 133/2/5
f 136/2/5 134/2/5 135/2/5
f 137/2/5 135/2/5 131/2/5
f 138/2/5 135/2/5 137/2/5
f 139/2/5 134/2/5 136/2/5
f 140/2/5 134/2/5 139/2/5
f 141/1/6 142/1/6 143/1/6
f 143/1/6 142/1/6 144/1/6
f 145/1/6 146/1/6 147/1/6
f 147/1/6 146/1/6 148/1/6
f 149/2/6 150/2/6 151/2/6
f 151/2/6 150/2/6 152/2/6
f 153/2/6 154/2/6 155/2/6
f 155/2/6 154/2/6 156/2/6
f 157/2/6 158/2/6 159/2/6
f 159/2/6 158/2/6 160/2/6
f 161/2/6 162/2/6 163/2/6
f 163/2/6 162/2/6 164/2/6
