# MagicaVoxel @ Ephtracy

# group
o right_hand_raised

# material
mtllib human-25-right_hand_raised.mtl
usemtl palette

# normals
vn -1 0 0
vn 1 0 0
vn 0 0 1
vn 0 0 -1
vn 0 -1 0
vn 0 1 0

# texcoords
vt 0.970703 0.5
vt 0.978516 0.5

# verts
v -0.3 0.6 -0.2
v -0.3 0.6 -0.3
v -0.3 0.7 -0.2
v -0.3 0.7 -0.3
v -0.2 0.7 -0.2
v -0.2 0.7 -0.3
v -0.2 0.8 -0.2
v -0.2 0.8 -0.3
v -0.1 0.8 -0.2
v -0.1 0.8 -0.3
v -0.1 1.1 -0.2
v -0.1 1.1 -0.3
v -0.1 1.3 -0.2
v -0.1 1.3 -0.3
v -0.2 0.6 -0.2
v -0.2 0.6 -0.3
v -0.2 0.7 -0.2
v -0.2 0.7 -0.3
v -0.1 0.7 -0.2
v -0.1 0.7 -0.3
v -0.1 0.8 -0.2
v -0.1 0.8 -0.3
v -2.98023e-08 0.8 -0.2
v -2.98023e-08 0.8 -0.3
v -2.98023e-08 1.1 -0.2
v -2.98023e-08 1.1 -0.3
v -2.98023e-08 1.3 -0.2
v -2.98023e-08 1.3 -0.3
v -0.3 0.6 -0.2
v -0.3 0.7 -0.2
v -0.2 0.6 -0.2
v -0.2 0.7 -0.2
v -0.2 0.8 -0.2
v -0.1 0.7 -0.2
v -0.1 0.8 -0.2
v -0.1 1.1 -0.2
v -0.1 1.3 -0.2
v -2.98023e-08 0.8 -0.2
v -2.98023e-08 1.1 -0.2
v -2.98023e-08 1.3 -0.2
v -0.3 0.6 -0.3
v -0.3 0.7 -0.3
v -0.2 0.6 -0.3
v -0.2 0.7 -0.3
v -0.2 0.8 -0.3
v -0.1 0.7 -0.3
v -0.1 0.8 -0.3
v -0.1 1.1 -0.3
v -0.1 1.3 -0.3
v -2.98023e-08 0.8 -0.3
v -2.98023e-08 1.1 -0.3
v -2.98023e-08 1.3 -0.3
v -0.3 0.6 -0.2
v -0.2 0.6 -0.2
v -0.3 0.6 -0.3
v -0.2 0.6 -0.3
v -0.2 0.7 -0.2
v -0.1 0.7 -0.2
v -0.2 0.7 -0.3
v -0.1 0.7 -0.3
v -0.1 0.8 -0.2
v -2.98023e-08 0.8 -0.2
v -0.1 0.8 -0.3
v -2.98023e-08 0.8 -0.3
v -0.3 0.7 -0.2
v -0.2 0.7 -0.2
v -0.3 0.7 -0.3
v -0.2 0.7 -0.3
v -0.2 0.8 -0.2
v -0.1 0.8 -0.2
v -0.2 0.8 -0.3
v -0.1 0.8 -0.3
v -0.1 1.3 -0.2
v -2.98023e-08 1.3 -0.2
v -0.1 1.3 -0.3
v -2.98023e-08 1.3 -0.3

# faces
f 3/1/1 2/1/1 1/1/1
f 4/1/1 2/1/1 3/1/1
f 7/1/1 6/1/1 5/1/1
f 8/1/1 6/1/1 7/1/1
f 11/1/1 10/1/1 9/1/1
f 12/1/1 10/1/1 11/1/1
f 13/2/1 12/2/1 11/2/1
f 14/2/1 12/2/1 13/2/1
f 15/1/2 16/1/2 17/1/2
f 17/1/2 16/1/2 18/1/2
f 19/1/2 20/1/2 21/1/2
f 21/1/2 20/1/2 22/1/2
f 23/1/2 24/1/2 25/1/2
f 25/1/2 24/1/2 26/1/2
f 25/2/2 26/2/2 27/2/2
f 27/2/2 26/2/2 28/2/2
f 31/1/3 30/1/3 29/1/3
f 32/1/3 30/1/3 31/1/3
f 34/1/3 33/1/3 32/1/3
f 35/1/3 33/1/3 34/1/3
f 38/1/3 36/1/3 35/1/3
f 39/2/3 37/2/3 36/2/3
f 39/1/3 36/1/3 38/1/3
f 40/2/3 37/2/3 39/2/3
f 41/1/4 42/1/4 43/1/4
f 43/1/4 42/1/4 44/1/4
f 44/1/4 45/1/4 46/1/4
f 46/1/4 45/1/4 47/1/4
f 47/1/4 48/1/4 50/1/4
f 48/2/4 49/2/4 51/2/4
f 50/1/4 48/1/4 51/1/4
f 51/2/4 49/2/4 52/2/4
f 55/1/5 54/1/5 53/1/5
f 56/1/5 54/1/5 55/1/5
f 59/1/5 58/1/5 57/1/5
f 60/1/5 58/1/5 59/1/5
f 63/1/5 62/1/5 61/1/5
f 64/1/5 62/1/5 63/1/5
f 65/1/6 66/1/6 67/1/6
f 67/1/6 66/1/6 68/1/6
f 69/1/6 70/1/6 71/1/6
f 71/1/6 70/1/6 72/1/6
f 73/2/6 74/2/6 75/2/6
f 75/2/6 74/2/6 76/2/6
